%TF.GenerationSoftware,KiCad,Pcbnew,5.1.10-88a1d61d58~88~ubuntu18.04.1*%
%TF.CreationDate,2021-08-07T22:55:04+07:00*%
%TF.ProjectId,ADV728xM_EVAL_SMA-MINISAS_MX8Mx,41445637-3238-4784-9d5f-4556414c5f53,rev?*%
%TF.SameCoordinates,Original*%
%TF.FileFunction,Legend,Bot*%
%TF.FilePolarity,Positive*%
%FSLAX46Y46*%
G04 Gerber Fmt 4.6, Leading zero omitted, Abs format (unit mm)*
G04 Created by KiCad (PCBNEW 5.1.10-88a1d61d58~88~ubuntu18.04.1) date 2021-08-07 22:55:04*
%MOMM*%
%LPD*%
G01*
G04 APERTURE LIST*
%ADD10C,0.200000*%
%ADD11C,0.127000*%
%ADD12C,0.150000*%
G04 APERTURE END LIST*
D10*
%TO.C,J3*%
X168946500Y-84768900D02*
G75*
G03*
X168946500Y-84768900I-100000J0D01*
G01*
D11*
X167346500Y-83578700D02*
X166046500Y-83578700D01*
X171646500Y-83578700D02*
X170346500Y-83578700D01*
D10*
%TO.C,J4*%
X182992700Y-84768900D02*
G75*
G03*
X182992700Y-84768900I-100000J0D01*
G01*
D11*
X181392700Y-83578700D02*
X180092700Y-83578700D01*
X185692700Y-83578700D02*
X184392700Y-83578700D01*
D10*
%TO.C,J1*%
X141057300Y-84819700D02*
G75*
G03*
X141057300Y-84819700I-100000J0D01*
G01*
D11*
X139457300Y-83629500D02*
X138157300Y-83629500D01*
X143757300Y-83629500D02*
X142457300Y-83629500D01*
D10*
%TO.C,J2*%
X154976500Y-84768900D02*
G75*
G03*
X154976500Y-84768900I-100000J0D01*
G01*
D11*
X153376500Y-83578700D02*
X152076500Y-83578700D01*
X157676500Y-83578700D02*
X156376500Y-83578700D01*
%TO.C,J3*%
D12*
X173510533Y-84872580D02*
X173510533Y-85586866D01*
X173558152Y-85729723D01*
X173653390Y-85824961D01*
X173796247Y-85872580D01*
X173891485Y-85872580D01*
X173129580Y-84872580D02*
X172510533Y-84872580D01*
X172843866Y-85253533D01*
X172701009Y-85253533D01*
X172605771Y-85301152D01*
X172558152Y-85348771D01*
X172510533Y-85444009D01*
X172510533Y-85682104D01*
X172558152Y-85777342D01*
X172605771Y-85824961D01*
X172701009Y-85872580D01*
X172986723Y-85872580D01*
X173081961Y-85824961D01*
X173129580Y-85777342D01*
%TO.C,J4*%
X187643093Y-84842100D02*
X187643093Y-85556386D01*
X187690712Y-85699243D01*
X187785950Y-85794481D01*
X187928807Y-85842100D01*
X188024045Y-85842100D01*
X186738331Y-85175434D02*
X186738331Y-85842100D01*
X186976426Y-84794481D02*
X187214521Y-85508767D01*
X186595474Y-85508767D01*
%TO.C,J1*%
X145646733Y-84765900D02*
X145646733Y-85480186D01*
X145694352Y-85623043D01*
X145789590Y-85718281D01*
X145932447Y-85765900D01*
X146027685Y-85765900D01*
X144646733Y-85765900D02*
X145218161Y-85765900D01*
X144932447Y-85765900D02*
X144932447Y-84765900D01*
X145027685Y-84908758D01*
X145122923Y-85003996D01*
X145218161Y-85051615D01*
%TO.C,J2*%
X159545613Y-84776060D02*
X159545613Y-85490346D01*
X159593232Y-85633203D01*
X159688470Y-85728441D01*
X159831327Y-85776060D01*
X159926565Y-85776060D01*
X159117041Y-84871299D02*
X159069422Y-84823680D01*
X158974184Y-84776060D01*
X158736089Y-84776060D01*
X158640851Y-84823680D01*
X158593232Y-84871299D01*
X158545613Y-84966537D01*
X158545613Y-85061775D01*
X158593232Y-85204632D01*
X159164660Y-85776060D01*
X158545613Y-85776060D01*
%TD*%
M02*
