M48
; DRILL file {KiCad 5.1.10-88a1d61d58~88~ubuntu18.04.1} date Sat Aug  7 22:55:08 2021
; FORMAT={-:-/ absolute / inch / decimal}
; #@! TF.CreationDate,2021-08-07T22:55:08+07:00
; #@! TF.GenerationSoftware,Kicad,Pcbnew,5.1.10-88a1d61d58~88~ubuntu18.04.1
FMAT,2
INCH
T1C0.0157
T2C0.0315
T3C0.0394
T4C0.0610
T5C0.1260
%
G90
G05
T1
X6.1158Y-4.4248
X6.1316Y-4.6502
X6.1568Y-4.4252
X6.172Y-4.6492
X6.193Y-3.968
X6.223Y-4.011
X6.3402Y-4.4932
X6.3834Y-4.4934
X6.4264Y-4.4934
X6.458Y-4.1314
X6.489Y-4.0125
X6.4982Y-4.1304
X6.5378Y-4.1304
X6.7165Y-3.968
T2
X6.0094Y-4.2549
X6.0094Y-4.3825
X6.0094Y-4.5399
X6.0094Y-4.6199
X6.7102Y-4.2155
X6.7102Y-4.3825
X6.7102Y-4.5399
X6.7102Y-4.6199
T3
X5.824Y-3.959
X5.824Y-4.059
X5.826Y-3.513
X5.826Y-3.613
X5.826Y-3.713
X5.826Y-3.813
X6.9115Y-3.5235
X6.9115Y-3.6235
X6.9115Y-3.7235
X6.9115Y-3.8235
X6.913Y-3.9665
X6.913Y-4.0665
T4
X6.0448Y-4.4612
X6.6748Y-4.4612
T5
X5.338Y-4.6574
X5.3404Y-3.5316
X7.3954Y-3.5316
X7.396Y-4.6548
T0
M30
