%TF.GenerationSoftware,KiCad,Pcbnew,5.1.10-88a1d61d58~88~ubuntu18.04.1*%
%TF.CreationDate,2021-08-07T22:55:04+07:00*%
%TF.ProjectId,ADV728xM_EVAL_SMA-MINISAS_MX8Mx,41445637-3238-4784-9d5f-4556414c5f53,rev?*%
%TF.SameCoordinates,Original*%
%TF.FileFunction,Copper,L1,Top*%
%TF.FilePolarity,Positive*%
%FSLAX46Y46*%
G04 Gerber Fmt 4.6, Leading zero omitted, Abs format (unit mm)*
G04 Created by KiCad (PCBNEW 5.1.10-88a1d61d58~88~ubuntu18.04.1) date 2021-08-07 22:55:04*
%MOMM*%
%LPD*%
G01*
G04 APERTURE LIST*
%TA.AperFunction,ComponentPad*%
%ADD10C,1.308000*%
%TD*%
%TA.AperFunction,SMDPad,CuDef*%
%ADD11R,0.350000X1.800000*%
%TD*%
%TA.AperFunction,ComponentPad*%
%ADD12O,1.700000X1.700000*%
%TD*%
%TA.AperFunction,ComponentPad*%
%ADD13R,1.700000X1.700000*%
%TD*%
%TA.AperFunction,SMDPad,CuDef*%
%ADD14R,2.413000X5.080000*%
%TD*%
%TA.AperFunction,SMDPad,CuDef*%
%ADD15R,1.358900X0.355600*%
%TD*%
%TA.AperFunction,ViaPad*%
%ADD16C,0.800000*%
%TD*%
%TA.AperFunction,Conductor*%
%ADD17C,0.250000*%
%TD*%
%TA.AperFunction,Conductor*%
%ADD18C,0.300000*%
%TD*%
%TA.AperFunction,Conductor*%
%ADD19C,0.350000*%
%TD*%
%TA.AperFunction,Conductor*%
%ADD20C,0.200000*%
%TD*%
%TA.AperFunction,Conductor*%
%ADD21C,0.254000*%
%TD*%
%TA.AperFunction,Conductor*%
%ADD22C,0.100000*%
%TD*%
G04 APERTURE END LIST*
D10*
%TO.P,J9,S8*%
%TO.N,GND*%
X170438920Y-117344480D03*
%TO.P,J9,S7*%
X170438920Y-115314480D03*
%TO.P,J9,S6*%
X170438920Y-111314480D03*
%TO.P,J9,S5*%
X170438920Y-107074480D03*
%TO.P,J9,S4*%
X152638920Y-117344480D03*
%TO.P,J9,S3*%
X152638920Y-115314480D03*
%TO.P,J9,S2*%
X152638920Y-111314480D03*
%TO.P,J9,S1*%
X152638920Y-108074480D03*
D11*
%TO.P,J9,A18*%
X168538920Y-116224480D03*
%TO.P,J9,A17*%
%TO.N,Net-(J9-PadA17)*%
X167738920Y-116224480D03*
%TO.P,J9,A16*%
%TO.N,Net-(J9-PadA16)*%
X166938920Y-116224480D03*
%TO.P,J9,A15*%
%TO.N,GND*%
X166138920Y-116224480D03*
%TO.P,J9,A14*%
%TO.N,Net-(J9-PadA14)*%
X165338920Y-116224480D03*
%TO.P,J9,A13*%
%TO.N,Net-(J9-PadA13)*%
X164538920Y-116224480D03*
%TO.P,J9,A12*%
%TO.N,GND*%
X163738920Y-116224480D03*
%TO.P,J9,A11*%
%TO.N,/I2C_SCL_1V8*%
X162938920Y-116224480D03*
%TO.P,J9,A10*%
%TO.N,/I2C_SDA_1V8*%
X162138920Y-116224480D03*
%TO.P,J9,A9*%
%TO.N,/nRST_1V8*%
X161338920Y-116224480D03*
%TO.P,J9,A8*%
%TO.N,/MCLK_1V8*%
X160538920Y-116224480D03*
%TO.P,J9,A7*%
%TO.N,GND*%
X159738920Y-116224480D03*
%TO.P,J9,A6*%
%TO.N,Net-(J9-PadA6)*%
X158938920Y-116224480D03*
%TO.P,J9,A5*%
%TO.N,Net-(J9-PadA5)*%
X158138920Y-116224480D03*
%TO.P,J9,A4*%
%TO.N,GND*%
X157338920Y-116224480D03*
%TO.P,J9,A3*%
%TO.N,/D0_P*%
X156538920Y-116224480D03*
%TO.P,J9,A2*%
%TO.N,/D0_N*%
X155738920Y-116224480D03*
%TO.P,J9,A1*%
%TO.N,GND*%
X154938920Y-116224480D03*
%TO.P,J9,B18*%
X168138920Y-110404480D03*
%TO.P,J9,B17*%
%TO.N,+5V*%
X167338920Y-110404480D03*
%TO.P,J9,B16*%
X166538920Y-110404480D03*
%TO.P,J9,B15*%
%TO.N,GND*%
X165738920Y-110404480D03*
%TO.P,J9,B14*%
%TO.N,Net-(J9-PadB13)*%
X164938920Y-110404480D03*
%TO.P,J9,B13*%
X164138920Y-110404480D03*
%TO.P,J9,B12*%
%TO.N,GND*%
X163338920Y-110404480D03*
%TO.P,J9,B11*%
%TO.N,/PWDN_1V8*%
X162538920Y-110404480D03*
%TO.P,J9,B10*%
%TO.N,Net-(J9-PadB10)*%
X161738920Y-110404480D03*
%TO.P,J9,B9*%
%TO.N,Net-(J9-PadB9)*%
X160938920Y-110404480D03*
%TO.P,J9,B8*%
%TO.N,Net-(J9-PadB8)*%
X160138920Y-110404480D03*
%TO.P,J9,B7*%
%TO.N,GND*%
X159338920Y-110404480D03*
%TO.P,J9,B6*%
%TO.N,+1V8*%
X158538920Y-110404480D03*
%TO.P,J9,B5*%
X157738920Y-110404480D03*
%TO.P,J9,B4*%
%TO.N,GND*%
X156938920Y-110404480D03*
%TO.P,J9,B3*%
%TO.N,/CLK_P*%
X156138920Y-110404480D03*
%TO.P,J9,B2*%
%TO.N,/CLK_N*%
X155338920Y-110404480D03*
%TO.P,J9,B1*%
%TO.N,GND*%
X154538920Y-110404480D03*
%TD*%
D12*
%TO.P,J6,4*%
%TO.N,/PWDN_1V8*%
X175552100Y-89496900D03*
%TO.P,J6,3*%
%TO.N,/nRST_1V8*%
X175552100Y-92036900D03*
%TO.P,J6,2*%
%TO.N,/I2C_SDA_1V8*%
X175552100Y-94576900D03*
D13*
%TO.P,J6,1*%
%TO.N,/I2C_SCL_1V8*%
X175552100Y-97116900D03*
%TD*%
D14*
%TO.P,J3,S4*%
%TO.N,GND*%
X164465000Y-81368900D03*
%TO.P,J3,S3*%
X173228000Y-81368900D03*
%TD*%
%TO.P,J4,S4*%
%TO.N,GND*%
X178511200Y-81368900D03*
%TO.P,J4,S3*%
X187274200Y-81368900D03*
%TD*%
%TO.P,J1,S4*%
%TO.N,GND*%
X136575800Y-81419700D03*
%TO.P,J1,S3*%
X145338800Y-81419700D03*
%TD*%
%TO.P,J2,S4*%
%TO.N,GND*%
X150495000Y-81368900D03*
%TO.P,J2,S3*%
X159258000Y-81368900D03*
%TD*%
%TO.P,C2,1*%
%TO.N,GND*%
%TA.AperFunction,SMDPad,CuDef*%
G36*
G01*
X152905000Y-101024700D02*
X152905000Y-100549700D01*
G75*
G02*
X153142500Y-100312200I237500J0D01*
G01*
X153742500Y-100312200D01*
G75*
G02*
X153980000Y-100549700I0J-237500D01*
G01*
X153980000Y-101024700D01*
G75*
G02*
X153742500Y-101262200I-237500J0D01*
G01*
X153142500Y-101262200D01*
G75*
G02*
X152905000Y-101024700I0J237500D01*
G01*
G37*
%TD.AperFunction*%
%TO.P,C2,2*%
%TO.N,+3V3*%
%TA.AperFunction,SMDPad,CuDef*%
G36*
G01*
X154630000Y-101024700D02*
X154630000Y-100549700D01*
G75*
G02*
X154867500Y-100312200I237500J0D01*
G01*
X155467500Y-100312200D01*
G75*
G02*
X155705000Y-100549700I0J-237500D01*
G01*
X155705000Y-101024700D01*
G75*
G02*
X155467500Y-101262200I-237500J0D01*
G01*
X154867500Y-101262200D01*
G75*
G02*
X154630000Y-101024700I0J237500D01*
G01*
G37*
%TD.AperFunction*%
%TD*%
%TO.P,C1,2*%
%TO.N,+1V8*%
%TA.AperFunction,SMDPad,CuDef*%
G36*
G01*
X154617300Y-102828100D02*
X154617300Y-102353100D01*
G75*
G02*
X154854800Y-102115600I237500J0D01*
G01*
X155454800Y-102115600D01*
G75*
G02*
X155692300Y-102353100I0J-237500D01*
G01*
X155692300Y-102828100D01*
G75*
G02*
X155454800Y-103065600I-237500J0D01*
G01*
X154854800Y-103065600D01*
G75*
G02*
X154617300Y-102828100I0J237500D01*
G01*
G37*
%TD.AperFunction*%
%TO.P,C1,1*%
%TO.N,GND*%
%TA.AperFunction,SMDPad,CuDef*%
G36*
G01*
X152892300Y-102828100D02*
X152892300Y-102353100D01*
G75*
G02*
X153129800Y-102115600I237500J0D01*
G01*
X153729800Y-102115600D01*
G75*
G02*
X153967300Y-102353100I0J-237500D01*
G01*
X153967300Y-102828100D01*
G75*
G02*
X153729800Y-103065600I-237500J0D01*
G01*
X153129800Y-103065600D01*
G75*
G02*
X152892300Y-102828100I0J237500D01*
G01*
G37*
%TD.AperFunction*%
%TD*%
D13*
%TO.P,J5,1*%
%TO.N,/I2C_SCL_3V3*%
X147980400Y-96850200D03*
D12*
%TO.P,J5,2*%
%TO.N,/I2C_SDA_3V3*%
X147980400Y-94310200D03*
%TO.P,J5,3*%
%TO.N,/GPIO0_3V3*%
X147980400Y-91770200D03*
%TO.P,J5,4*%
%TO.N,/GPIO1_3V3*%
X147980400Y-89230200D03*
%TD*%
D13*
%TO.P,J8,1*%
%TO.N,+1V8*%
X175590200Y-103289100D03*
D12*
%TO.P,J8,2*%
%TO.N,GND*%
X175590200Y-100749100D03*
%TD*%
%TO.P,J7,2*%
%TO.N,GND*%
X147929600Y-100558600D03*
D13*
%TO.P,J7,1*%
%TO.N,+3V3*%
X147929600Y-103098600D03*
%TD*%
%TO.P,R1,1*%
%TO.N,Net-(J9-PadB13)*%
%TA.AperFunction,SMDPad,CuDef*%
G36*
G01*
X168005200Y-102900901D02*
X168005200Y-102000899D01*
G75*
G02*
X168255199Y-101750900I249999J0D01*
G01*
X168955201Y-101750900D01*
G75*
G02*
X169205200Y-102000899I0J-249999D01*
G01*
X169205200Y-102900901D01*
G75*
G02*
X168955201Y-103150900I-249999J0D01*
G01*
X168255199Y-103150900D01*
G75*
G02*
X168005200Y-102900901I0J249999D01*
G01*
G37*
%TD.AperFunction*%
%TO.P,R1,2*%
%TO.N,+3V3*%
%TA.AperFunction,SMDPad,CuDef*%
G36*
G01*
X170005200Y-102900901D02*
X170005200Y-102000899D01*
G75*
G02*
X170255199Y-101750900I249999J0D01*
G01*
X170955201Y-101750900D01*
G75*
G02*
X171205200Y-102000899I0J-249999D01*
G01*
X171205200Y-102900901D01*
G75*
G02*
X170955201Y-103150900I-249999J0D01*
G01*
X170255199Y-103150900D01*
G75*
G02*
X170005200Y-102900901I0J249999D01*
G01*
G37*
%TD.AperFunction*%
%TD*%
D15*
%TO.P,U1,14*%
%TO.N,+1V8*%
X159061150Y-98800199D03*
%TO.P,U1,13*%
%TO.N,+3V3*%
X159061150Y-98150200D03*
%TO.P,U1,12*%
%TO.N,/I2C_SCL_3V3*%
X159061150Y-97500199D03*
%TO.P,U1,11*%
%TO.N,/I2C_SDA_3V3*%
X159061150Y-96850200D03*
%TO.P,U1,10*%
%TO.N,/GPIO0_3V3*%
X159061150Y-96200199D03*
%TO.P,U1,9*%
%TO.N,Net-(U1-Pad9)*%
X159061150Y-95550200D03*
%TO.P,U1,8*%
%TO.N,/GPIO1_3V3*%
X159061150Y-94900199D03*
%TO.P,U1,7*%
%TO.N,GND*%
X164814250Y-94900201D03*
%TO.P,U1,6*%
%TO.N,Net-(U1-Pad6)*%
X164814250Y-95550200D03*
%TO.P,U1,5*%
%TO.N,/PWDN_1V8*%
X164814250Y-96200201D03*
%TO.P,U1,4*%
%TO.N,/nRST_1V8*%
X164814250Y-96850200D03*
%TO.P,U1,3*%
%TO.N,/I2C_SDA_1V8*%
X164814250Y-97500199D03*
%TO.P,U1,2*%
%TO.N,/I2C_SCL_1V8*%
X164814250Y-98150200D03*
%TO.P,U1,1*%
%TO.N,+1V8*%
X164814250Y-98800201D03*
%TD*%
D16*
%TO.N,+3V3*%
X157302200Y-100787200D03*
X170599100Y-100787200D03*
%TO.N,/D0_N*%
X155742640Y-118115080D03*
%TO.N,/D0_P*%
X156768800Y-118089680D03*
%TO.N,/CLK_N*%
X155341320Y-112389920D03*
%TO.N,/CLK_P*%
X156382720Y-112400080D03*
%TO.N,/nRST_1V8*%
X161041080Y-114127280D03*
%TO.N,/I2C_SDA_1V8*%
X162138360Y-114132360D03*
%TO.N,/I2C_SCL_1V8*%
X163230560Y-114132360D03*
X166060120Y-104912160D03*
%TO.N,/I2C_SDA_1V8*%
X165054280Y-104912160D03*
%TO.N,+1V8*%
X164820600Y-101917500D03*
X158064200Y-101879400D03*
%TO.N,/nRST_1V8*%
X164033200Y-104937560D03*
%TD*%
D17*
%TO.N,GND*%
X159730440Y-114340640D02*
X159735520Y-114335560D01*
D18*
%TO.N,+3V3*%
X159061150Y-98150200D02*
X157564300Y-98150200D01*
X157302200Y-98412300D02*
X157564300Y-98150200D01*
X157302200Y-100787200D02*
X157302200Y-98412300D01*
D19*
X170592500Y-100793800D02*
X170599100Y-100787200D01*
X155167500Y-100787200D02*
X157302200Y-100787200D01*
D18*
X170605200Y-100793300D02*
X170599100Y-100787200D01*
D19*
X170605200Y-102450900D02*
X170605200Y-100793300D01*
D17*
%TO.N,GND*%
X163182300Y-85128100D02*
X161246391Y-87064009D01*
D19*
X175288700Y-100790500D02*
X175298100Y-100799900D01*
D17*
X164712650Y-94887501D02*
X169272499Y-94887501D01*
X169272499Y-94887501D02*
X172212000Y-91948000D01*
X180035200Y-94081600D02*
X180035200Y-103301800D01*
X177901600Y-91948000D02*
X180035200Y-94081600D01*
X160594800Y-105328400D02*
X160594800Y-106578400D01*
X161757800Y-104165400D02*
X160594800Y-105328400D01*
X156938920Y-110404480D02*
X156938920Y-108643360D01*
X156938920Y-108643360D02*
X156916120Y-108620560D01*
X154938920Y-114367120D02*
X154965400Y-114340640D01*
X154938920Y-116224480D02*
X154938920Y-114367120D01*
X159738920Y-114338960D02*
X159735520Y-114335560D01*
X159738920Y-116224480D02*
X159738920Y-114338960D01*
X159738920Y-112718440D02*
X159735520Y-112715040D01*
X159738920Y-114338960D02*
X159738920Y-112718440D01*
X159338920Y-112318440D02*
X159738920Y-112718440D01*
X159338920Y-110404480D02*
X159338920Y-112318440D01*
X157338920Y-114341800D02*
X157337760Y-114340640D01*
X157338920Y-116224480D02*
X157338920Y-114341800D01*
X154965400Y-114340640D02*
X157337760Y-114340640D01*
X157337760Y-114340640D02*
X159730440Y-114340640D01*
X163338920Y-112686240D02*
X163367720Y-112715040D01*
X163338920Y-110404480D02*
X163338920Y-112686240D01*
X159735520Y-112715040D02*
X163367720Y-112715040D01*
X165738920Y-112700960D02*
X165724840Y-112715040D01*
X165738920Y-110404480D02*
X165738920Y-112700960D01*
X163367720Y-112715040D02*
X165724840Y-112715040D01*
X166138920Y-112737960D02*
X166116000Y-112715040D01*
X166138920Y-116224480D02*
X166138920Y-112737960D01*
X165724840Y-112715040D02*
X166116000Y-112715040D01*
X166116000Y-112715040D02*
X167802560Y-112715040D01*
X168538920Y-116224480D02*
X168538920Y-118125480D01*
X169657920Y-118125480D02*
X170438920Y-117344480D01*
X168538920Y-118125480D02*
X169657920Y-118125480D01*
X159738920Y-118118480D02*
X159745680Y-118125240D01*
X159738920Y-116224480D02*
X159738920Y-118118480D01*
X163738920Y-118120520D02*
X163743640Y-118125240D01*
X163738920Y-116224480D02*
X163738920Y-118120520D01*
X159745680Y-118125240D02*
X163743640Y-118125240D01*
X166138920Y-118107520D02*
X166156640Y-118125240D01*
X166138920Y-116224480D02*
X166138920Y-118107520D01*
X163743640Y-118125240D02*
X166156640Y-118125240D01*
X166156640Y-118125240D02*
X168523920Y-118125240D01*
X159338920Y-107834280D02*
X160594800Y-106578400D01*
X159338920Y-110404480D02*
X159338920Y-107834280D01*
D19*
%TO.N,+1V8*%
X175285400Y-103327200D02*
X175298100Y-103339900D01*
D18*
X158210799Y-98787499D02*
X158959550Y-98787499D01*
X155155900Y-102591700D02*
X155154800Y-102590600D01*
D17*
X164814248Y-98800199D02*
X164814250Y-98800201D01*
X164814250Y-101911150D02*
X164820600Y-101917500D01*
X164814250Y-98800201D02*
X164814250Y-101911150D01*
D18*
X158064200Y-98934098D02*
X158210799Y-98787499D01*
X158064200Y-101879400D02*
X158064200Y-98934098D01*
X157738920Y-110404480D02*
X157738920Y-102595520D01*
D17*
X158064200Y-102270240D02*
X157738920Y-102595520D01*
X158064200Y-101879400D02*
X158064200Y-102270240D01*
X155159720Y-102595520D02*
X155154800Y-102590600D01*
X157738920Y-102595520D02*
X155159720Y-102595520D01*
D18*
X158538920Y-110404480D02*
X157738920Y-110404480D01*
D20*
%TO.N,/D0_P*%
X156538920Y-116224480D02*
X156538920Y-117189240D01*
X156768800Y-118089680D02*
X156768800Y-117693440D01*
X156538920Y-117463560D02*
X156538920Y-117189240D01*
X156768800Y-117693440D02*
X156538920Y-117463560D01*
%TO.N,/D0_N*%
X155738920Y-118111360D02*
X155742640Y-118115080D01*
X155738920Y-116224480D02*
X155738920Y-118111360D01*
%TO.N,/CLK_P*%
X156382720Y-111968280D02*
X156138920Y-111724480D01*
X156382720Y-112400080D02*
X156382720Y-111968280D01*
X156138920Y-110404480D02*
X156138920Y-111724480D01*
%TO.N,/CLK_N*%
X155338920Y-112387520D02*
X155341320Y-112389920D01*
X155338920Y-110404480D02*
X155338920Y-112387520D01*
D17*
%TO.N,/I2C_SDA_3V3*%
X157010100Y-96837500D02*
X151193500Y-96837500D01*
X157010100Y-96837500D02*
X156756100Y-96837500D01*
X158959550Y-96837500D02*
X157010100Y-96837500D01*
X148666200Y-94310200D02*
X147980400Y-94310200D01*
X151193500Y-96837500D02*
X148666200Y-94310200D01*
%TO.N,/I2C_SCL_3V3*%
X158959550Y-97487499D02*
X154251901Y-97487499D01*
X148691600Y-96875600D02*
X149923500Y-96875600D01*
X150535399Y-97487499D02*
X154251901Y-97487499D01*
X149923500Y-96875600D02*
X150535399Y-97487499D01*
%TO.N,/GPIO0_3V3*%
X152397699Y-96187499D02*
X147980400Y-91770200D01*
X158959550Y-96187499D02*
X152397699Y-96187499D01*
%TO.N,/GPIO1_3V3*%
X149809200Y-91059000D02*
X147980400Y-89230200D01*
X149809200Y-91960700D02*
X149809200Y-91059000D01*
X152735999Y-94887499D02*
X149809200Y-91960700D01*
X158959550Y-94887499D02*
X152735999Y-94887499D01*
%TO.N,/I2C_SDA_1V8*%
X173098701Y-97500199D02*
X164814250Y-97500199D01*
X173964600Y-95313500D02*
X173964600Y-96634300D01*
X174701200Y-94576900D02*
X173964600Y-95313500D01*
X173964600Y-96634300D02*
X173098701Y-97500199D01*
X175552100Y-94576900D02*
X174701200Y-94576900D01*
%TO.N,/I2C_SCL_1V8*%
X175247300Y-96723200D02*
X175260000Y-96710500D01*
X164814250Y-98150200D02*
X166632100Y-98150200D01*
X174625000Y-97116900D02*
X173591700Y-98150200D01*
X175552100Y-97116900D02*
X174625000Y-97116900D01*
X166632100Y-98150200D02*
X173591700Y-98150200D01*
%TO.N,/PWDN_1V8*%
X174307500Y-89496900D02*
X175552100Y-89496900D01*
X173951900Y-89852500D02*
X174307500Y-89496900D01*
X173951900Y-91313000D02*
X173951900Y-89852500D01*
X172138099Y-96187501D02*
X172389800Y-95935800D01*
X172389800Y-94424500D02*
X173177200Y-93637100D01*
X164712650Y-96187501D02*
X172138099Y-96187501D01*
X172389800Y-95935800D02*
X172389800Y-94424500D01*
X173177200Y-92087700D02*
X173951900Y-91313000D01*
X173177200Y-93637100D02*
X173177200Y-92087700D01*
X162994099Y-96200201D02*
X162179000Y-97015300D01*
X162179000Y-97015300D02*
X162179000Y-102603300D01*
X164814250Y-96200201D02*
X162994099Y-96200201D01*
%TO.N,/nRST_1V8*%
X164712650Y-96837500D02*
X172605700Y-96837500D01*
X172605700Y-96837500D02*
X173113700Y-96329500D01*
X173113700Y-96329500D02*
X173113700Y-94932500D01*
X173113700Y-94932500D02*
X173951900Y-94094300D01*
X173951900Y-94094300D02*
X173951900Y-92735400D01*
X174650400Y-92036900D02*
X175552100Y-92036900D01*
X173951900Y-92735400D02*
X174650400Y-92036900D01*
X164814250Y-96850200D02*
X163309300Y-96850200D01*
X163309300Y-96850200D02*
X162680650Y-97478850D01*
X162680650Y-97478850D02*
X162680650Y-102381050D01*
X162680650Y-102381050D02*
X164033200Y-103733600D01*
X164033200Y-103733600D02*
X164033200Y-104485440D01*
X164033200Y-104485440D02*
X164033200Y-104937560D01*
X161338920Y-114425120D02*
X161041080Y-114127280D01*
X161338920Y-116224480D02*
X161338920Y-114425120D01*
%TO.N,/PWDN_1V8*%
X162538920Y-102963220D02*
X162179000Y-102603300D01*
X162538920Y-110404480D02*
X162538920Y-102963220D01*
%TO.N,/I2C_SCL_1V8*%
X163774600Y-98150200D02*
X164814250Y-98150200D01*
X163645850Y-101815752D02*
X163645850Y-98278950D01*
X163645850Y-98278950D02*
X163774600Y-98150200D01*
X166060120Y-104230022D02*
X163645850Y-101815752D01*
X166060120Y-104912160D02*
X166060120Y-104682142D01*
X166060120Y-104230022D02*
X166060120Y-104912160D01*
X162938920Y-114424000D02*
X163230560Y-114132360D01*
X162938920Y-116224480D02*
X162938920Y-114424000D01*
%TO.N,/I2C_SDA_1V8*%
X163144200Y-97853500D02*
X163497501Y-97500199D01*
X163144200Y-102120700D02*
X163144200Y-97853500D01*
X165054280Y-104460040D02*
X165054280Y-104030780D01*
X163497501Y-97500199D02*
X164814250Y-97500199D01*
X165054280Y-104030780D02*
X163144200Y-102120700D01*
X165054280Y-104460040D02*
X165054280Y-104912160D01*
X162138920Y-114132920D02*
X162138360Y-114132360D01*
X162138920Y-116224480D02*
X162138920Y-114132920D01*
%TO.N,+5V*%
X167338920Y-110404480D02*
X167338920Y-109183080D01*
X167338920Y-109183080D02*
X167228520Y-109072680D01*
X167228520Y-109072680D02*
X166654480Y-109072680D01*
X166538920Y-109188240D02*
X166538920Y-110404480D01*
X166654480Y-109072680D02*
X166538920Y-109188240D01*
%TO.N,Net-(J9-PadB13)*%
X164938920Y-110404480D02*
X164938920Y-108974200D01*
D19*
X164938920Y-108974200D02*
X168594800Y-105318320D01*
D17*
X168594800Y-102461300D02*
X168605200Y-102450900D01*
D19*
X168594800Y-105318320D02*
X168594800Y-102461300D01*
D17*
X164138920Y-110404480D02*
X164138920Y-109053320D01*
X164218040Y-108974200D02*
X164938920Y-108974200D01*
X164138920Y-109053320D02*
X164218040Y-108974200D01*
%TD*%
D21*
%TO.N,GND*%
X134731610Y-79159824D02*
X134734300Y-81133950D01*
X134893050Y-81292700D01*
X136448800Y-81292700D01*
X136448800Y-81272700D01*
X136702800Y-81272700D01*
X136702800Y-81292700D01*
X138258550Y-81292700D01*
X138417300Y-81133950D01*
X138419988Y-79161403D01*
X143494615Y-79163575D01*
X143497300Y-81133950D01*
X143656050Y-81292700D01*
X145211800Y-81292700D01*
X145211800Y-81272700D01*
X145465800Y-81272700D01*
X145465800Y-81292700D01*
X147021550Y-81292700D01*
X147180300Y-81133950D01*
X147182983Y-79165154D01*
X148650887Y-79165783D01*
X148653500Y-81083150D01*
X148812250Y-81241900D01*
X150368000Y-81241900D01*
X150368000Y-81221900D01*
X150622000Y-81221900D01*
X150622000Y-81241900D01*
X152177750Y-81241900D01*
X152336500Y-81083150D01*
X152339111Y-79167361D01*
X157413892Y-79169534D01*
X157416500Y-81083150D01*
X157575250Y-81241900D01*
X159131000Y-81241900D01*
X159131000Y-81221900D01*
X159385000Y-81221900D01*
X159385000Y-81241900D01*
X160940750Y-81241900D01*
X161099500Y-81083150D01*
X161102106Y-79171113D01*
X162620895Y-79171763D01*
X162623500Y-81083150D01*
X162782250Y-81241900D01*
X164338000Y-81241900D01*
X164338000Y-81221900D01*
X164592000Y-81221900D01*
X164592000Y-81241900D01*
X166147750Y-81241900D01*
X166306500Y-81083150D01*
X166309103Y-79173342D01*
X171383900Y-79175514D01*
X171386500Y-81083150D01*
X171545250Y-81241900D01*
X173101000Y-81241900D01*
X173101000Y-81221900D01*
X173355000Y-81221900D01*
X173355000Y-81241900D01*
X174910750Y-81241900D01*
X175069500Y-81083150D01*
X175072097Y-79177093D01*
X176667103Y-79177776D01*
X176669700Y-81083150D01*
X176828450Y-81241900D01*
X178384200Y-81241900D01*
X178384200Y-81221900D01*
X178638200Y-81221900D01*
X178638200Y-81241900D01*
X180193950Y-81241900D01*
X180352700Y-81083150D01*
X180355294Y-79179354D01*
X185430109Y-79181527D01*
X185432700Y-81083150D01*
X185591450Y-81241900D01*
X187147200Y-81241900D01*
X187147200Y-81221900D01*
X187401200Y-81221900D01*
X187401200Y-81241900D01*
X188956950Y-81241900D01*
X189115700Y-81083150D01*
X189118289Y-79183105D01*
X190779800Y-79183817D01*
X190779801Y-121209200D01*
X132760614Y-121209200D01*
X132760964Y-118077832D01*
X133350200Y-118077832D01*
X133350200Y-118518088D01*
X133436090Y-118949885D01*
X133604569Y-119356629D01*
X133849162Y-119722689D01*
X134160471Y-120033998D01*
X134526531Y-120278591D01*
X134933275Y-120447070D01*
X135365072Y-120532960D01*
X135805328Y-120532960D01*
X136237125Y-120447070D01*
X136643869Y-120278591D01*
X137009929Y-120033998D01*
X137321238Y-119722689D01*
X137565831Y-119356629D01*
X137734310Y-118949885D01*
X137820200Y-118518088D01*
X137820200Y-118232867D01*
X151930138Y-118232867D01*
X151984013Y-118461948D01*
X152214604Y-118568243D01*
X152461501Y-118627508D01*
X152715216Y-118637468D01*
X152965999Y-118597739D01*
X153204213Y-118509848D01*
X153293827Y-118461948D01*
X153347702Y-118232867D01*
X152638920Y-117524085D01*
X151930138Y-118232867D01*
X137820200Y-118232867D01*
X137820200Y-118077832D01*
X137734310Y-117646035D01*
X137641005Y-117420776D01*
X151345932Y-117420776D01*
X151385661Y-117671559D01*
X151473552Y-117909773D01*
X151521452Y-117999387D01*
X151750533Y-118053262D01*
X152459315Y-117344480D01*
X152818525Y-117344480D01*
X153527307Y-118053262D01*
X153756388Y-117999387D01*
X153862683Y-117768796D01*
X153921948Y-117521899D01*
X153931908Y-117268184D01*
X153907825Y-117116161D01*
X154125902Y-117116161D01*
X154136539Y-117240792D01*
X154171285Y-117360953D01*
X154228806Y-117472027D01*
X154306891Y-117569744D01*
X154402539Y-117650351D01*
X154512075Y-117710748D01*
X154631290Y-117748615D01*
X154732170Y-117759480D01*
X154796167Y-117695483D01*
X154747414Y-117813182D01*
X154707640Y-118013141D01*
X154707640Y-118217019D01*
X154747414Y-118416978D01*
X154825435Y-118605336D01*
X154938703Y-118774854D01*
X155082866Y-118919017D01*
X155252384Y-119032285D01*
X155440742Y-119110306D01*
X155640701Y-119150080D01*
X155844579Y-119150080D01*
X156044538Y-119110306D01*
X156232896Y-119032285D01*
X156274727Y-119004335D01*
X156278544Y-119006885D01*
X156466902Y-119084906D01*
X156666861Y-119124680D01*
X156870739Y-119124680D01*
X157070698Y-119084906D01*
X157259056Y-119006885D01*
X157428574Y-118893617D01*
X157572737Y-118749454D01*
X157686005Y-118579936D01*
X157764026Y-118391578D01*
X157795595Y-118232867D01*
X169730138Y-118232867D01*
X169784013Y-118461948D01*
X170014604Y-118568243D01*
X170261501Y-118627508D01*
X170515216Y-118637468D01*
X170765999Y-118597739D01*
X171004213Y-118509848D01*
X171093827Y-118461948D01*
X171147702Y-118232867D01*
X170438920Y-117524085D01*
X169730138Y-118232867D01*
X157795595Y-118232867D01*
X157803800Y-118191619D01*
X157803800Y-117987741D01*
X157764026Y-117787782D01*
X157736030Y-117720193D01*
X157738074Y-117719544D01*
X157839438Y-117750292D01*
X157963920Y-117762552D01*
X158313920Y-117762552D01*
X158438402Y-117750292D01*
X158538920Y-117719800D01*
X158639438Y-117750292D01*
X158763920Y-117762552D01*
X159113920Y-117762552D01*
X159238402Y-117750292D01*
X159339766Y-117719544D01*
X159431290Y-117748615D01*
X159532170Y-117759480D01*
X159690920Y-117600730D01*
X159690920Y-117392049D01*
X159703422Y-117368660D01*
X159738920Y-117251639D01*
X159774418Y-117368660D01*
X159786920Y-117392049D01*
X159786920Y-117600730D01*
X159945670Y-117759480D01*
X160046550Y-117748615D01*
X160138074Y-117719544D01*
X160239438Y-117750292D01*
X160363920Y-117762552D01*
X160713920Y-117762552D01*
X160838402Y-117750292D01*
X160938920Y-117719800D01*
X161039438Y-117750292D01*
X161163920Y-117762552D01*
X161513920Y-117762552D01*
X161638402Y-117750292D01*
X161738920Y-117719800D01*
X161839438Y-117750292D01*
X161963920Y-117762552D01*
X162313920Y-117762552D01*
X162438402Y-117750292D01*
X162538920Y-117719800D01*
X162639438Y-117750292D01*
X162763920Y-117762552D01*
X163113920Y-117762552D01*
X163238402Y-117750292D01*
X163339766Y-117719544D01*
X163431290Y-117748615D01*
X163532170Y-117759480D01*
X163690920Y-117600730D01*
X163690920Y-117392049D01*
X163703422Y-117368660D01*
X163738920Y-117251639D01*
X163774418Y-117368660D01*
X163786920Y-117392049D01*
X163786920Y-117600730D01*
X163945670Y-117759480D01*
X164046550Y-117748615D01*
X164138074Y-117719544D01*
X164239438Y-117750292D01*
X164363920Y-117762552D01*
X164713920Y-117762552D01*
X164838402Y-117750292D01*
X164938920Y-117719800D01*
X165039438Y-117750292D01*
X165163920Y-117762552D01*
X165513920Y-117762552D01*
X165638402Y-117750292D01*
X165739766Y-117719544D01*
X165831290Y-117748615D01*
X165932170Y-117759480D01*
X166090920Y-117600730D01*
X166090920Y-117392049D01*
X166103422Y-117368660D01*
X166138920Y-117251639D01*
X166174418Y-117368660D01*
X166186920Y-117392049D01*
X166186920Y-117600730D01*
X166345670Y-117759480D01*
X166446550Y-117748615D01*
X166538074Y-117719544D01*
X166639438Y-117750292D01*
X166763920Y-117762552D01*
X167113920Y-117762552D01*
X167238402Y-117750292D01*
X167338920Y-117719800D01*
X167439438Y-117750292D01*
X167563920Y-117762552D01*
X167913920Y-117762552D01*
X168038402Y-117750292D01*
X168139766Y-117719544D01*
X168231290Y-117748615D01*
X168332170Y-117759480D01*
X168490920Y-117600730D01*
X168490920Y-117392049D01*
X168503422Y-117368660D01*
X168539732Y-117248962D01*
X168551992Y-117124480D01*
X168551992Y-116351480D01*
X168586920Y-116351480D01*
X168586920Y-117600730D01*
X168745670Y-117759480D01*
X168846550Y-117748615D01*
X168965765Y-117710748D01*
X169075301Y-117650351D01*
X169169698Y-117570798D01*
X169185661Y-117671559D01*
X169273552Y-117909773D01*
X169321452Y-117999387D01*
X169550533Y-118053262D01*
X170259315Y-117344480D01*
X170618525Y-117344480D01*
X171327307Y-118053262D01*
X171503640Y-118011792D01*
X185623400Y-118011792D01*
X185623400Y-118452048D01*
X185709290Y-118883845D01*
X185877769Y-119290589D01*
X186122362Y-119656649D01*
X186433671Y-119967958D01*
X186799731Y-120212551D01*
X187206475Y-120381030D01*
X187638272Y-120466920D01*
X188078528Y-120466920D01*
X188510325Y-120381030D01*
X188917069Y-120212551D01*
X189283129Y-119967958D01*
X189594438Y-119656649D01*
X189839031Y-119290589D01*
X190007510Y-118883845D01*
X190093400Y-118452048D01*
X190093400Y-118011792D01*
X190007510Y-117579995D01*
X189839031Y-117173251D01*
X189594438Y-116807191D01*
X189283129Y-116495882D01*
X188917069Y-116251289D01*
X188510325Y-116082810D01*
X188078528Y-115996920D01*
X187638272Y-115996920D01*
X187206475Y-116082810D01*
X186799731Y-116251289D01*
X186433671Y-116495882D01*
X186122362Y-116807191D01*
X185877769Y-117173251D01*
X185709290Y-117579995D01*
X185623400Y-118011792D01*
X171503640Y-118011792D01*
X171556388Y-117999387D01*
X171662683Y-117768796D01*
X171721948Y-117521899D01*
X171731908Y-117268184D01*
X171692179Y-117017401D01*
X171604288Y-116779187D01*
X171556388Y-116689573D01*
X171327307Y-116635698D01*
X170618525Y-117344480D01*
X170259315Y-117344480D01*
X169550533Y-116635698D01*
X169349780Y-116682911D01*
X169348920Y-116510230D01*
X169190170Y-116351480D01*
X168586920Y-116351480D01*
X168551992Y-116351480D01*
X168551992Y-116202867D01*
X169730138Y-116202867D01*
X169759915Y-116329480D01*
X169730138Y-116456093D01*
X170438920Y-117164875D01*
X171147702Y-116456093D01*
X171117925Y-116329480D01*
X171147702Y-116202867D01*
X170438920Y-115494085D01*
X169730138Y-116202867D01*
X168551992Y-116202867D01*
X168551992Y-115324480D01*
X168539732Y-115199998D01*
X168503422Y-115080300D01*
X168490920Y-115056911D01*
X168490920Y-114848230D01*
X168332170Y-114689480D01*
X168231290Y-114700345D01*
X168139766Y-114729416D01*
X168038402Y-114698668D01*
X167913920Y-114686408D01*
X167563920Y-114686408D01*
X167439438Y-114698668D01*
X167338920Y-114729160D01*
X167238402Y-114698668D01*
X167113920Y-114686408D01*
X166763920Y-114686408D01*
X166639438Y-114698668D01*
X166538074Y-114729416D01*
X166446550Y-114700345D01*
X166345670Y-114689480D01*
X166186920Y-114848230D01*
X166186920Y-115056911D01*
X166174418Y-115080300D01*
X166138920Y-115197321D01*
X166103422Y-115080300D01*
X166090920Y-115056911D01*
X166090920Y-114848230D01*
X165932170Y-114689480D01*
X165831290Y-114700345D01*
X165739766Y-114729416D01*
X165638402Y-114698668D01*
X165513920Y-114686408D01*
X165163920Y-114686408D01*
X165039438Y-114698668D01*
X164938920Y-114729160D01*
X164838402Y-114698668D01*
X164713920Y-114686408D01*
X164363920Y-114686408D01*
X164239438Y-114698668D01*
X164138074Y-114729416D01*
X164087201Y-114713257D01*
X164147765Y-114622616D01*
X164225786Y-114434258D01*
X164265560Y-114234299D01*
X164265560Y-114030421D01*
X164225786Y-113830462D01*
X164147765Y-113642104D01*
X164034497Y-113472586D01*
X163890334Y-113328423D01*
X163720816Y-113215155D01*
X163625340Y-113175607D01*
X168128920Y-113175607D01*
X168128920Y-113453353D01*
X168183106Y-113725762D01*
X168289395Y-113982365D01*
X168443702Y-114213302D01*
X168640098Y-114409698D01*
X168871035Y-114564005D01*
X169127638Y-114670294D01*
X169300646Y-114704708D01*
X169215157Y-114890164D01*
X169206966Y-114924288D01*
X169170949Y-114879216D01*
X169075301Y-114798609D01*
X168965765Y-114738212D01*
X168846550Y-114700345D01*
X168745670Y-114689480D01*
X168586920Y-114848230D01*
X168586920Y-116097480D01*
X169190170Y-116097480D01*
X169320341Y-115967309D01*
X169321452Y-115969387D01*
X169550533Y-116023262D01*
X170259315Y-115314480D01*
X170618525Y-115314480D01*
X171327307Y-116023262D01*
X171556388Y-115969387D01*
X171662683Y-115738796D01*
X171721948Y-115491899D01*
X171731908Y-115238184D01*
X171692179Y-114987401D01*
X171604288Y-114749187D01*
X171556388Y-114659573D01*
X171327307Y-114605698D01*
X170618525Y-115314480D01*
X170259315Y-115314480D01*
X170245173Y-115300338D01*
X170424778Y-115120733D01*
X170438920Y-115134875D01*
X171147702Y-114426093D01*
X171093827Y-114197012D01*
X170863236Y-114090717D01*
X170736391Y-114060269D01*
X170788445Y-113982365D01*
X170894734Y-113725762D01*
X170948920Y-113453353D01*
X170948920Y-113175607D01*
X170894734Y-112903198D01*
X170788445Y-112646595D01*
X170738650Y-112572072D01*
X170765999Y-112567739D01*
X171004213Y-112479848D01*
X171093827Y-112431948D01*
X171147702Y-112202867D01*
X170438920Y-111494085D01*
X170424778Y-111508228D01*
X170245173Y-111328623D01*
X170259315Y-111314480D01*
X170618525Y-111314480D01*
X171327307Y-112023262D01*
X171556388Y-111969387D01*
X171662683Y-111738796D01*
X171721948Y-111491899D01*
X171731908Y-111238184D01*
X171692179Y-110987401D01*
X171604288Y-110749187D01*
X171556388Y-110659573D01*
X171327307Y-110605698D01*
X170618525Y-111314480D01*
X170259315Y-111314480D01*
X169550533Y-110605698D01*
X169321452Y-110659573D01*
X169215157Y-110890164D01*
X169155892Y-111137061D01*
X169145932Y-111390776D01*
X169185661Y-111641559D01*
X169273552Y-111879773D01*
X169297646Y-111924849D01*
X169127638Y-111958666D01*
X168871035Y-112064955D01*
X168640098Y-112219262D01*
X168443702Y-112415658D01*
X168289395Y-112646595D01*
X168183106Y-112903198D01*
X168128920Y-113175607D01*
X163625340Y-113175607D01*
X163532458Y-113137134D01*
X163332499Y-113097360D01*
X163128621Y-113097360D01*
X162928662Y-113137134D01*
X162740304Y-113215155D01*
X162684460Y-113252469D01*
X162628616Y-113215155D01*
X162440258Y-113137134D01*
X162240299Y-113097360D01*
X162036421Y-113097360D01*
X161836462Y-113137134D01*
X161648104Y-113215155D01*
X161593521Y-113251626D01*
X161531336Y-113210075D01*
X161342978Y-113132054D01*
X161143019Y-113092280D01*
X160939141Y-113092280D01*
X160739182Y-113132054D01*
X160550824Y-113210075D01*
X160381306Y-113323343D01*
X160237143Y-113467506D01*
X160123875Y-113637024D01*
X160045854Y-113825382D01*
X160006080Y-114025341D01*
X160006080Y-114229219D01*
X160045854Y-114429178D01*
X160123875Y-114617536D01*
X160188425Y-114714143D01*
X160138074Y-114729416D01*
X160046550Y-114700345D01*
X159945670Y-114689480D01*
X159786920Y-114848230D01*
X159786920Y-115056911D01*
X159774418Y-115080300D01*
X159738920Y-115197321D01*
X159703422Y-115080300D01*
X159690920Y-115056911D01*
X159690920Y-114848230D01*
X159532170Y-114689480D01*
X159431290Y-114700345D01*
X159339766Y-114729416D01*
X159238402Y-114698668D01*
X159113920Y-114686408D01*
X158763920Y-114686408D01*
X158639438Y-114698668D01*
X158538920Y-114729160D01*
X158438402Y-114698668D01*
X158313920Y-114686408D01*
X157963920Y-114686408D01*
X157839438Y-114698668D01*
X157738074Y-114729416D01*
X157646550Y-114700345D01*
X157545670Y-114689480D01*
X157386920Y-114848230D01*
X157386920Y-115056911D01*
X157374418Y-115080300D01*
X157338920Y-115197321D01*
X157303422Y-115080300D01*
X157290920Y-115056911D01*
X157290920Y-114848230D01*
X157132170Y-114689480D01*
X157031290Y-114700345D01*
X156939766Y-114729416D01*
X156838402Y-114698668D01*
X156713920Y-114686408D01*
X156363920Y-114686408D01*
X156239438Y-114698668D01*
X156138920Y-114729160D01*
X156038402Y-114698668D01*
X155913920Y-114686408D01*
X155563920Y-114686408D01*
X155439438Y-114698668D01*
X155338074Y-114729416D01*
X155246550Y-114700345D01*
X155145670Y-114689480D01*
X154986920Y-114848230D01*
X154986920Y-115056911D01*
X154974418Y-115080300D01*
X154938108Y-115199998D01*
X154925848Y-115324480D01*
X154925848Y-116371480D01*
X154890920Y-116371480D01*
X154890920Y-116351480D01*
X154287670Y-116351480D01*
X154128920Y-116510230D01*
X154125902Y-117116161D01*
X153907825Y-117116161D01*
X153892179Y-117017401D01*
X153804288Y-116779187D01*
X153756388Y-116689573D01*
X153527307Y-116635698D01*
X152818525Y-117344480D01*
X152459315Y-117344480D01*
X151750533Y-116635698D01*
X151521452Y-116689573D01*
X151415157Y-116920164D01*
X151355892Y-117167061D01*
X151345932Y-117420776D01*
X137641005Y-117420776D01*
X137565831Y-117239291D01*
X137321238Y-116873231D01*
X137009929Y-116561922D01*
X136643869Y-116317329D01*
X136367534Y-116202867D01*
X151930138Y-116202867D01*
X151959915Y-116329480D01*
X151930138Y-116456093D01*
X152638920Y-117164875D01*
X153347702Y-116456093D01*
X153317925Y-116329480D01*
X153347702Y-116202867D01*
X152638920Y-115494085D01*
X151930138Y-116202867D01*
X136367534Y-116202867D01*
X136237125Y-116148850D01*
X135805328Y-116062960D01*
X135365072Y-116062960D01*
X134933275Y-116148850D01*
X134526531Y-116317329D01*
X134160471Y-116561922D01*
X133849162Y-116873231D01*
X133604569Y-117239291D01*
X133436090Y-117646035D01*
X133350200Y-118077832D01*
X132760964Y-118077832D01*
X132761264Y-115390776D01*
X151345932Y-115390776D01*
X151385661Y-115641559D01*
X151473552Y-115879773D01*
X151521452Y-115969387D01*
X151750533Y-116023262D01*
X152459315Y-115314480D01*
X151750533Y-114605698D01*
X151521452Y-114659573D01*
X151415157Y-114890164D01*
X151355892Y-115137061D01*
X151345932Y-115390776D01*
X132761264Y-115390776D01*
X132761712Y-111390776D01*
X151345932Y-111390776D01*
X151385661Y-111641559D01*
X151473552Y-111879773D01*
X151521452Y-111969387D01*
X151750533Y-112023262D01*
X152459315Y-111314480D01*
X151750533Y-110605698D01*
X151521452Y-110659573D01*
X151415157Y-110890164D01*
X151355892Y-111137061D01*
X151345932Y-111390776D01*
X132761712Y-111390776D01*
X132761820Y-110426093D01*
X151930138Y-110426093D01*
X152638920Y-111134875D01*
X153347702Y-110426093D01*
X153293827Y-110197012D01*
X153063236Y-110090717D01*
X152816339Y-110031452D01*
X152562624Y-110021492D01*
X152311841Y-110061221D01*
X152073627Y-110149112D01*
X151984013Y-110197012D01*
X151930138Y-110426093D01*
X132761820Y-110426093D01*
X132761921Y-109512799D01*
X153725902Y-109512799D01*
X153728920Y-110118730D01*
X153887670Y-110277480D01*
X154490920Y-110277480D01*
X154490920Y-109028230D01*
X154332170Y-108869480D01*
X154231290Y-108880345D01*
X154112075Y-108918212D01*
X154002539Y-108978609D01*
X153906891Y-109059216D01*
X153828806Y-109156933D01*
X153771285Y-109268007D01*
X153736539Y-109388168D01*
X153725902Y-109512799D01*
X132761921Y-109512799D01*
X132761983Y-108962867D01*
X151930138Y-108962867D01*
X151984013Y-109191948D01*
X152214604Y-109298243D01*
X152461501Y-109357508D01*
X152715216Y-109367468D01*
X152965999Y-109327739D01*
X153204213Y-109239848D01*
X153293827Y-109191948D01*
X153347702Y-108962867D01*
X152638920Y-108254085D01*
X151930138Y-108962867D01*
X132761983Y-108962867D01*
X132762075Y-108150776D01*
X151345932Y-108150776D01*
X151385661Y-108401559D01*
X151473552Y-108639773D01*
X151521452Y-108729387D01*
X151750533Y-108783262D01*
X152459315Y-108074480D01*
X152818525Y-108074480D01*
X153527307Y-108783262D01*
X153756388Y-108729387D01*
X153862683Y-108498796D01*
X153921948Y-108251899D01*
X153931908Y-107998184D01*
X153892179Y-107747401D01*
X153804288Y-107509187D01*
X153756388Y-107419573D01*
X153527307Y-107365698D01*
X152818525Y-108074480D01*
X152459315Y-108074480D01*
X151750533Y-107365698D01*
X151521452Y-107419573D01*
X151415157Y-107650164D01*
X151355892Y-107897061D01*
X151345932Y-108150776D01*
X132762075Y-108150776D01*
X132762183Y-107186093D01*
X151930138Y-107186093D01*
X152638920Y-107894875D01*
X153347702Y-107186093D01*
X153293827Y-106957012D01*
X153063236Y-106850717D01*
X152816339Y-106791452D01*
X152562624Y-106781492D01*
X152311841Y-106821221D01*
X152073627Y-106909112D01*
X151984013Y-106957012D01*
X151930138Y-107186093D01*
X132762183Y-107186093D01*
X132762737Y-102248600D01*
X146441528Y-102248600D01*
X146441528Y-103948600D01*
X146453788Y-104073082D01*
X146490098Y-104192780D01*
X146549063Y-104303094D01*
X146628415Y-104399785D01*
X146725106Y-104479137D01*
X146835420Y-104538102D01*
X146955118Y-104574412D01*
X147079600Y-104586672D01*
X148779600Y-104586672D01*
X148904082Y-104574412D01*
X149023780Y-104538102D01*
X149134094Y-104479137D01*
X149230785Y-104399785D01*
X149310137Y-104303094D01*
X149369102Y-104192780D01*
X149405412Y-104073082D01*
X149417672Y-103948600D01*
X149417672Y-103065600D01*
X152254228Y-103065600D01*
X152266488Y-103190082D01*
X152302798Y-103309780D01*
X152361763Y-103420094D01*
X152441115Y-103516785D01*
X152537806Y-103596137D01*
X152648120Y-103655102D01*
X152767818Y-103691412D01*
X152892300Y-103703672D01*
X153144050Y-103700600D01*
X153302800Y-103541850D01*
X153302800Y-102717600D01*
X152416050Y-102717600D01*
X152257300Y-102876350D01*
X152254228Y-103065600D01*
X149417672Y-103065600D01*
X149417672Y-102248600D01*
X149405412Y-102124118D01*
X149402829Y-102115600D01*
X152254228Y-102115600D01*
X152257300Y-102304850D01*
X152416050Y-102463600D01*
X153302800Y-102463600D01*
X153302800Y-101751150D01*
X153315500Y-101738450D01*
X153315500Y-100914200D01*
X152428750Y-100914200D01*
X152270000Y-101072950D01*
X152266928Y-101262200D01*
X152279188Y-101386682D01*
X152315498Y-101506380D01*
X152374463Y-101616694D01*
X152427371Y-101681162D01*
X152361763Y-101761106D01*
X152302798Y-101871420D01*
X152266488Y-101991118D01*
X152254228Y-102115600D01*
X149402829Y-102115600D01*
X149369102Y-102004420D01*
X149310137Y-101894106D01*
X149230785Y-101797415D01*
X149134094Y-101718063D01*
X149023780Y-101659098D01*
X148943134Y-101634634D01*
X149027188Y-101558869D01*
X149201241Y-101325520D01*
X149326425Y-101062699D01*
X149371076Y-100915490D01*
X149249755Y-100685600D01*
X148056600Y-100685600D01*
X148056600Y-100705600D01*
X147802600Y-100705600D01*
X147802600Y-100685600D01*
X146609445Y-100685600D01*
X146488124Y-100915490D01*
X146532775Y-101062699D01*
X146657959Y-101325520D01*
X146832012Y-101558869D01*
X146916066Y-101634634D01*
X146835420Y-101659098D01*
X146725106Y-101718063D01*
X146628415Y-101797415D01*
X146549063Y-101894106D01*
X146490098Y-102004420D01*
X146453788Y-102124118D01*
X146441528Y-102248600D01*
X132762737Y-102248600D01*
X132762966Y-100201710D01*
X146488124Y-100201710D01*
X146609445Y-100431600D01*
X147802600Y-100431600D01*
X147802600Y-99237786D01*
X148056600Y-99237786D01*
X148056600Y-100431600D01*
X149249755Y-100431600D01*
X149312766Y-100312200D01*
X152266928Y-100312200D01*
X152270000Y-100501450D01*
X152428750Y-100660200D01*
X153315500Y-100660200D01*
X153315500Y-99835950D01*
X153156750Y-99677200D01*
X152905000Y-99674128D01*
X152780518Y-99686388D01*
X152660820Y-99722698D01*
X152550506Y-99781663D01*
X152453815Y-99861015D01*
X152374463Y-99957706D01*
X152315498Y-100068020D01*
X152279188Y-100187718D01*
X152266928Y-100312200D01*
X149312766Y-100312200D01*
X149371076Y-100201710D01*
X149326425Y-100054501D01*
X149201241Y-99791680D01*
X149027188Y-99558331D01*
X148810955Y-99363422D01*
X148560852Y-99214443D01*
X148286491Y-99117119D01*
X148056600Y-99237786D01*
X147802600Y-99237786D01*
X147572709Y-99117119D01*
X147298348Y-99214443D01*
X147048245Y-99363422D01*
X146832012Y-99558331D01*
X146657959Y-99791680D01*
X146532775Y-100054501D01*
X146488124Y-100201710D01*
X132762966Y-100201710D01*
X132763437Y-96000200D01*
X146492328Y-96000200D01*
X146492328Y-97700200D01*
X146504588Y-97824682D01*
X146540898Y-97944380D01*
X146599863Y-98054694D01*
X146679215Y-98151385D01*
X146775906Y-98230737D01*
X146886220Y-98289702D01*
X147005918Y-98326012D01*
X147130400Y-98338272D01*
X148830400Y-98338272D01*
X148954882Y-98326012D01*
X149074580Y-98289702D01*
X149184894Y-98230737D01*
X149281585Y-98151385D01*
X149360937Y-98054694D01*
X149419902Y-97944380D01*
X149456212Y-97824682D01*
X149468472Y-97700200D01*
X149468472Y-97635600D01*
X149608699Y-97635600D01*
X149971599Y-97998501D01*
X149995398Y-98027500D01*
X150111123Y-98122473D01*
X150243152Y-98193045D01*
X150386413Y-98236502D01*
X150498066Y-98247499D01*
X150498076Y-98247499D01*
X150535399Y-98251175D01*
X150572722Y-98247499D01*
X156531870Y-98247499D01*
X156528559Y-98258414D01*
X156513403Y-98412300D01*
X156517201Y-98450863D01*
X156517200Y-99977200D01*
X156124886Y-99977200D01*
X156086623Y-99930577D01*
X155953942Y-99821688D01*
X155802567Y-99740777D01*
X155638316Y-99690952D01*
X155467500Y-99674128D01*
X154867500Y-99674128D01*
X154696684Y-99690952D01*
X154532433Y-99740777D01*
X154382394Y-99820974D01*
X154334494Y-99781663D01*
X154224180Y-99722698D01*
X154104482Y-99686388D01*
X153980000Y-99674128D01*
X153728250Y-99677200D01*
X153569500Y-99835950D01*
X153569500Y-100660200D01*
X153589500Y-100660200D01*
X153589500Y-100914200D01*
X153569500Y-100914200D01*
X153569500Y-101626650D01*
X153556800Y-101639350D01*
X153556800Y-102463600D01*
X153576800Y-102463600D01*
X153576800Y-102717600D01*
X153556800Y-102717600D01*
X153556800Y-103541850D01*
X153715550Y-103700600D01*
X153967300Y-103703672D01*
X154091782Y-103691412D01*
X154211480Y-103655102D01*
X154321794Y-103596137D01*
X154369694Y-103556826D01*
X154519733Y-103637023D01*
X154683984Y-103686848D01*
X154854800Y-103703672D01*
X155454800Y-103703672D01*
X155625616Y-103686848D01*
X155789867Y-103637023D01*
X155941242Y-103556112D01*
X156073923Y-103447223D01*
X156149182Y-103355520D01*
X156953921Y-103355520D01*
X156953920Y-109327872D01*
X156938920Y-109377321D01*
X156903422Y-109260300D01*
X156890920Y-109236911D01*
X156890920Y-109028230D01*
X156732170Y-108869480D01*
X156631290Y-108880345D01*
X156539766Y-108909416D01*
X156438402Y-108878668D01*
X156313920Y-108866408D01*
X155963920Y-108866408D01*
X155839438Y-108878668D01*
X155738920Y-108909160D01*
X155638402Y-108878668D01*
X155513920Y-108866408D01*
X155163920Y-108866408D01*
X155039438Y-108878668D01*
X154938074Y-108909416D01*
X154846550Y-108880345D01*
X154745670Y-108869480D01*
X154586920Y-109028230D01*
X154586920Y-109236911D01*
X154574418Y-109260300D01*
X154538108Y-109379998D01*
X154525848Y-109504480D01*
X154525848Y-110551480D01*
X154490920Y-110551480D01*
X154490920Y-110531480D01*
X153887670Y-110531480D01*
X153757499Y-110661651D01*
X153756388Y-110659573D01*
X153527307Y-110605698D01*
X152818525Y-111314480D01*
X152832668Y-111328623D01*
X152653063Y-111508228D01*
X152638920Y-111494085D01*
X151930138Y-112202867D01*
X151984013Y-112431948D01*
X152214604Y-112538243D01*
X152341449Y-112568691D01*
X152289395Y-112646595D01*
X152183106Y-112903198D01*
X152128920Y-113175607D01*
X152128920Y-113453353D01*
X152183106Y-113725762D01*
X152289395Y-113982365D01*
X152339190Y-114056888D01*
X152311841Y-114061221D01*
X152073627Y-114149112D01*
X151984013Y-114197012D01*
X151930138Y-114426093D01*
X152638920Y-115134875D01*
X152653063Y-115120733D01*
X152832668Y-115300338D01*
X152818525Y-115314480D01*
X153527307Y-116023262D01*
X153756388Y-115969387D01*
X153862683Y-115738796D01*
X153921948Y-115491899D01*
X153928193Y-115332799D01*
X154125902Y-115332799D01*
X154128920Y-115938730D01*
X154287670Y-116097480D01*
X154890920Y-116097480D01*
X154890920Y-114848230D01*
X154732170Y-114689480D01*
X154631290Y-114700345D01*
X154512075Y-114738212D01*
X154402539Y-114798609D01*
X154306891Y-114879216D01*
X154228806Y-114976933D01*
X154171285Y-115088007D01*
X154136539Y-115208168D01*
X154125902Y-115332799D01*
X153928193Y-115332799D01*
X153931908Y-115238184D01*
X153892179Y-114987401D01*
X153804288Y-114749187D01*
X153780194Y-114704111D01*
X153950202Y-114670294D01*
X154206805Y-114564005D01*
X154437742Y-114409698D01*
X154634138Y-114213302D01*
X154788445Y-113982365D01*
X154894734Y-113725762D01*
X154948920Y-113453353D01*
X154948920Y-113347659D01*
X155039422Y-113385146D01*
X155239381Y-113424920D01*
X155443259Y-113424920D01*
X155643218Y-113385146D01*
X155831576Y-113307125D01*
X155854417Y-113291863D01*
X155892464Y-113317285D01*
X156080822Y-113395306D01*
X156280781Y-113435080D01*
X156484659Y-113435080D01*
X156684618Y-113395306D01*
X156872976Y-113317285D01*
X157042494Y-113204017D01*
X157186657Y-113059854D01*
X157299925Y-112890336D01*
X157377946Y-112701978D01*
X157417720Y-112502019D01*
X157417720Y-112298141D01*
X157377946Y-112098182D01*
X157300598Y-111911448D01*
X157338074Y-111899544D01*
X157439438Y-111930292D01*
X157563920Y-111942552D01*
X157913920Y-111942552D01*
X158038402Y-111930292D01*
X158138920Y-111899800D01*
X158239438Y-111930292D01*
X158363920Y-111942552D01*
X158713920Y-111942552D01*
X158838402Y-111930292D01*
X158939766Y-111899544D01*
X159031290Y-111928615D01*
X159132170Y-111939480D01*
X159290920Y-111780730D01*
X159290920Y-111572049D01*
X159303422Y-111548660D01*
X159338920Y-111431639D01*
X159374418Y-111548660D01*
X159386920Y-111572049D01*
X159386920Y-111780730D01*
X159545670Y-111939480D01*
X159646550Y-111928615D01*
X159738074Y-111899544D01*
X159839438Y-111930292D01*
X159963920Y-111942552D01*
X160313920Y-111942552D01*
X160438402Y-111930292D01*
X160538920Y-111899800D01*
X160639438Y-111930292D01*
X160763920Y-111942552D01*
X161113920Y-111942552D01*
X161238402Y-111930292D01*
X161338920Y-111899800D01*
X161439438Y-111930292D01*
X161563920Y-111942552D01*
X161913920Y-111942552D01*
X162038402Y-111930292D01*
X162138920Y-111899800D01*
X162239438Y-111930292D01*
X162363920Y-111942552D01*
X162713920Y-111942552D01*
X162838402Y-111930292D01*
X162939766Y-111899544D01*
X163031290Y-111928615D01*
X163132170Y-111939480D01*
X163290920Y-111780730D01*
X163290920Y-111572049D01*
X163303422Y-111548660D01*
X163338920Y-111431639D01*
X163374418Y-111548660D01*
X163386920Y-111572049D01*
X163386920Y-111780730D01*
X163545670Y-111939480D01*
X163646550Y-111928615D01*
X163738074Y-111899544D01*
X163839438Y-111930292D01*
X163963920Y-111942552D01*
X164313920Y-111942552D01*
X164438402Y-111930292D01*
X164538920Y-111899800D01*
X164639438Y-111930292D01*
X164763920Y-111942552D01*
X165113920Y-111942552D01*
X165238402Y-111930292D01*
X165339766Y-111899544D01*
X165431290Y-111928615D01*
X165532170Y-111939480D01*
X165690920Y-111780730D01*
X165690920Y-111572049D01*
X165703422Y-111548660D01*
X165738920Y-111431639D01*
X165774418Y-111548660D01*
X165786920Y-111572049D01*
X165786920Y-111780730D01*
X165945670Y-111939480D01*
X166046550Y-111928615D01*
X166138074Y-111899544D01*
X166239438Y-111930292D01*
X166363920Y-111942552D01*
X166713920Y-111942552D01*
X166838402Y-111930292D01*
X166938920Y-111899800D01*
X167039438Y-111930292D01*
X167163920Y-111942552D01*
X167513920Y-111942552D01*
X167638402Y-111930292D01*
X167739766Y-111899544D01*
X167831290Y-111928615D01*
X167932170Y-111939480D01*
X168090920Y-111780730D01*
X168090920Y-111572049D01*
X168103422Y-111548660D01*
X168139732Y-111428962D01*
X168151992Y-111304480D01*
X168151992Y-110531480D01*
X168186920Y-110531480D01*
X168186920Y-111780730D01*
X168345670Y-111939480D01*
X168446550Y-111928615D01*
X168565765Y-111890748D01*
X168675301Y-111830351D01*
X168770949Y-111749744D01*
X168849034Y-111652027D01*
X168906555Y-111540953D01*
X168941301Y-111420792D01*
X168951938Y-111296161D01*
X168948920Y-110690230D01*
X168790170Y-110531480D01*
X168186920Y-110531480D01*
X168151992Y-110531480D01*
X168151992Y-110426093D01*
X169730138Y-110426093D01*
X170438920Y-111134875D01*
X171147702Y-110426093D01*
X171093827Y-110197012D01*
X170863236Y-110090717D01*
X170616339Y-110031452D01*
X170362624Y-110021492D01*
X170111841Y-110061221D01*
X169873627Y-110149112D01*
X169784013Y-110197012D01*
X169730138Y-110426093D01*
X168151992Y-110426093D01*
X168151992Y-109504480D01*
X168139732Y-109379998D01*
X168103422Y-109260300D01*
X168098920Y-109251877D01*
X168098920Y-109220402D01*
X168102596Y-109183079D01*
X168098920Y-109145757D01*
X168098920Y-109145747D01*
X168090920Y-109064523D01*
X168090920Y-109028230D01*
X168186920Y-109028230D01*
X168186920Y-110277480D01*
X168790170Y-110277480D01*
X168948920Y-110118730D01*
X168951938Y-109512799D01*
X168941301Y-109388168D01*
X168906555Y-109268007D01*
X168849034Y-109156933D01*
X168770949Y-109059216D01*
X168675301Y-108978609D01*
X168565765Y-108918212D01*
X168446550Y-108880345D01*
X168345670Y-108869480D01*
X168186920Y-109028230D01*
X168090920Y-109028230D01*
X168084065Y-109021375D01*
X168044466Y-108890833D01*
X167973894Y-108758804D01*
X167878921Y-108643079D01*
X167849917Y-108619276D01*
X167792324Y-108561683D01*
X167768521Y-108532679D01*
X167652796Y-108437706D01*
X167520767Y-108367134D01*
X167377506Y-108323677D01*
X167265853Y-108312680D01*
X167265842Y-108312680D01*
X167228520Y-108309004D01*
X167191198Y-108312680D01*
X166745952Y-108312680D01*
X167095765Y-107962867D01*
X169730138Y-107962867D01*
X169784013Y-108191948D01*
X170014604Y-108298243D01*
X170261501Y-108357508D01*
X170515216Y-108367468D01*
X170765999Y-108327739D01*
X171004213Y-108239848D01*
X171093827Y-108191948D01*
X171147702Y-107962867D01*
X170438920Y-107254085D01*
X169730138Y-107962867D01*
X167095765Y-107962867D01*
X167907856Y-107150776D01*
X169145932Y-107150776D01*
X169185661Y-107401559D01*
X169273552Y-107639773D01*
X169321452Y-107729387D01*
X169550533Y-107783262D01*
X170259315Y-107074480D01*
X170618525Y-107074480D01*
X171327307Y-107783262D01*
X171556388Y-107729387D01*
X171662683Y-107498796D01*
X171721948Y-107251899D01*
X171731908Y-106998184D01*
X171692179Y-106747401D01*
X171604288Y-106509187D01*
X171556388Y-106419573D01*
X171327307Y-106365698D01*
X170618525Y-107074480D01*
X170259315Y-107074480D01*
X169550533Y-106365698D01*
X169321452Y-106419573D01*
X169215157Y-106650164D01*
X169155892Y-106897061D01*
X169145932Y-107150776D01*
X167907856Y-107150776D01*
X168872539Y-106186093D01*
X169730138Y-106186093D01*
X170438920Y-106894875D01*
X171147702Y-106186093D01*
X171093827Y-105957012D01*
X170863236Y-105850717D01*
X170616339Y-105791452D01*
X170362624Y-105781492D01*
X170111841Y-105821221D01*
X169873627Y-105909112D01*
X169784013Y-105957012D01*
X169730138Y-106186093D01*
X168872539Y-106186093D01*
X169139419Y-105919214D01*
X169170328Y-105893848D01*
X169262536Y-105781492D01*
X169271549Y-105770510D01*
X169346762Y-105629794D01*
X169346763Y-105629793D01*
X169393080Y-105477108D01*
X169404800Y-105358111D01*
X169404800Y-105358109D01*
X169408719Y-105318321D01*
X169404800Y-105278533D01*
X169404800Y-103662710D01*
X169448587Y-103639305D01*
X169583162Y-103528862D01*
X169605200Y-103502009D01*
X169627238Y-103528862D01*
X169761813Y-103639305D01*
X169915349Y-103721372D01*
X170081945Y-103771908D01*
X170255199Y-103788972D01*
X170955201Y-103788972D01*
X171128455Y-103771908D01*
X171295051Y-103721372D01*
X171448587Y-103639305D01*
X171583162Y-103528862D01*
X171693605Y-103394287D01*
X171775672Y-103240751D01*
X171826208Y-103074155D01*
X171843272Y-102900901D01*
X171843272Y-102439100D01*
X174102128Y-102439100D01*
X174102128Y-104139100D01*
X174114388Y-104263582D01*
X174150698Y-104383280D01*
X174209663Y-104493594D01*
X174289015Y-104590285D01*
X174385706Y-104669637D01*
X174496020Y-104728602D01*
X174615718Y-104764912D01*
X174740200Y-104777172D01*
X176440200Y-104777172D01*
X176564682Y-104764912D01*
X176684380Y-104728602D01*
X176794694Y-104669637D01*
X176891385Y-104590285D01*
X176970737Y-104493594D01*
X177029702Y-104383280D01*
X177066012Y-104263582D01*
X177078272Y-104139100D01*
X177078272Y-102439100D01*
X177066012Y-102314618D01*
X177029702Y-102194920D01*
X176970737Y-102084606D01*
X176891385Y-101987915D01*
X176794694Y-101908563D01*
X176684380Y-101849598D01*
X176603734Y-101825134D01*
X176687788Y-101749369D01*
X176861841Y-101516020D01*
X176987025Y-101253199D01*
X177031676Y-101105990D01*
X176910355Y-100876100D01*
X175717200Y-100876100D01*
X175717200Y-100896100D01*
X175463200Y-100896100D01*
X175463200Y-100876100D01*
X174270045Y-100876100D01*
X174148724Y-101105990D01*
X174193375Y-101253199D01*
X174318559Y-101516020D01*
X174492612Y-101749369D01*
X174576666Y-101825134D01*
X174496020Y-101849598D01*
X174385706Y-101908563D01*
X174289015Y-101987915D01*
X174209663Y-102084606D01*
X174150698Y-102194920D01*
X174114388Y-102314618D01*
X174102128Y-102439100D01*
X171843272Y-102439100D01*
X171843272Y-102000899D01*
X171826208Y-101827645D01*
X171775672Y-101661049D01*
X171693605Y-101507513D01*
X171583162Y-101372938D01*
X171498779Y-101303686D01*
X171516305Y-101277456D01*
X171594326Y-101089098D01*
X171634100Y-100889139D01*
X171634100Y-100685261D01*
X171594326Y-100485302D01*
X171555766Y-100392210D01*
X174148724Y-100392210D01*
X174270045Y-100622100D01*
X175463200Y-100622100D01*
X175463200Y-99428286D01*
X175717200Y-99428286D01*
X175717200Y-100622100D01*
X176910355Y-100622100D01*
X177031676Y-100392210D01*
X176987025Y-100245001D01*
X176861841Y-99982180D01*
X176687788Y-99748831D01*
X176471555Y-99553922D01*
X176221452Y-99404943D01*
X175947091Y-99307619D01*
X175717200Y-99428286D01*
X175463200Y-99428286D01*
X175233309Y-99307619D01*
X174958948Y-99404943D01*
X174708845Y-99553922D01*
X174492612Y-99748831D01*
X174318559Y-99982180D01*
X174193375Y-100245001D01*
X174148724Y-100392210D01*
X171555766Y-100392210D01*
X171516305Y-100296944D01*
X171403037Y-100127426D01*
X171258874Y-99983263D01*
X171089356Y-99869995D01*
X170900998Y-99791974D01*
X170701039Y-99752200D01*
X170497161Y-99752200D01*
X170297202Y-99791974D01*
X170108844Y-99869995D01*
X169939326Y-99983263D01*
X169795163Y-100127426D01*
X169681895Y-100296944D01*
X169603874Y-100485302D01*
X169564100Y-100685261D01*
X169564100Y-100889139D01*
X169603874Y-101089098D01*
X169681895Y-101277456D01*
X169703742Y-101310153D01*
X169627238Y-101372938D01*
X169605200Y-101399791D01*
X169583162Y-101372938D01*
X169448587Y-101262495D01*
X169295051Y-101180428D01*
X169128455Y-101129892D01*
X168955201Y-101112828D01*
X168255199Y-101112828D01*
X168081945Y-101129892D01*
X167915349Y-101180428D01*
X167761813Y-101262495D01*
X167627238Y-101372938D01*
X167516795Y-101507513D01*
X167434728Y-101661049D01*
X167384192Y-101827645D01*
X167367128Y-102000899D01*
X167367128Y-102900901D01*
X167384192Y-103074155D01*
X167434728Y-103240751D01*
X167516795Y-103394287D01*
X167627238Y-103528862D01*
X167761813Y-103639305D01*
X167784801Y-103651592D01*
X167784800Y-104982807D01*
X164553408Y-108214200D01*
X164255373Y-108214200D01*
X164218040Y-108210523D01*
X164180707Y-108214200D01*
X164069054Y-108225197D01*
X163925793Y-108268654D01*
X163793764Y-108339226D01*
X163678039Y-108434199D01*
X163654236Y-108463203D01*
X163627918Y-108489521D01*
X163598920Y-108513319D01*
X163575122Y-108542317D01*
X163575121Y-108542318D01*
X163503946Y-108629044D01*
X163433374Y-108761074D01*
X163426644Y-108783262D01*
X163389918Y-108904334D01*
X163378921Y-109015987D01*
X163375244Y-109053320D01*
X163378921Y-109090652D01*
X163378921Y-109251876D01*
X163374418Y-109260300D01*
X163338920Y-109377321D01*
X163303422Y-109260300D01*
X163298920Y-109251877D01*
X163298920Y-105666991D01*
X163373426Y-105741497D01*
X163542944Y-105854765D01*
X163731302Y-105932786D01*
X163931261Y-105972560D01*
X164135139Y-105972560D01*
X164335098Y-105932786D01*
X164523456Y-105854765D01*
X164562747Y-105828512D01*
X164564024Y-105829365D01*
X164752382Y-105907386D01*
X164952341Y-105947160D01*
X165156219Y-105947160D01*
X165356178Y-105907386D01*
X165544536Y-105829365D01*
X165557200Y-105820903D01*
X165569864Y-105829365D01*
X165758222Y-105907386D01*
X165958181Y-105947160D01*
X166162059Y-105947160D01*
X166362018Y-105907386D01*
X166550376Y-105829365D01*
X166719894Y-105716097D01*
X166864057Y-105571934D01*
X166977325Y-105402416D01*
X167055346Y-105214058D01*
X167095120Y-105014099D01*
X167095120Y-104810221D01*
X167055346Y-104610262D01*
X166977325Y-104421904D01*
X166864057Y-104252386D01*
X166821841Y-104210170D01*
X166820120Y-104192698D01*
X166820120Y-104192689D01*
X166809123Y-104081036D01*
X166765666Y-103937775D01*
X166695094Y-103805746D01*
X166638214Y-103736437D01*
X166623919Y-103719018D01*
X166623915Y-103719014D01*
X166600121Y-103690021D01*
X166571129Y-103666228D01*
X165553356Y-102648455D01*
X165624537Y-102577274D01*
X165737805Y-102407756D01*
X165815826Y-102219398D01*
X165855600Y-102019439D01*
X165855600Y-101815561D01*
X165815826Y-101615602D01*
X165737805Y-101427244D01*
X165624537Y-101257726D01*
X165574250Y-101207439D01*
X165574250Y-99608140D01*
X165618182Y-99603813D01*
X165737880Y-99567503D01*
X165848194Y-99508538D01*
X165944885Y-99429186D01*
X166024237Y-99332495D01*
X166083202Y-99222181D01*
X166119512Y-99102483D01*
X166131772Y-98978001D01*
X166131772Y-98910200D01*
X173554378Y-98910200D01*
X173591700Y-98913876D01*
X173629022Y-98910200D01*
X173629033Y-98910200D01*
X173740686Y-98899203D01*
X173883947Y-98855746D01*
X174015976Y-98785174D01*
X174131701Y-98690201D01*
X174155504Y-98661198D01*
X174332039Y-98484662D01*
X174347606Y-98497437D01*
X174457920Y-98556402D01*
X174577618Y-98592712D01*
X174702100Y-98604972D01*
X176402100Y-98604972D01*
X176526582Y-98592712D01*
X176646280Y-98556402D01*
X176756594Y-98497437D01*
X176853285Y-98418085D01*
X176932637Y-98321394D01*
X176991602Y-98211080D01*
X177027912Y-98091382D01*
X177040172Y-97966900D01*
X177040172Y-96266900D01*
X177027912Y-96142418D01*
X176991602Y-96022720D01*
X176932637Y-95912406D01*
X176853285Y-95815715D01*
X176756594Y-95736363D01*
X176646280Y-95677398D01*
X176573720Y-95655387D01*
X176705575Y-95523532D01*
X176868090Y-95280311D01*
X176980032Y-95010058D01*
X177037100Y-94723160D01*
X177037100Y-94430640D01*
X176980032Y-94143742D01*
X176868090Y-93873489D01*
X176705575Y-93630268D01*
X176498732Y-93423425D01*
X176324340Y-93306900D01*
X176498732Y-93190375D01*
X176705575Y-92983532D01*
X176868090Y-92740311D01*
X176980032Y-92470058D01*
X177037100Y-92183160D01*
X177037100Y-91890640D01*
X176980032Y-91603742D01*
X176868090Y-91333489D01*
X176705575Y-91090268D01*
X176498732Y-90883425D01*
X176324340Y-90766900D01*
X176498732Y-90650375D01*
X176705575Y-90443532D01*
X176868090Y-90200311D01*
X176980032Y-89930058D01*
X177037100Y-89643160D01*
X177037100Y-89482512D01*
X185608160Y-89482512D01*
X185608160Y-89922768D01*
X185694050Y-90354565D01*
X185862529Y-90761309D01*
X186107122Y-91127369D01*
X186418431Y-91438678D01*
X186784491Y-91683271D01*
X187191235Y-91851750D01*
X187623032Y-91937640D01*
X188063288Y-91937640D01*
X188495085Y-91851750D01*
X188901829Y-91683271D01*
X189267889Y-91438678D01*
X189579198Y-91127369D01*
X189823791Y-90761309D01*
X189992270Y-90354565D01*
X190078160Y-89922768D01*
X190078160Y-89482512D01*
X189992270Y-89050715D01*
X189823791Y-88643971D01*
X189579198Y-88277911D01*
X189267889Y-87966602D01*
X188901829Y-87722009D01*
X188495085Y-87553530D01*
X188063288Y-87467640D01*
X187623032Y-87467640D01*
X187191235Y-87553530D01*
X186784491Y-87722009D01*
X186418431Y-87966602D01*
X186107122Y-88277911D01*
X185862529Y-88643971D01*
X185694050Y-89050715D01*
X185608160Y-89482512D01*
X177037100Y-89482512D01*
X177037100Y-89350640D01*
X176980032Y-89063742D01*
X176868090Y-88793489D01*
X176705575Y-88550268D01*
X176498732Y-88343425D01*
X176255511Y-88180910D01*
X175985258Y-88068968D01*
X175698360Y-88011900D01*
X175405840Y-88011900D01*
X175118942Y-88068968D01*
X174848689Y-88180910D01*
X174605468Y-88343425D01*
X174398625Y-88550268D01*
X174274185Y-88736505D01*
X174270176Y-88736900D01*
X174270167Y-88736900D01*
X174158514Y-88747897D01*
X174015253Y-88791354D01*
X173883224Y-88861926D01*
X173767499Y-88956899D01*
X173743696Y-88985903D01*
X173440898Y-89288701D01*
X173411900Y-89312499D01*
X173388102Y-89341497D01*
X173388101Y-89341498D01*
X173316926Y-89428224D01*
X173246354Y-89560254D01*
X173202898Y-89703515D01*
X173188224Y-89852500D01*
X173191901Y-89889832D01*
X173191900Y-90998198D01*
X172666198Y-91523901D01*
X172637200Y-91547699D01*
X172613402Y-91576697D01*
X172613401Y-91576698D01*
X172542226Y-91663424D01*
X172471654Y-91795454D01*
X172428198Y-91938715D01*
X172413524Y-92087700D01*
X172417201Y-92125032D01*
X172417200Y-93322298D01*
X171878798Y-93860701D01*
X171849800Y-93884499D01*
X171826002Y-93913497D01*
X171826001Y-93913498D01*
X171754826Y-94000224D01*
X171684254Y-94132254D01*
X171667864Y-94186287D01*
X171641842Y-94272074D01*
X171640798Y-94275515D01*
X171626124Y-94424500D01*
X171629801Y-94461832D01*
X171629800Y-95427501D01*
X166131772Y-95427501D01*
X166131772Y-95372400D01*
X166119512Y-95247918D01*
X166112977Y-95226374D01*
X166117450Y-95212431D01*
X166128700Y-95109751D01*
X165969950Y-94951001D01*
X165969330Y-94951001D01*
X165944885Y-94921215D01*
X165857379Y-94849401D01*
X165969950Y-94849401D01*
X166128700Y-94690651D01*
X166117450Y-94587971D01*
X166079239Y-94468867D01*
X166018526Y-94359505D01*
X165937644Y-94264090D01*
X165839702Y-94186287D01*
X165728463Y-94129086D01*
X165608202Y-94094687D01*
X165483541Y-94084410D01*
X165100000Y-94087401D01*
X164941250Y-94246151D01*
X164941250Y-94734328D01*
X164687250Y-94734328D01*
X164687250Y-94246151D01*
X164528500Y-94087401D01*
X164144959Y-94084410D01*
X164020298Y-94094687D01*
X163900037Y-94129086D01*
X163788798Y-94186287D01*
X163690856Y-94264090D01*
X163609974Y-94359505D01*
X163549261Y-94468867D01*
X163511050Y-94587971D01*
X163499800Y-94690651D01*
X163658550Y-94849401D01*
X163771121Y-94849401D01*
X163683615Y-94921215D01*
X163659170Y-94951001D01*
X163658550Y-94951001D01*
X163499800Y-95109751D01*
X163511050Y-95212431D01*
X163515523Y-95226374D01*
X163508988Y-95247918D01*
X163496728Y-95372400D01*
X163496728Y-95440201D01*
X163031421Y-95440201D01*
X162994098Y-95436525D01*
X162956775Y-95440201D01*
X162956766Y-95440201D01*
X162845113Y-95451198D01*
X162711053Y-95491864D01*
X162701852Y-95494655D01*
X162569822Y-95565227D01*
X162498263Y-95623955D01*
X162454098Y-95660200D01*
X162430300Y-95689199D01*
X161668002Y-96451497D01*
X161638999Y-96475299D01*
X161583871Y-96542474D01*
X161544026Y-96591024D01*
X161494154Y-96684327D01*
X161473454Y-96723054D01*
X161429997Y-96866315D01*
X161419000Y-96977968D01*
X161419000Y-96977978D01*
X161415324Y-97015300D01*
X161419000Y-97052623D01*
X161419001Y-102565968D01*
X161415324Y-102603300D01*
X161419001Y-102640633D01*
X161429998Y-102752286D01*
X161431026Y-102755674D01*
X161473454Y-102895546D01*
X161544026Y-103027576D01*
X161613481Y-103112206D01*
X161639000Y-103143301D01*
X161667998Y-103167099D01*
X161778921Y-103278022D01*
X161778920Y-108866408D01*
X161563920Y-108866408D01*
X161439438Y-108878668D01*
X161338920Y-108909160D01*
X161238402Y-108878668D01*
X161113920Y-108866408D01*
X160763920Y-108866408D01*
X160639438Y-108878668D01*
X160538920Y-108909160D01*
X160438402Y-108878668D01*
X160313920Y-108866408D01*
X159963920Y-108866408D01*
X159839438Y-108878668D01*
X159738074Y-108909416D01*
X159646550Y-108880345D01*
X159545670Y-108869480D01*
X159386920Y-109028230D01*
X159386920Y-109236911D01*
X159374418Y-109260300D01*
X159338920Y-109377321D01*
X159303422Y-109260300D01*
X159290920Y-109236911D01*
X159290920Y-109028230D01*
X159132170Y-108869480D01*
X159031290Y-108880345D01*
X158939766Y-108909416D01*
X158838402Y-108878668D01*
X158713920Y-108866408D01*
X158523920Y-108866408D01*
X158523920Y-102885322D01*
X158575202Y-102834040D01*
X158604201Y-102810241D01*
X158689377Y-102706454D01*
X158723974Y-102683337D01*
X158868137Y-102539174D01*
X158981405Y-102369656D01*
X159059426Y-102181298D01*
X159099200Y-101981339D01*
X159099200Y-101777461D01*
X159059426Y-101577502D01*
X158981405Y-101389144D01*
X158868137Y-101219626D01*
X158849200Y-101200689D01*
X158849200Y-99616071D01*
X159740600Y-99616071D01*
X159865082Y-99603811D01*
X159984780Y-99567501D01*
X160095094Y-99508536D01*
X160191785Y-99429184D01*
X160271137Y-99332493D01*
X160330102Y-99222179D01*
X160366412Y-99102481D01*
X160378672Y-98977999D01*
X160378672Y-98622399D01*
X160366412Y-98497917D01*
X160359521Y-98475200D01*
X160366412Y-98452482D01*
X160378672Y-98328000D01*
X160378672Y-97972400D01*
X160366412Y-97847918D01*
X160359520Y-97825199D01*
X160366412Y-97802481D01*
X160378672Y-97677999D01*
X160378672Y-97322399D01*
X160366412Y-97197917D01*
X160359521Y-97175200D01*
X160366412Y-97152482D01*
X160378672Y-97028000D01*
X160378672Y-96672400D01*
X160366412Y-96547918D01*
X160359520Y-96525200D01*
X160366412Y-96502481D01*
X160378672Y-96377999D01*
X160378672Y-96022399D01*
X160366412Y-95897917D01*
X160359521Y-95875200D01*
X160366412Y-95852482D01*
X160378672Y-95728000D01*
X160378672Y-95372400D01*
X160366412Y-95247918D01*
X160359520Y-95225200D01*
X160366412Y-95202481D01*
X160378672Y-95077999D01*
X160378672Y-94722399D01*
X160366412Y-94597917D01*
X160330102Y-94478219D01*
X160271137Y-94367905D01*
X160191785Y-94271214D01*
X160095094Y-94191862D01*
X159984780Y-94132897D01*
X159865082Y-94096587D01*
X159740600Y-94084327D01*
X158381700Y-94084327D01*
X158257218Y-94096587D01*
X158155315Y-94127499D01*
X153050801Y-94127499D01*
X150569200Y-91645899D01*
X150569200Y-91096325D01*
X150572876Y-91059000D01*
X150569200Y-91021675D01*
X150569200Y-91021667D01*
X150558203Y-90910014D01*
X150514746Y-90766753D01*
X150444174Y-90634724D01*
X150349201Y-90518999D01*
X150320203Y-90495201D01*
X149421610Y-89596608D01*
X149465400Y-89376460D01*
X149465400Y-89083940D01*
X149408332Y-88797042D01*
X149296390Y-88526789D01*
X149133875Y-88283568D01*
X148927032Y-88076725D01*
X148683811Y-87914210D01*
X148413558Y-87802268D01*
X148126660Y-87745200D01*
X147834140Y-87745200D01*
X147547242Y-87802268D01*
X147276989Y-87914210D01*
X147033768Y-88076725D01*
X146826925Y-88283568D01*
X146664410Y-88526789D01*
X146552468Y-88797042D01*
X146495400Y-89083940D01*
X146495400Y-89376460D01*
X146552468Y-89663358D01*
X146664410Y-89933611D01*
X146826925Y-90176832D01*
X147033768Y-90383675D01*
X147208160Y-90500200D01*
X147033768Y-90616725D01*
X146826925Y-90823568D01*
X146664410Y-91066789D01*
X146552468Y-91337042D01*
X146495400Y-91623940D01*
X146495400Y-91916460D01*
X146552468Y-92203358D01*
X146664410Y-92473611D01*
X146826925Y-92716832D01*
X147033768Y-92923675D01*
X147208160Y-93040200D01*
X147033768Y-93156725D01*
X146826925Y-93363568D01*
X146664410Y-93606789D01*
X146552468Y-93877042D01*
X146495400Y-94163940D01*
X146495400Y-94456460D01*
X146552468Y-94743358D01*
X146664410Y-95013611D01*
X146826925Y-95256832D01*
X146958780Y-95388687D01*
X146886220Y-95410698D01*
X146775906Y-95469663D01*
X146679215Y-95549015D01*
X146599863Y-95645706D01*
X146540898Y-95756020D01*
X146504588Y-95875718D01*
X146492328Y-96000200D01*
X132763437Y-96000200D01*
X132764168Y-89482512D01*
X133411160Y-89482512D01*
X133411160Y-89922768D01*
X133497050Y-90354565D01*
X133665529Y-90761309D01*
X133910122Y-91127369D01*
X134221431Y-91438678D01*
X134587491Y-91683271D01*
X134994235Y-91851750D01*
X135426032Y-91937640D01*
X135866288Y-91937640D01*
X136298085Y-91851750D01*
X136704829Y-91683271D01*
X137070889Y-91438678D01*
X137382198Y-91127369D01*
X137626791Y-90761309D01*
X137795270Y-90354565D01*
X137881160Y-89922768D01*
X137881160Y-89482512D01*
X137795270Y-89050715D01*
X137626791Y-88643971D01*
X137382198Y-88277911D01*
X137070889Y-87966602D01*
X136704829Y-87722009D01*
X136298085Y-87553530D01*
X135866288Y-87467640D01*
X135426032Y-87467640D01*
X134994235Y-87553530D01*
X134587491Y-87722009D01*
X134221431Y-87966602D01*
X133910122Y-88277911D01*
X133665529Y-88643971D01*
X133497050Y-89050715D01*
X133411160Y-89482512D01*
X132764168Y-89482512D01*
X132764786Y-83959700D01*
X134731228Y-83959700D01*
X134743488Y-84084182D01*
X134779798Y-84203880D01*
X134838763Y-84314194D01*
X134918115Y-84410885D01*
X135014806Y-84490237D01*
X135125120Y-84549202D01*
X135244818Y-84585512D01*
X135369300Y-84597772D01*
X136290050Y-84594700D01*
X136448800Y-84435950D01*
X136448800Y-81546700D01*
X136702800Y-81546700D01*
X136702800Y-84435950D01*
X136861550Y-84594700D01*
X137782300Y-84597772D01*
X137906782Y-84585512D01*
X138026480Y-84549202D01*
X138136794Y-84490237D01*
X138233485Y-84410885D01*
X138312837Y-84314194D01*
X138371802Y-84203880D01*
X138408112Y-84084182D01*
X138420372Y-83959700D01*
X143494228Y-83959700D01*
X143506488Y-84084182D01*
X143542798Y-84203880D01*
X143601763Y-84314194D01*
X143681115Y-84410885D01*
X143777806Y-84490237D01*
X143888120Y-84549202D01*
X144007818Y-84585512D01*
X144132300Y-84597772D01*
X145053050Y-84594700D01*
X145211800Y-84435950D01*
X145211800Y-81546700D01*
X145465800Y-81546700D01*
X145465800Y-84435950D01*
X145624550Y-84594700D01*
X146545300Y-84597772D01*
X146669782Y-84585512D01*
X146789480Y-84549202D01*
X146899794Y-84490237D01*
X146996485Y-84410885D01*
X147075837Y-84314194D01*
X147134802Y-84203880D01*
X147171112Y-84084182D01*
X147183372Y-83959700D01*
X147183303Y-83908900D01*
X148650428Y-83908900D01*
X148662688Y-84033382D01*
X148698998Y-84153080D01*
X148757963Y-84263394D01*
X148837315Y-84360085D01*
X148934006Y-84439437D01*
X149044320Y-84498402D01*
X149164018Y-84534712D01*
X149288500Y-84546972D01*
X150209250Y-84543900D01*
X150368000Y-84385150D01*
X150368000Y-81495900D01*
X150622000Y-81495900D01*
X150622000Y-84385150D01*
X150780750Y-84543900D01*
X151701500Y-84546972D01*
X151825982Y-84534712D01*
X151945680Y-84498402D01*
X152055994Y-84439437D01*
X152152685Y-84360085D01*
X152232037Y-84263394D01*
X152291002Y-84153080D01*
X152327312Y-84033382D01*
X152339572Y-83908900D01*
X157413428Y-83908900D01*
X157425688Y-84033382D01*
X157461998Y-84153080D01*
X157520963Y-84263394D01*
X157600315Y-84360085D01*
X157697006Y-84439437D01*
X157807320Y-84498402D01*
X157927018Y-84534712D01*
X158051500Y-84546972D01*
X158972250Y-84543900D01*
X159131000Y-84385150D01*
X159131000Y-81495900D01*
X159385000Y-81495900D01*
X159385000Y-84385150D01*
X159543750Y-84543900D01*
X160464500Y-84546972D01*
X160588982Y-84534712D01*
X160708680Y-84498402D01*
X160818994Y-84439437D01*
X160915685Y-84360085D01*
X160995037Y-84263394D01*
X161054002Y-84153080D01*
X161090312Y-84033382D01*
X161102572Y-83908900D01*
X162620428Y-83908900D01*
X162632688Y-84033382D01*
X162668998Y-84153080D01*
X162727963Y-84263394D01*
X162807315Y-84360085D01*
X162904006Y-84439437D01*
X163014320Y-84498402D01*
X163134018Y-84534712D01*
X163258500Y-84546972D01*
X164179250Y-84543900D01*
X164338000Y-84385150D01*
X164338000Y-81495900D01*
X164592000Y-81495900D01*
X164592000Y-84385150D01*
X164750750Y-84543900D01*
X165671500Y-84546972D01*
X165795982Y-84534712D01*
X165915680Y-84498402D01*
X166025994Y-84439437D01*
X166122685Y-84360085D01*
X166202037Y-84263394D01*
X166261002Y-84153080D01*
X166297312Y-84033382D01*
X166309572Y-83908900D01*
X171383428Y-83908900D01*
X171395688Y-84033382D01*
X171431998Y-84153080D01*
X171490963Y-84263394D01*
X171570315Y-84360085D01*
X171667006Y-84439437D01*
X171777320Y-84498402D01*
X171897018Y-84534712D01*
X172021500Y-84546972D01*
X172942250Y-84543900D01*
X173101000Y-84385150D01*
X173101000Y-81495900D01*
X173355000Y-81495900D01*
X173355000Y-84385150D01*
X173513750Y-84543900D01*
X174434500Y-84546972D01*
X174558982Y-84534712D01*
X174678680Y-84498402D01*
X174788994Y-84439437D01*
X174885685Y-84360085D01*
X174965037Y-84263394D01*
X175024002Y-84153080D01*
X175060312Y-84033382D01*
X175072572Y-83908900D01*
X176666628Y-83908900D01*
X176678888Y-84033382D01*
X176715198Y-84153080D01*
X176774163Y-84263394D01*
X176853515Y-84360085D01*
X176950206Y-84439437D01*
X177060520Y-84498402D01*
X177180218Y-84534712D01*
X177304700Y-84546972D01*
X178225450Y-84543900D01*
X178384200Y-84385150D01*
X178384200Y-81495900D01*
X178638200Y-81495900D01*
X178638200Y-84385150D01*
X178796950Y-84543900D01*
X179717700Y-84546972D01*
X179842182Y-84534712D01*
X179961880Y-84498402D01*
X180072194Y-84439437D01*
X180168885Y-84360085D01*
X180248237Y-84263394D01*
X180307202Y-84153080D01*
X180343512Y-84033382D01*
X180355772Y-83908900D01*
X185429628Y-83908900D01*
X185441888Y-84033382D01*
X185478198Y-84153080D01*
X185537163Y-84263394D01*
X185616515Y-84360085D01*
X185713206Y-84439437D01*
X185823520Y-84498402D01*
X185943218Y-84534712D01*
X186067700Y-84546972D01*
X186988450Y-84543900D01*
X187147200Y-84385150D01*
X187147200Y-81495900D01*
X187401200Y-81495900D01*
X187401200Y-84385150D01*
X187559950Y-84543900D01*
X188480700Y-84546972D01*
X188605182Y-84534712D01*
X188724880Y-84498402D01*
X188835194Y-84439437D01*
X188931885Y-84360085D01*
X189011237Y-84263394D01*
X189070202Y-84153080D01*
X189106512Y-84033382D01*
X189118772Y-83908900D01*
X189115700Y-81654650D01*
X188956950Y-81495900D01*
X187401200Y-81495900D01*
X187147200Y-81495900D01*
X185591450Y-81495900D01*
X185432700Y-81654650D01*
X185429628Y-83908900D01*
X180355772Y-83908900D01*
X180352700Y-81654650D01*
X180193950Y-81495900D01*
X178638200Y-81495900D01*
X178384200Y-81495900D01*
X176828450Y-81495900D01*
X176669700Y-81654650D01*
X176666628Y-83908900D01*
X175072572Y-83908900D01*
X175069500Y-81654650D01*
X174910750Y-81495900D01*
X173355000Y-81495900D01*
X173101000Y-81495900D01*
X171545250Y-81495900D01*
X171386500Y-81654650D01*
X171383428Y-83908900D01*
X166309572Y-83908900D01*
X166306500Y-81654650D01*
X166147750Y-81495900D01*
X164592000Y-81495900D01*
X164338000Y-81495900D01*
X162782250Y-81495900D01*
X162623500Y-81654650D01*
X162620428Y-83908900D01*
X161102572Y-83908900D01*
X161099500Y-81654650D01*
X160940750Y-81495900D01*
X159385000Y-81495900D01*
X159131000Y-81495900D01*
X157575250Y-81495900D01*
X157416500Y-81654650D01*
X157413428Y-83908900D01*
X152339572Y-83908900D01*
X152336500Y-81654650D01*
X152177750Y-81495900D01*
X150622000Y-81495900D01*
X150368000Y-81495900D01*
X148812250Y-81495900D01*
X148653500Y-81654650D01*
X148650428Y-83908900D01*
X147183303Y-83908900D01*
X147180300Y-81705450D01*
X147021550Y-81546700D01*
X145465800Y-81546700D01*
X145211800Y-81546700D01*
X143656050Y-81546700D01*
X143497300Y-81705450D01*
X143494228Y-83959700D01*
X138420372Y-83959700D01*
X138417300Y-81705450D01*
X138258550Y-81546700D01*
X136702800Y-81546700D01*
X136448800Y-81546700D01*
X134893050Y-81546700D01*
X134734300Y-81705450D01*
X134731228Y-83959700D01*
X132764786Y-83959700D01*
X132765325Y-79158982D01*
X134731610Y-79159824D01*
%TA.AperFunction,Conductor*%
D22*
G36*
X134731610Y-79159824D02*
G01*
X134734300Y-81133950D01*
X134893050Y-81292700D01*
X136448800Y-81292700D01*
X136448800Y-81272700D01*
X136702800Y-81272700D01*
X136702800Y-81292700D01*
X138258550Y-81292700D01*
X138417300Y-81133950D01*
X138419988Y-79161403D01*
X143494615Y-79163575D01*
X143497300Y-81133950D01*
X143656050Y-81292700D01*
X145211800Y-81292700D01*
X145211800Y-81272700D01*
X145465800Y-81272700D01*
X145465800Y-81292700D01*
X147021550Y-81292700D01*
X147180300Y-81133950D01*
X147182983Y-79165154D01*
X148650887Y-79165783D01*
X148653500Y-81083150D01*
X148812250Y-81241900D01*
X150368000Y-81241900D01*
X150368000Y-81221900D01*
X150622000Y-81221900D01*
X150622000Y-81241900D01*
X152177750Y-81241900D01*
X152336500Y-81083150D01*
X152339111Y-79167361D01*
X157413892Y-79169534D01*
X157416500Y-81083150D01*
X157575250Y-81241900D01*
X159131000Y-81241900D01*
X159131000Y-81221900D01*
X159385000Y-81221900D01*
X159385000Y-81241900D01*
X160940750Y-81241900D01*
X161099500Y-81083150D01*
X161102106Y-79171113D01*
X162620895Y-79171763D01*
X162623500Y-81083150D01*
X162782250Y-81241900D01*
X164338000Y-81241900D01*
X164338000Y-81221900D01*
X164592000Y-81221900D01*
X164592000Y-81241900D01*
X166147750Y-81241900D01*
X166306500Y-81083150D01*
X166309103Y-79173342D01*
X171383900Y-79175514D01*
X171386500Y-81083150D01*
X171545250Y-81241900D01*
X173101000Y-81241900D01*
X173101000Y-81221900D01*
X173355000Y-81221900D01*
X173355000Y-81241900D01*
X174910750Y-81241900D01*
X175069500Y-81083150D01*
X175072097Y-79177093D01*
X176667103Y-79177776D01*
X176669700Y-81083150D01*
X176828450Y-81241900D01*
X178384200Y-81241900D01*
X178384200Y-81221900D01*
X178638200Y-81221900D01*
X178638200Y-81241900D01*
X180193950Y-81241900D01*
X180352700Y-81083150D01*
X180355294Y-79179354D01*
X185430109Y-79181527D01*
X185432700Y-81083150D01*
X185591450Y-81241900D01*
X187147200Y-81241900D01*
X187147200Y-81221900D01*
X187401200Y-81221900D01*
X187401200Y-81241900D01*
X188956950Y-81241900D01*
X189115700Y-81083150D01*
X189118289Y-79183105D01*
X190779800Y-79183817D01*
X190779801Y-121209200D01*
X132760614Y-121209200D01*
X132760964Y-118077832D01*
X133350200Y-118077832D01*
X133350200Y-118518088D01*
X133436090Y-118949885D01*
X133604569Y-119356629D01*
X133849162Y-119722689D01*
X134160471Y-120033998D01*
X134526531Y-120278591D01*
X134933275Y-120447070D01*
X135365072Y-120532960D01*
X135805328Y-120532960D01*
X136237125Y-120447070D01*
X136643869Y-120278591D01*
X137009929Y-120033998D01*
X137321238Y-119722689D01*
X137565831Y-119356629D01*
X137734310Y-118949885D01*
X137820200Y-118518088D01*
X137820200Y-118232867D01*
X151930138Y-118232867D01*
X151984013Y-118461948D01*
X152214604Y-118568243D01*
X152461501Y-118627508D01*
X152715216Y-118637468D01*
X152965999Y-118597739D01*
X153204213Y-118509848D01*
X153293827Y-118461948D01*
X153347702Y-118232867D01*
X152638920Y-117524085D01*
X151930138Y-118232867D01*
X137820200Y-118232867D01*
X137820200Y-118077832D01*
X137734310Y-117646035D01*
X137641005Y-117420776D01*
X151345932Y-117420776D01*
X151385661Y-117671559D01*
X151473552Y-117909773D01*
X151521452Y-117999387D01*
X151750533Y-118053262D01*
X152459315Y-117344480D01*
X152818525Y-117344480D01*
X153527307Y-118053262D01*
X153756388Y-117999387D01*
X153862683Y-117768796D01*
X153921948Y-117521899D01*
X153931908Y-117268184D01*
X153907825Y-117116161D01*
X154125902Y-117116161D01*
X154136539Y-117240792D01*
X154171285Y-117360953D01*
X154228806Y-117472027D01*
X154306891Y-117569744D01*
X154402539Y-117650351D01*
X154512075Y-117710748D01*
X154631290Y-117748615D01*
X154732170Y-117759480D01*
X154796167Y-117695483D01*
X154747414Y-117813182D01*
X154707640Y-118013141D01*
X154707640Y-118217019D01*
X154747414Y-118416978D01*
X154825435Y-118605336D01*
X154938703Y-118774854D01*
X155082866Y-118919017D01*
X155252384Y-119032285D01*
X155440742Y-119110306D01*
X155640701Y-119150080D01*
X155844579Y-119150080D01*
X156044538Y-119110306D01*
X156232896Y-119032285D01*
X156274727Y-119004335D01*
X156278544Y-119006885D01*
X156466902Y-119084906D01*
X156666861Y-119124680D01*
X156870739Y-119124680D01*
X157070698Y-119084906D01*
X157259056Y-119006885D01*
X157428574Y-118893617D01*
X157572737Y-118749454D01*
X157686005Y-118579936D01*
X157764026Y-118391578D01*
X157795595Y-118232867D01*
X169730138Y-118232867D01*
X169784013Y-118461948D01*
X170014604Y-118568243D01*
X170261501Y-118627508D01*
X170515216Y-118637468D01*
X170765999Y-118597739D01*
X171004213Y-118509848D01*
X171093827Y-118461948D01*
X171147702Y-118232867D01*
X170438920Y-117524085D01*
X169730138Y-118232867D01*
X157795595Y-118232867D01*
X157803800Y-118191619D01*
X157803800Y-117987741D01*
X157764026Y-117787782D01*
X157736030Y-117720193D01*
X157738074Y-117719544D01*
X157839438Y-117750292D01*
X157963920Y-117762552D01*
X158313920Y-117762552D01*
X158438402Y-117750292D01*
X158538920Y-117719800D01*
X158639438Y-117750292D01*
X158763920Y-117762552D01*
X159113920Y-117762552D01*
X159238402Y-117750292D01*
X159339766Y-117719544D01*
X159431290Y-117748615D01*
X159532170Y-117759480D01*
X159690920Y-117600730D01*
X159690920Y-117392049D01*
X159703422Y-117368660D01*
X159738920Y-117251639D01*
X159774418Y-117368660D01*
X159786920Y-117392049D01*
X159786920Y-117600730D01*
X159945670Y-117759480D01*
X160046550Y-117748615D01*
X160138074Y-117719544D01*
X160239438Y-117750292D01*
X160363920Y-117762552D01*
X160713920Y-117762552D01*
X160838402Y-117750292D01*
X160938920Y-117719800D01*
X161039438Y-117750292D01*
X161163920Y-117762552D01*
X161513920Y-117762552D01*
X161638402Y-117750292D01*
X161738920Y-117719800D01*
X161839438Y-117750292D01*
X161963920Y-117762552D01*
X162313920Y-117762552D01*
X162438402Y-117750292D01*
X162538920Y-117719800D01*
X162639438Y-117750292D01*
X162763920Y-117762552D01*
X163113920Y-117762552D01*
X163238402Y-117750292D01*
X163339766Y-117719544D01*
X163431290Y-117748615D01*
X163532170Y-117759480D01*
X163690920Y-117600730D01*
X163690920Y-117392049D01*
X163703422Y-117368660D01*
X163738920Y-117251639D01*
X163774418Y-117368660D01*
X163786920Y-117392049D01*
X163786920Y-117600730D01*
X163945670Y-117759480D01*
X164046550Y-117748615D01*
X164138074Y-117719544D01*
X164239438Y-117750292D01*
X164363920Y-117762552D01*
X164713920Y-117762552D01*
X164838402Y-117750292D01*
X164938920Y-117719800D01*
X165039438Y-117750292D01*
X165163920Y-117762552D01*
X165513920Y-117762552D01*
X165638402Y-117750292D01*
X165739766Y-117719544D01*
X165831290Y-117748615D01*
X165932170Y-117759480D01*
X166090920Y-117600730D01*
X166090920Y-117392049D01*
X166103422Y-117368660D01*
X166138920Y-117251639D01*
X166174418Y-117368660D01*
X166186920Y-117392049D01*
X166186920Y-117600730D01*
X166345670Y-117759480D01*
X166446550Y-117748615D01*
X166538074Y-117719544D01*
X166639438Y-117750292D01*
X166763920Y-117762552D01*
X167113920Y-117762552D01*
X167238402Y-117750292D01*
X167338920Y-117719800D01*
X167439438Y-117750292D01*
X167563920Y-117762552D01*
X167913920Y-117762552D01*
X168038402Y-117750292D01*
X168139766Y-117719544D01*
X168231290Y-117748615D01*
X168332170Y-117759480D01*
X168490920Y-117600730D01*
X168490920Y-117392049D01*
X168503422Y-117368660D01*
X168539732Y-117248962D01*
X168551992Y-117124480D01*
X168551992Y-116351480D01*
X168586920Y-116351480D01*
X168586920Y-117600730D01*
X168745670Y-117759480D01*
X168846550Y-117748615D01*
X168965765Y-117710748D01*
X169075301Y-117650351D01*
X169169698Y-117570798D01*
X169185661Y-117671559D01*
X169273552Y-117909773D01*
X169321452Y-117999387D01*
X169550533Y-118053262D01*
X170259315Y-117344480D01*
X170618525Y-117344480D01*
X171327307Y-118053262D01*
X171503640Y-118011792D01*
X185623400Y-118011792D01*
X185623400Y-118452048D01*
X185709290Y-118883845D01*
X185877769Y-119290589D01*
X186122362Y-119656649D01*
X186433671Y-119967958D01*
X186799731Y-120212551D01*
X187206475Y-120381030D01*
X187638272Y-120466920D01*
X188078528Y-120466920D01*
X188510325Y-120381030D01*
X188917069Y-120212551D01*
X189283129Y-119967958D01*
X189594438Y-119656649D01*
X189839031Y-119290589D01*
X190007510Y-118883845D01*
X190093400Y-118452048D01*
X190093400Y-118011792D01*
X190007510Y-117579995D01*
X189839031Y-117173251D01*
X189594438Y-116807191D01*
X189283129Y-116495882D01*
X188917069Y-116251289D01*
X188510325Y-116082810D01*
X188078528Y-115996920D01*
X187638272Y-115996920D01*
X187206475Y-116082810D01*
X186799731Y-116251289D01*
X186433671Y-116495882D01*
X186122362Y-116807191D01*
X185877769Y-117173251D01*
X185709290Y-117579995D01*
X185623400Y-118011792D01*
X171503640Y-118011792D01*
X171556388Y-117999387D01*
X171662683Y-117768796D01*
X171721948Y-117521899D01*
X171731908Y-117268184D01*
X171692179Y-117017401D01*
X171604288Y-116779187D01*
X171556388Y-116689573D01*
X171327307Y-116635698D01*
X170618525Y-117344480D01*
X170259315Y-117344480D01*
X169550533Y-116635698D01*
X169349780Y-116682911D01*
X169348920Y-116510230D01*
X169190170Y-116351480D01*
X168586920Y-116351480D01*
X168551992Y-116351480D01*
X168551992Y-116202867D01*
X169730138Y-116202867D01*
X169759915Y-116329480D01*
X169730138Y-116456093D01*
X170438920Y-117164875D01*
X171147702Y-116456093D01*
X171117925Y-116329480D01*
X171147702Y-116202867D01*
X170438920Y-115494085D01*
X169730138Y-116202867D01*
X168551992Y-116202867D01*
X168551992Y-115324480D01*
X168539732Y-115199998D01*
X168503422Y-115080300D01*
X168490920Y-115056911D01*
X168490920Y-114848230D01*
X168332170Y-114689480D01*
X168231290Y-114700345D01*
X168139766Y-114729416D01*
X168038402Y-114698668D01*
X167913920Y-114686408D01*
X167563920Y-114686408D01*
X167439438Y-114698668D01*
X167338920Y-114729160D01*
X167238402Y-114698668D01*
X167113920Y-114686408D01*
X166763920Y-114686408D01*
X166639438Y-114698668D01*
X166538074Y-114729416D01*
X166446550Y-114700345D01*
X166345670Y-114689480D01*
X166186920Y-114848230D01*
X166186920Y-115056911D01*
X166174418Y-115080300D01*
X166138920Y-115197321D01*
X166103422Y-115080300D01*
X166090920Y-115056911D01*
X166090920Y-114848230D01*
X165932170Y-114689480D01*
X165831290Y-114700345D01*
X165739766Y-114729416D01*
X165638402Y-114698668D01*
X165513920Y-114686408D01*
X165163920Y-114686408D01*
X165039438Y-114698668D01*
X164938920Y-114729160D01*
X164838402Y-114698668D01*
X164713920Y-114686408D01*
X164363920Y-114686408D01*
X164239438Y-114698668D01*
X164138074Y-114729416D01*
X164087201Y-114713257D01*
X164147765Y-114622616D01*
X164225786Y-114434258D01*
X164265560Y-114234299D01*
X164265560Y-114030421D01*
X164225786Y-113830462D01*
X164147765Y-113642104D01*
X164034497Y-113472586D01*
X163890334Y-113328423D01*
X163720816Y-113215155D01*
X163625340Y-113175607D01*
X168128920Y-113175607D01*
X168128920Y-113453353D01*
X168183106Y-113725762D01*
X168289395Y-113982365D01*
X168443702Y-114213302D01*
X168640098Y-114409698D01*
X168871035Y-114564005D01*
X169127638Y-114670294D01*
X169300646Y-114704708D01*
X169215157Y-114890164D01*
X169206966Y-114924288D01*
X169170949Y-114879216D01*
X169075301Y-114798609D01*
X168965765Y-114738212D01*
X168846550Y-114700345D01*
X168745670Y-114689480D01*
X168586920Y-114848230D01*
X168586920Y-116097480D01*
X169190170Y-116097480D01*
X169320341Y-115967309D01*
X169321452Y-115969387D01*
X169550533Y-116023262D01*
X170259315Y-115314480D01*
X170618525Y-115314480D01*
X171327307Y-116023262D01*
X171556388Y-115969387D01*
X171662683Y-115738796D01*
X171721948Y-115491899D01*
X171731908Y-115238184D01*
X171692179Y-114987401D01*
X171604288Y-114749187D01*
X171556388Y-114659573D01*
X171327307Y-114605698D01*
X170618525Y-115314480D01*
X170259315Y-115314480D01*
X170245173Y-115300338D01*
X170424778Y-115120733D01*
X170438920Y-115134875D01*
X171147702Y-114426093D01*
X171093827Y-114197012D01*
X170863236Y-114090717D01*
X170736391Y-114060269D01*
X170788445Y-113982365D01*
X170894734Y-113725762D01*
X170948920Y-113453353D01*
X170948920Y-113175607D01*
X170894734Y-112903198D01*
X170788445Y-112646595D01*
X170738650Y-112572072D01*
X170765999Y-112567739D01*
X171004213Y-112479848D01*
X171093827Y-112431948D01*
X171147702Y-112202867D01*
X170438920Y-111494085D01*
X170424778Y-111508228D01*
X170245173Y-111328623D01*
X170259315Y-111314480D01*
X170618525Y-111314480D01*
X171327307Y-112023262D01*
X171556388Y-111969387D01*
X171662683Y-111738796D01*
X171721948Y-111491899D01*
X171731908Y-111238184D01*
X171692179Y-110987401D01*
X171604288Y-110749187D01*
X171556388Y-110659573D01*
X171327307Y-110605698D01*
X170618525Y-111314480D01*
X170259315Y-111314480D01*
X169550533Y-110605698D01*
X169321452Y-110659573D01*
X169215157Y-110890164D01*
X169155892Y-111137061D01*
X169145932Y-111390776D01*
X169185661Y-111641559D01*
X169273552Y-111879773D01*
X169297646Y-111924849D01*
X169127638Y-111958666D01*
X168871035Y-112064955D01*
X168640098Y-112219262D01*
X168443702Y-112415658D01*
X168289395Y-112646595D01*
X168183106Y-112903198D01*
X168128920Y-113175607D01*
X163625340Y-113175607D01*
X163532458Y-113137134D01*
X163332499Y-113097360D01*
X163128621Y-113097360D01*
X162928662Y-113137134D01*
X162740304Y-113215155D01*
X162684460Y-113252469D01*
X162628616Y-113215155D01*
X162440258Y-113137134D01*
X162240299Y-113097360D01*
X162036421Y-113097360D01*
X161836462Y-113137134D01*
X161648104Y-113215155D01*
X161593521Y-113251626D01*
X161531336Y-113210075D01*
X161342978Y-113132054D01*
X161143019Y-113092280D01*
X160939141Y-113092280D01*
X160739182Y-113132054D01*
X160550824Y-113210075D01*
X160381306Y-113323343D01*
X160237143Y-113467506D01*
X160123875Y-113637024D01*
X160045854Y-113825382D01*
X160006080Y-114025341D01*
X160006080Y-114229219D01*
X160045854Y-114429178D01*
X160123875Y-114617536D01*
X160188425Y-114714143D01*
X160138074Y-114729416D01*
X160046550Y-114700345D01*
X159945670Y-114689480D01*
X159786920Y-114848230D01*
X159786920Y-115056911D01*
X159774418Y-115080300D01*
X159738920Y-115197321D01*
X159703422Y-115080300D01*
X159690920Y-115056911D01*
X159690920Y-114848230D01*
X159532170Y-114689480D01*
X159431290Y-114700345D01*
X159339766Y-114729416D01*
X159238402Y-114698668D01*
X159113920Y-114686408D01*
X158763920Y-114686408D01*
X158639438Y-114698668D01*
X158538920Y-114729160D01*
X158438402Y-114698668D01*
X158313920Y-114686408D01*
X157963920Y-114686408D01*
X157839438Y-114698668D01*
X157738074Y-114729416D01*
X157646550Y-114700345D01*
X157545670Y-114689480D01*
X157386920Y-114848230D01*
X157386920Y-115056911D01*
X157374418Y-115080300D01*
X157338920Y-115197321D01*
X157303422Y-115080300D01*
X157290920Y-115056911D01*
X157290920Y-114848230D01*
X157132170Y-114689480D01*
X157031290Y-114700345D01*
X156939766Y-114729416D01*
X156838402Y-114698668D01*
X156713920Y-114686408D01*
X156363920Y-114686408D01*
X156239438Y-114698668D01*
X156138920Y-114729160D01*
X156038402Y-114698668D01*
X155913920Y-114686408D01*
X155563920Y-114686408D01*
X155439438Y-114698668D01*
X155338074Y-114729416D01*
X155246550Y-114700345D01*
X155145670Y-114689480D01*
X154986920Y-114848230D01*
X154986920Y-115056911D01*
X154974418Y-115080300D01*
X154938108Y-115199998D01*
X154925848Y-115324480D01*
X154925848Y-116371480D01*
X154890920Y-116371480D01*
X154890920Y-116351480D01*
X154287670Y-116351480D01*
X154128920Y-116510230D01*
X154125902Y-117116161D01*
X153907825Y-117116161D01*
X153892179Y-117017401D01*
X153804288Y-116779187D01*
X153756388Y-116689573D01*
X153527307Y-116635698D01*
X152818525Y-117344480D01*
X152459315Y-117344480D01*
X151750533Y-116635698D01*
X151521452Y-116689573D01*
X151415157Y-116920164D01*
X151355892Y-117167061D01*
X151345932Y-117420776D01*
X137641005Y-117420776D01*
X137565831Y-117239291D01*
X137321238Y-116873231D01*
X137009929Y-116561922D01*
X136643869Y-116317329D01*
X136367534Y-116202867D01*
X151930138Y-116202867D01*
X151959915Y-116329480D01*
X151930138Y-116456093D01*
X152638920Y-117164875D01*
X153347702Y-116456093D01*
X153317925Y-116329480D01*
X153347702Y-116202867D01*
X152638920Y-115494085D01*
X151930138Y-116202867D01*
X136367534Y-116202867D01*
X136237125Y-116148850D01*
X135805328Y-116062960D01*
X135365072Y-116062960D01*
X134933275Y-116148850D01*
X134526531Y-116317329D01*
X134160471Y-116561922D01*
X133849162Y-116873231D01*
X133604569Y-117239291D01*
X133436090Y-117646035D01*
X133350200Y-118077832D01*
X132760964Y-118077832D01*
X132761264Y-115390776D01*
X151345932Y-115390776D01*
X151385661Y-115641559D01*
X151473552Y-115879773D01*
X151521452Y-115969387D01*
X151750533Y-116023262D01*
X152459315Y-115314480D01*
X151750533Y-114605698D01*
X151521452Y-114659573D01*
X151415157Y-114890164D01*
X151355892Y-115137061D01*
X151345932Y-115390776D01*
X132761264Y-115390776D01*
X132761712Y-111390776D01*
X151345932Y-111390776D01*
X151385661Y-111641559D01*
X151473552Y-111879773D01*
X151521452Y-111969387D01*
X151750533Y-112023262D01*
X152459315Y-111314480D01*
X151750533Y-110605698D01*
X151521452Y-110659573D01*
X151415157Y-110890164D01*
X151355892Y-111137061D01*
X151345932Y-111390776D01*
X132761712Y-111390776D01*
X132761820Y-110426093D01*
X151930138Y-110426093D01*
X152638920Y-111134875D01*
X153347702Y-110426093D01*
X153293827Y-110197012D01*
X153063236Y-110090717D01*
X152816339Y-110031452D01*
X152562624Y-110021492D01*
X152311841Y-110061221D01*
X152073627Y-110149112D01*
X151984013Y-110197012D01*
X151930138Y-110426093D01*
X132761820Y-110426093D01*
X132761921Y-109512799D01*
X153725902Y-109512799D01*
X153728920Y-110118730D01*
X153887670Y-110277480D01*
X154490920Y-110277480D01*
X154490920Y-109028230D01*
X154332170Y-108869480D01*
X154231290Y-108880345D01*
X154112075Y-108918212D01*
X154002539Y-108978609D01*
X153906891Y-109059216D01*
X153828806Y-109156933D01*
X153771285Y-109268007D01*
X153736539Y-109388168D01*
X153725902Y-109512799D01*
X132761921Y-109512799D01*
X132761983Y-108962867D01*
X151930138Y-108962867D01*
X151984013Y-109191948D01*
X152214604Y-109298243D01*
X152461501Y-109357508D01*
X152715216Y-109367468D01*
X152965999Y-109327739D01*
X153204213Y-109239848D01*
X153293827Y-109191948D01*
X153347702Y-108962867D01*
X152638920Y-108254085D01*
X151930138Y-108962867D01*
X132761983Y-108962867D01*
X132762075Y-108150776D01*
X151345932Y-108150776D01*
X151385661Y-108401559D01*
X151473552Y-108639773D01*
X151521452Y-108729387D01*
X151750533Y-108783262D01*
X152459315Y-108074480D01*
X152818525Y-108074480D01*
X153527307Y-108783262D01*
X153756388Y-108729387D01*
X153862683Y-108498796D01*
X153921948Y-108251899D01*
X153931908Y-107998184D01*
X153892179Y-107747401D01*
X153804288Y-107509187D01*
X153756388Y-107419573D01*
X153527307Y-107365698D01*
X152818525Y-108074480D01*
X152459315Y-108074480D01*
X151750533Y-107365698D01*
X151521452Y-107419573D01*
X151415157Y-107650164D01*
X151355892Y-107897061D01*
X151345932Y-108150776D01*
X132762075Y-108150776D01*
X132762183Y-107186093D01*
X151930138Y-107186093D01*
X152638920Y-107894875D01*
X153347702Y-107186093D01*
X153293827Y-106957012D01*
X153063236Y-106850717D01*
X152816339Y-106791452D01*
X152562624Y-106781492D01*
X152311841Y-106821221D01*
X152073627Y-106909112D01*
X151984013Y-106957012D01*
X151930138Y-107186093D01*
X132762183Y-107186093D01*
X132762737Y-102248600D01*
X146441528Y-102248600D01*
X146441528Y-103948600D01*
X146453788Y-104073082D01*
X146490098Y-104192780D01*
X146549063Y-104303094D01*
X146628415Y-104399785D01*
X146725106Y-104479137D01*
X146835420Y-104538102D01*
X146955118Y-104574412D01*
X147079600Y-104586672D01*
X148779600Y-104586672D01*
X148904082Y-104574412D01*
X149023780Y-104538102D01*
X149134094Y-104479137D01*
X149230785Y-104399785D01*
X149310137Y-104303094D01*
X149369102Y-104192780D01*
X149405412Y-104073082D01*
X149417672Y-103948600D01*
X149417672Y-103065600D01*
X152254228Y-103065600D01*
X152266488Y-103190082D01*
X152302798Y-103309780D01*
X152361763Y-103420094D01*
X152441115Y-103516785D01*
X152537806Y-103596137D01*
X152648120Y-103655102D01*
X152767818Y-103691412D01*
X152892300Y-103703672D01*
X153144050Y-103700600D01*
X153302800Y-103541850D01*
X153302800Y-102717600D01*
X152416050Y-102717600D01*
X152257300Y-102876350D01*
X152254228Y-103065600D01*
X149417672Y-103065600D01*
X149417672Y-102248600D01*
X149405412Y-102124118D01*
X149402829Y-102115600D01*
X152254228Y-102115600D01*
X152257300Y-102304850D01*
X152416050Y-102463600D01*
X153302800Y-102463600D01*
X153302800Y-101751150D01*
X153315500Y-101738450D01*
X153315500Y-100914200D01*
X152428750Y-100914200D01*
X152270000Y-101072950D01*
X152266928Y-101262200D01*
X152279188Y-101386682D01*
X152315498Y-101506380D01*
X152374463Y-101616694D01*
X152427371Y-101681162D01*
X152361763Y-101761106D01*
X152302798Y-101871420D01*
X152266488Y-101991118D01*
X152254228Y-102115600D01*
X149402829Y-102115600D01*
X149369102Y-102004420D01*
X149310137Y-101894106D01*
X149230785Y-101797415D01*
X149134094Y-101718063D01*
X149023780Y-101659098D01*
X148943134Y-101634634D01*
X149027188Y-101558869D01*
X149201241Y-101325520D01*
X149326425Y-101062699D01*
X149371076Y-100915490D01*
X149249755Y-100685600D01*
X148056600Y-100685600D01*
X148056600Y-100705600D01*
X147802600Y-100705600D01*
X147802600Y-100685600D01*
X146609445Y-100685600D01*
X146488124Y-100915490D01*
X146532775Y-101062699D01*
X146657959Y-101325520D01*
X146832012Y-101558869D01*
X146916066Y-101634634D01*
X146835420Y-101659098D01*
X146725106Y-101718063D01*
X146628415Y-101797415D01*
X146549063Y-101894106D01*
X146490098Y-102004420D01*
X146453788Y-102124118D01*
X146441528Y-102248600D01*
X132762737Y-102248600D01*
X132762966Y-100201710D01*
X146488124Y-100201710D01*
X146609445Y-100431600D01*
X147802600Y-100431600D01*
X147802600Y-99237786D01*
X148056600Y-99237786D01*
X148056600Y-100431600D01*
X149249755Y-100431600D01*
X149312766Y-100312200D01*
X152266928Y-100312200D01*
X152270000Y-100501450D01*
X152428750Y-100660200D01*
X153315500Y-100660200D01*
X153315500Y-99835950D01*
X153156750Y-99677200D01*
X152905000Y-99674128D01*
X152780518Y-99686388D01*
X152660820Y-99722698D01*
X152550506Y-99781663D01*
X152453815Y-99861015D01*
X152374463Y-99957706D01*
X152315498Y-100068020D01*
X152279188Y-100187718D01*
X152266928Y-100312200D01*
X149312766Y-100312200D01*
X149371076Y-100201710D01*
X149326425Y-100054501D01*
X149201241Y-99791680D01*
X149027188Y-99558331D01*
X148810955Y-99363422D01*
X148560852Y-99214443D01*
X148286491Y-99117119D01*
X148056600Y-99237786D01*
X147802600Y-99237786D01*
X147572709Y-99117119D01*
X147298348Y-99214443D01*
X147048245Y-99363422D01*
X146832012Y-99558331D01*
X146657959Y-99791680D01*
X146532775Y-100054501D01*
X146488124Y-100201710D01*
X132762966Y-100201710D01*
X132763437Y-96000200D01*
X146492328Y-96000200D01*
X146492328Y-97700200D01*
X146504588Y-97824682D01*
X146540898Y-97944380D01*
X146599863Y-98054694D01*
X146679215Y-98151385D01*
X146775906Y-98230737D01*
X146886220Y-98289702D01*
X147005918Y-98326012D01*
X147130400Y-98338272D01*
X148830400Y-98338272D01*
X148954882Y-98326012D01*
X149074580Y-98289702D01*
X149184894Y-98230737D01*
X149281585Y-98151385D01*
X149360937Y-98054694D01*
X149419902Y-97944380D01*
X149456212Y-97824682D01*
X149468472Y-97700200D01*
X149468472Y-97635600D01*
X149608699Y-97635600D01*
X149971599Y-97998501D01*
X149995398Y-98027500D01*
X150111123Y-98122473D01*
X150243152Y-98193045D01*
X150386413Y-98236502D01*
X150498066Y-98247499D01*
X150498076Y-98247499D01*
X150535399Y-98251175D01*
X150572722Y-98247499D01*
X156531870Y-98247499D01*
X156528559Y-98258414D01*
X156513403Y-98412300D01*
X156517201Y-98450863D01*
X156517200Y-99977200D01*
X156124886Y-99977200D01*
X156086623Y-99930577D01*
X155953942Y-99821688D01*
X155802567Y-99740777D01*
X155638316Y-99690952D01*
X155467500Y-99674128D01*
X154867500Y-99674128D01*
X154696684Y-99690952D01*
X154532433Y-99740777D01*
X154382394Y-99820974D01*
X154334494Y-99781663D01*
X154224180Y-99722698D01*
X154104482Y-99686388D01*
X153980000Y-99674128D01*
X153728250Y-99677200D01*
X153569500Y-99835950D01*
X153569500Y-100660200D01*
X153589500Y-100660200D01*
X153589500Y-100914200D01*
X153569500Y-100914200D01*
X153569500Y-101626650D01*
X153556800Y-101639350D01*
X153556800Y-102463600D01*
X153576800Y-102463600D01*
X153576800Y-102717600D01*
X153556800Y-102717600D01*
X153556800Y-103541850D01*
X153715550Y-103700600D01*
X153967300Y-103703672D01*
X154091782Y-103691412D01*
X154211480Y-103655102D01*
X154321794Y-103596137D01*
X154369694Y-103556826D01*
X154519733Y-103637023D01*
X154683984Y-103686848D01*
X154854800Y-103703672D01*
X155454800Y-103703672D01*
X155625616Y-103686848D01*
X155789867Y-103637023D01*
X155941242Y-103556112D01*
X156073923Y-103447223D01*
X156149182Y-103355520D01*
X156953921Y-103355520D01*
X156953920Y-109327872D01*
X156938920Y-109377321D01*
X156903422Y-109260300D01*
X156890920Y-109236911D01*
X156890920Y-109028230D01*
X156732170Y-108869480D01*
X156631290Y-108880345D01*
X156539766Y-108909416D01*
X156438402Y-108878668D01*
X156313920Y-108866408D01*
X155963920Y-108866408D01*
X155839438Y-108878668D01*
X155738920Y-108909160D01*
X155638402Y-108878668D01*
X155513920Y-108866408D01*
X155163920Y-108866408D01*
X155039438Y-108878668D01*
X154938074Y-108909416D01*
X154846550Y-108880345D01*
X154745670Y-108869480D01*
X154586920Y-109028230D01*
X154586920Y-109236911D01*
X154574418Y-109260300D01*
X154538108Y-109379998D01*
X154525848Y-109504480D01*
X154525848Y-110551480D01*
X154490920Y-110551480D01*
X154490920Y-110531480D01*
X153887670Y-110531480D01*
X153757499Y-110661651D01*
X153756388Y-110659573D01*
X153527307Y-110605698D01*
X152818525Y-111314480D01*
X152832668Y-111328623D01*
X152653063Y-111508228D01*
X152638920Y-111494085D01*
X151930138Y-112202867D01*
X151984013Y-112431948D01*
X152214604Y-112538243D01*
X152341449Y-112568691D01*
X152289395Y-112646595D01*
X152183106Y-112903198D01*
X152128920Y-113175607D01*
X152128920Y-113453353D01*
X152183106Y-113725762D01*
X152289395Y-113982365D01*
X152339190Y-114056888D01*
X152311841Y-114061221D01*
X152073627Y-114149112D01*
X151984013Y-114197012D01*
X151930138Y-114426093D01*
X152638920Y-115134875D01*
X152653063Y-115120733D01*
X152832668Y-115300338D01*
X152818525Y-115314480D01*
X153527307Y-116023262D01*
X153756388Y-115969387D01*
X153862683Y-115738796D01*
X153921948Y-115491899D01*
X153928193Y-115332799D01*
X154125902Y-115332799D01*
X154128920Y-115938730D01*
X154287670Y-116097480D01*
X154890920Y-116097480D01*
X154890920Y-114848230D01*
X154732170Y-114689480D01*
X154631290Y-114700345D01*
X154512075Y-114738212D01*
X154402539Y-114798609D01*
X154306891Y-114879216D01*
X154228806Y-114976933D01*
X154171285Y-115088007D01*
X154136539Y-115208168D01*
X154125902Y-115332799D01*
X153928193Y-115332799D01*
X153931908Y-115238184D01*
X153892179Y-114987401D01*
X153804288Y-114749187D01*
X153780194Y-114704111D01*
X153950202Y-114670294D01*
X154206805Y-114564005D01*
X154437742Y-114409698D01*
X154634138Y-114213302D01*
X154788445Y-113982365D01*
X154894734Y-113725762D01*
X154948920Y-113453353D01*
X154948920Y-113347659D01*
X155039422Y-113385146D01*
X155239381Y-113424920D01*
X155443259Y-113424920D01*
X155643218Y-113385146D01*
X155831576Y-113307125D01*
X155854417Y-113291863D01*
X155892464Y-113317285D01*
X156080822Y-113395306D01*
X156280781Y-113435080D01*
X156484659Y-113435080D01*
X156684618Y-113395306D01*
X156872976Y-113317285D01*
X157042494Y-113204017D01*
X157186657Y-113059854D01*
X157299925Y-112890336D01*
X157377946Y-112701978D01*
X157417720Y-112502019D01*
X157417720Y-112298141D01*
X157377946Y-112098182D01*
X157300598Y-111911448D01*
X157338074Y-111899544D01*
X157439438Y-111930292D01*
X157563920Y-111942552D01*
X157913920Y-111942552D01*
X158038402Y-111930292D01*
X158138920Y-111899800D01*
X158239438Y-111930292D01*
X158363920Y-111942552D01*
X158713920Y-111942552D01*
X158838402Y-111930292D01*
X158939766Y-111899544D01*
X159031290Y-111928615D01*
X159132170Y-111939480D01*
X159290920Y-111780730D01*
X159290920Y-111572049D01*
X159303422Y-111548660D01*
X159338920Y-111431639D01*
X159374418Y-111548660D01*
X159386920Y-111572049D01*
X159386920Y-111780730D01*
X159545670Y-111939480D01*
X159646550Y-111928615D01*
X159738074Y-111899544D01*
X159839438Y-111930292D01*
X159963920Y-111942552D01*
X160313920Y-111942552D01*
X160438402Y-111930292D01*
X160538920Y-111899800D01*
X160639438Y-111930292D01*
X160763920Y-111942552D01*
X161113920Y-111942552D01*
X161238402Y-111930292D01*
X161338920Y-111899800D01*
X161439438Y-111930292D01*
X161563920Y-111942552D01*
X161913920Y-111942552D01*
X162038402Y-111930292D01*
X162138920Y-111899800D01*
X162239438Y-111930292D01*
X162363920Y-111942552D01*
X162713920Y-111942552D01*
X162838402Y-111930292D01*
X162939766Y-111899544D01*
X163031290Y-111928615D01*
X163132170Y-111939480D01*
X163290920Y-111780730D01*
X163290920Y-111572049D01*
X163303422Y-111548660D01*
X163338920Y-111431639D01*
X163374418Y-111548660D01*
X163386920Y-111572049D01*
X163386920Y-111780730D01*
X163545670Y-111939480D01*
X163646550Y-111928615D01*
X163738074Y-111899544D01*
X163839438Y-111930292D01*
X163963920Y-111942552D01*
X164313920Y-111942552D01*
X164438402Y-111930292D01*
X164538920Y-111899800D01*
X164639438Y-111930292D01*
X164763920Y-111942552D01*
X165113920Y-111942552D01*
X165238402Y-111930292D01*
X165339766Y-111899544D01*
X165431290Y-111928615D01*
X165532170Y-111939480D01*
X165690920Y-111780730D01*
X165690920Y-111572049D01*
X165703422Y-111548660D01*
X165738920Y-111431639D01*
X165774418Y-111548660D01*
X165786920Y-111572049D01*
X165786920Y-111780730D01*
X165945670Y-111939480D01*
X166046550Y-111928615D01*
X166138074Y-111899544D01*
X166239438Y-111930292D01*
X166363920Y-111942552D01*
X166713920Y-111942552D01*
X166838402Y-111930292D01*
X166938920Y-111899800D01*
X167039438Y-111930292D01*
X167163920Y-111942552D01*
X167513920Y-111942552D01*
X167638402Y-111930292D01*
X167739766Y-111899544D01*
X167831290Y-111928615D01*
X167932170Y-111939480D01*
X168090920Y-111780730D01*
X168090920Y-111572049D01*
X168103422Y-111548660D01*
X168139732Y-111428962D01*
X168151992Y-111304480D01*
X168151992Y-110531480D01*
X168186920Y-110531480D01*
X168186920Y-111780730D01*
X168345670Y-111939480D01*
X168446550Y-111928615D01*
X168565765Y-111890748D01*
X168675301Y-111830351D01*
X168770949Y-111749744D01*
X168849034Y-111652027D01*
X168906555Y-111540953D01*
X168941301Y-111420792D01*
X168951938Y-111296161D01*
X168948920Y-110690230D01*
X168790170Y-110531480D01*
X168186920Y-110531480D01*
X168151992Y-110531480D01*
X168151992Y-110426093D01*
X169730138Y-110426093D01*
X170438920Y-111134875D01*
X171147702Y-110426093D01*
X171093827Y-110197012D01*
X170863236Y-110090717D01*
X170616339Y-110031452D01*
X170362624Y-110021492D01*
X170111841Y-110061221D01*
X169873627Y-110149112D01*
X169784013Y-110197012D01*
X169730138Y-110426093D01*
X168151992Y-110426093D01*
X168151992Y-109504480D01*
X168139732Y-109379998D01*
X168103422Y-109260300D01*
X168098920Y-109251877D01*
X168098920Y-109220402D01*
X168102596Y-109183079D01*
X168098920Y-109145757D01*
X168098920Y-109145747D01*
X168090920Y-109064523D01*
X168090920Y-109028230D01*
X168186920Y-109028230D01*
X168186920Y-110277480D01*
X168790170Y-110277480D01*
X168948920Y-110118730D01*
X168951938Y-109512799D01*
X168941301Y-109388168D01*
X168906555Y-109268007D01*
X168849034Y-109156933D01*
X168770949Y-109059216D01*
X168675301Y-108978609D01*
X168565765Y-108918212D01*
X168446550Y-108880345D01*
X168345670Y-108869480D01*
X168186920Y-109028230D01*
X168090920Y-109028230D01*
X168084065Y-109021375D01*
X168044466Y-108890833D01*
X167973894Y-108758804D01*
X167878921Y-108643079D01*
X167849917Y-108619276D01*
X167792324Y-108561683D01*
X167768521Y-108532679D01*
X167652796Y-108437706D01*
X167520767Y-108367134D01*
X167377506Y-108323677D01*
X167265853Y-108312680D01*
X167265842Y-108312680D01*
X167228520Y-108309004D01*
X167191198Y-108312680D01*
X166745952Y-108312680D01*
X167095765Y-107962867D01*
X169730138Y-107962867D01*
X169784013Y-108191948D01*
X170014604Y-108298243D01*
X170261501Y-108357508D01*
X170515216Y-108367468D01*
X170765999Y-108327739D01*
X171004213Y-108239848D01*
X171093827Y-108191948D01*
X171147702Y-107962867D01*
X170438920Y-107254085D01*
X169730138Y-107962867D01*
X167095765Y-107962867D01*
X167907856Y-107150776D01*
X169145932Y-107150776D01*
X169185661Y-107401559D01*
X169273552Y-107639773D01*
X169321452Y-107729387D01*
X169550533Y-107783262D01*
X170259315Y-107074480D01*
X170618525Y-107074480D01*
X171327307Y-107783262D01*
X171556388Y-107729387D01*
X171662683Y-107498796D01*
X171721948Y-107251899D01*
X171731908Y-106998184D01*
X171692179Y-106747401D01*
X171604288Y-106509187D01*
X171556388Y-106419573D01*
X171327307Y-106365698D01*
X170618525Y-107074480D01*
X170259315Y-107074480D01*
X169550533Y-106365698D01*
X169321452Y-106419573D01*
X169215157Y-106650164D01*
X169155892Y-106897061D01*
X169145932Y-107150776D01*
X167907856Y-107150776D01*
X168872539Y-106186093D01*
X169730138Y-106186093D01*
X170438920Y-106894875D01*
X171147702Y-106186093D01*
X171093827Y-105957012D01*
X170863236Y-105850717D01*
X170616339Y-105791452D01*
X170362624Y-105781492D01*
X170111841Y-105821221D01*
X169873627Y-105909112D01*
X169784013Y-105957012D01*
X169730138Y-106186093D01*
X168872539Y-106186093D01*
X169139419Y-105919214D01*
X169170328Y-105893848D01*
X169262536Y-105781492D01*
X169271549Y-105770510D01*
X169346762Y-105629794D01*
X169346763Y-105629793D01*
X169393080Y-105477108D01*
X169404800Y-105358111D01*
X169404800Y-105358109D01*
X169408719Y-105318321D01*
X169404800Y-105278533D01*
X169404800Y-103662710D01*
X169448587Y-103639305D01*
X169583162Y-103528862D01*
X169605200Y-103502009D01*
X169627238Y-103528862D01*
X169761813Y-103639305D01*
X169915349Y-103721372D01*
X170081945Y-103771908D01*
X170255199Y-103788972D01*
X170955201Y-103788972D01*
X171128455Y-103771908D01*
X171295051Y-103721372D01*
X171448587Y-103639305D01*
X171583162Y-103528862D01*
X171693605Y-103394287D01*
X171775672Y-103240751D01*
X171826208Y-103074155D01*
X171843272Y-102900901D01*
X171843272Y-102439100D01*
X174102128Y-102439100D01*
X174102128Y-104139100D01*
X174114388Y-104263582D01*
X174150698Y-104383280D01*
X174209663Y-104493594D01*
X174289015Y-104590285D01*
X174385706Y-104669637D01*
X174496020Y-104728602D01*
X174615718Y-104764912D01*
X174740200Y-104777172D01*
X176440200Y-104777172D01*
X176564682Y-104764912D01*
X176684380Y-104728602D01*
X176794694Y-104669637D01*
X176891385Y-104590285D01*
X176970737Y-104493594D01*
X177029702Y-104383280D01*
X177066012Y-104263582D01*
X177078272Y-104139100D01*
X177078272Y-102439100D01*
X177066012Y-102314618D01*
X177029702Y-102194920D01*
X176970737Y-102084606D01*
X176891385Y-101987915D01*
X176794694Y-101908563D01*
X176684380Y-101849598D01*
X176603734Y-101825134D01*
X176687788Y-101749369D01*
X176861841Y-101516020D01*
X176987025Y-101253199D01*
X177031676Y-101105990D01*
X176910355Y-100876100D01*
X175717200Y-100876100D01*
X175717200Y-100896100D01*
X175463200Y-100896100D01*
X175463200Y-100876100D01*
X174270045Y-100876100D01*
X174148724Y-101105990D01*
X174193375Y-101253199D01*
X174318559Y-101516020D01*
X174492612Y-101749369D01*
X174576666Y-101825134D01*
X174496020Y-101849598D01*
X174385706Y-101908563D01*
X174289015Y-101987915D01*
X174209663Y-102084606D01*
X174150698Y-102194920D01*
X174114388Y-102314618D01*
X174102128Y-102439100D01*
X171843272Y-102439100D01*
X171843272Y-102000899D01*
X171826208Y-101827645D01*
X171775672Y-101661049D01*
X171693605Y-101507513D01*
X171583162Y-101372938D01*
X171498779Y-101303686D01*
X171516305Y-101277456D01*
X171594326Y-101089098D01*
X171634100Y-100889139D01*
X171634100Y-100685261D01*
X171594326Y-100485302D01*
X171555766Y-100392210D01*
X174148724Y-100392210D01*
X174270045Y-100622100D01*
X175463200Y-100622100D01*
X175463200Y-99428286D01*
X175717200Y-99428286D01*
X175717200Y-100622100D01*
X176910355Y-100622100D01*
X177031676Y-100392210D01*
X176987025Y-100245001D01*
X176861841Y-99982180D01*
X176687788Y-99748831D01*
X176471555Y-99553922D01*
X176221452Y-99404943D01*
X175947091Y-99307619D01*
X175717200Y-99428286D01*
X175463200Y-99428286D01*
X175233309Y-99307619D01*
X174958948Y-99404943D01*
X174708845Y-99553922D01*
X174492612Y-99748831D01*
X174318559Y-99982180D01*
X174193375Y-100245001D01*
X174148724Y-100392210D01*
X171555766Y-100392210D01*
X171516305Y-100296944D01*
X171403037Y-100127426D01*
X171258874Y-99983263D01*
X171089356Y-99869995D01*
X170900998Y-99791974D01*
X170701039Y-99752200D01*
X170497161Y-99752200D01*
X170297202Y-99791974D01*
X170108844Y-99869995D01*
X169939326Y-99983263D01*
X169795163Y-100127426D01*
X169681895Y-100296944D01*
X169603874Y-100485302D01*
X169564100Y-100685261D01*
X169564100Y-100889139D01*
X169603874Y-101089098D01*
X169681895Y-101277456D01*
X169703742Y-101310153D01*
X169627238Y-101372938D01*
X169605200Y-101399791D01*
X169583162Y-101372938D01*
X169448587Y-101262495D01*
X169295051Y-101180428D01*
X169128455Y-101129892D01*
X168955201Y-101112828D01*
X168255199Y-101112828D01*
X168081945Y-101129892D01*
X167915349Y-101180428D01*
X167761813Y-101262495D01*
X167627238Y-101372938D01*
X167516795Y-101507513D01*
X167434728Y-101661049D01*
X167384192Y-101827645D01*
X167367128Y-102000899D01*
X167367128Y-102900901D01*
X167384192Y-103074155D01*
X167434728Y-103240751D01*
X167516795Y-103394287D01*
X167627238Y-103528862D01*
X167761813Y-103639305D01*
X167784801Y-103651592D01*
X167784800Y-104982807D01*
X164553408Y-108214200D01*
X164255373Y-108214200D01*
X164218040Y-108210523D01*
X164180707Y-108214200D01*
X164069054Y-108225197D01*
X163925793Y-108268654D01*
X163793764Y-108339226D01*
X163678039Y-108434199D01*
X163654236Y-108463203D01*
X163627918Y-108489521D01*
X163598920Y-108513319D01*
X163575122Y-108542317D01*
X163575121Y-108542318D01*
X163503946Y-108629044D01*
X163433374Y-108761074D01*
X163426644Y-108783262D01*
X163389918Y-108904334D01*
X163378921Y-109015987D01*
X163375244Y-109053320D01*
X163378921Y-109090652D01*
X163378921Y-109251876D01*
X163374418Y-109260300D01*
X163338920Y-109377321D01*
X163303422Y-109260300D01*
X163298920Y-109251877D01*
X163298920Y-105666991D01*
X163373426Y-105741497D01*
X163542944Y-105854765D01*
X163731302Y-105932786D01*
X163931261Y-105972560D01*
X164135139Y-105972560D01*
X164335098Y-105932786D01*
X164523456Y-105854765D01*
X164562747Y-105828512D01*
X164564024Y-105829365D01*
X164752382Y-105907386D01*
X164952341Y-105947160D01*
X165156219Y-105947160D01*
X165356178Y-105907386D01*
X165544536Y-105829365D01*
X165557200Y-105820903D01*
X165569864Y-105829365D01*
X165758222Y-105907386D01*
X165958181Y-105947160D01*
X166162059Y-105947160D01*
X166362018Y-105907386D01*
X166550376Y-105829365D01*
X166719894Y-105716097D01*
X166864057Y-105571934D01*
X166977325Y-105402416D01*
X167055346Y-105214058D01*
X167095120Y-105014099D01*
X167095120Y-104810221D01*
X167055346Y-104610262D01*
X166977325Y-104421904D01*
X166864057Y-104252386D01*
X166821841Y-104210170D01*
X166820120Y-104192698D01*
X166820120Y-104192689D01*
X166809123Y-104081036D01*
X166765666Y-103937775D01*
X166695094Y-103805746D01*
X166638214Y-103736437D01*
X166623919Y-103719018D01*
X166623915Y-103719014D01*
X166600121Y-103690021D01*
X166571129Y-103666228D01*
X165553356Y-102648455D01*
X165624537Y-102577274D01*
X165737805Y-102407756D01*
X165815826Y-102219398D01*
X165855600Y-102019439D01*
X165855600Y-101815561D01*
X165815826Y-101615602D01*
X165737805Y-101427244D01*
X165624537Y-101257726D01*
X165574250Y-101207439D01*
X165574250Y-99608140D01*
X165618182Y-99603813D01*
X165737880Y-99567503D01*
X165848194Y-99508538D01*
X165944885Y-99429186D01*
X166024237Y-99332495D01*
X166083202Y-99222181D01*
X166119512Y-99102483D01*
X166131772Y-98978001D01*
X166131772Y-98910200D01*
X173554378Y-98910200D01*
X173591700Y-98913876D01*
X173629022Y-98910200D01*
X173629033Y-98910200D01*
X173740686Y-98899203D01*
X173883947Y-98855746D01*
X174015976Y-98785174D01*
X174131701Y-98690201D01*
X174155504Y-98661198D01*
X174332039Y-98484662D01*
X174347606Y-98497437D01*
X174457920Y-98556402D01*
X174577618Y-98592712D01*
X174702100Y-98604972D01*
X176402100Y-98604972D01*
X176526582Y-98592712D01*
X176646280Y-98556402D01*
X176756594Y-98497437D01*
X176853285Y-98418085D01*
X176932637Y-98321394D01*
X176991602Y-98211080D01*
X177027912Y-98091382D01*
X177040172Y-97966900D01*
X177040172Y-96266900D01*
X177027912Y-96142418D01*
X176991602Y-96022720D01*
X176932637Y-95912406D01*
X176853285Y-95815715D01*
X176756594Y-95736363D01*
X176646280Y-95677398D01*
X176573720Y-95655387D01*
X176705575Y-95523532D01*
X176868090Y-95280311D01*
X176980032Y-95010058D01*
X177037100Y-94723160D01*
X177037100Y-94430640D01*
X176980032Y-94143742D01*
X176868090Y-93873489D01*
X176705575Y-93630268D01*
X176498732Y-93423425D01*
X176324340Y-93306900D01*
X176498732Y-93190375D01*
X176705575Y-92983532D01*
X176868090Y-92740311D01*
X176980032Y-92470058D01*
X177037100Y-92183160D01*
X177037100Y-91890640D01*
X176980032Y-91603742D01*
X176868090Y-91333489D01*
X176705575Y-91090268D01*
X176498732Y-90883425D01*
X176324340Y-90766900D01*
X176498732Y-90650375D01*
X176705575Y-90443532D01*
X176868090Y-90200311D01*
X176980032Y-89930058D01*
X177037100Y-89643160D01*
X177037100Y-89482512D01*
X185608160Y-89482512D01*
X185608160Y-89922768D01*
X185694050Y-90354565D01*
X185862529Y-90761309D01*
X186107122Y-91127369D01*
X186418431Y-91438678D01*
X186784491Y-91683271D01*
X187191235Y-91851750D01*
X187623032Y-91937640D01*
X188063288Y-91937640D01*
X188495085Y-91851750D01*
X188901829Y-91683271D01*
X189267889Y-91438678D01*
X189579198Y-91127369D01*
X189823791Y-90761309D01*
X189992270Y-90354565D01*
X190078160Y-89922768D01*
X190078160Y-89482512D01*
X189992270Y-89050715D01*
X189823791Y-88643971D01*
X189579198Y-88277911D01*
X189267889Y-87966602D01*
X188901829Y-87722009D01*
X188495085Y-87553530D01*
X188063288Y-87467640D01*
X187623032Y-87467640D01*
X187191235Y-87553530D01*
X186784491Y-87722009D01*
X186418431Y-87966602D01*
X186107122Y-88277911D01*
X185862529Y-88643971D01*
X185694050Y-89050715D01*
X185608160Y-89482512D01*
X177037100Y-89482512D01*
X177037100Y-89350640D01*
X176980032Y-89063742D01*
X176868090Y-88793489D01*
X176705575Y-88550268D01*
X176498732Y-88343425D01*
X176255511Y-88180910D01*
X175985258Y-88068968D01*
X175698360Y-88011900D01*
X175405840Y-88011900D01*
X175118942Y-88068968D01*
X174848689Y-88180910D01*
X174605468Y-88343425D01*
X174398625Y-88550268D01*
X174274185Y-88736505D01*
X174270176Y-88736900D01*
X174270167Y-88736900D01*
X174158514Y-88747897D01*
X174015253Y-88791354D01*
X173883224Y-88861926D01*
X173767499Y-88956899D01*
X173743696Y-88985903D01*
X173440898Y-89288701D01*
X173411900Y-89312499D01*
X173388102Y-89341497D01*
X173388101Y-89341498D01*
X173316926Y-89428224D01*
X173246354Y-89560254D01*
X173202898Y-89703515D01*
X173188224Y-89852500D01*
X173191901Y-89889832D01*
X173191900Y-90998198D01*
X172666198Y-91523901D01*
X172637200Y-91547699D01*
X172613402Y-91576697D01*
X172613401Y-91576698D01*
X172542226Y-91663424D01*
X172471654Y-91795454D01*
X172428198Y-91938715D01*
X172413524Y-92087700D01*
X172417201Y-92125032D01*
X172417200Y-93322298D01*
X171878798Y-93860701D01*
X171849800Y-93884499D01*
X171826002Y-93913497D01*
X171826001Y-93913498D01*
X171754826Y-94000224D01*
X171684254Y-94132254D01*
X171667864Y-94186287D01*
X171641842Y-94272074D01*
X171640798Y-94275515D01*
X171626124Y-94424500D01*
X171629801Y-94461832D01*
X171629800Y-95427501D01*
X166131772Y-95427501D01*
X166131772Y-95372400D01*
X166119512Y-95247918D01*
X166112977Y-95226374D01*
X166117450Y-95212431D01*
X166128700Y-95109751D01*
X165969950Y-94951001D01*
X165969330Y-94951001D01*
X165944885Y-94921215D01*
X165857379Y-94849401D01*
X165969950Y-94849401D01*
X166128700Y-94690651D01*
X166117450Y-94587971D01*
X166079239Y-94468867D01*
X166018526Y-94359505D01*
X165937644Y-94264090D01*
X165839702Y-94186287D01*
X165728463Y-94129086D01*
X165608202Y-94094687D01*
X165483541Y-94084410D01*
X165100000Y-94087401D01*
X164941250Y-94246151D01*
X164941250Y-94734328D01*
X164687250Y-94734328D01*
X164687250Y-94246151D01*
X164528500Y-94087401D01*
X164144959Y-94084410D01*
X164020298Y-94094687D01*
X163900037Y-94129086D01*
X163788798Y-94186287D01*
X163690856Y-94264090D01*
X163609974Y-94359505D01*
X163549261Y-94468867D01*
X163511050Y-94587971D01*
X163499800Y-94690651D01*
X163658550Y-94849401D01*
X163771121Y-94849401D01*
X163683615Y-94921215D01*
X163659170Y-94951001D01*
X163658550Y-94951001D01*
X163499800Y-95109751D01*
X163511050Y-95212431D01*
X163515523Y-95226374D01*
X163508988Y-95247918D01*
X163496728Y-95372400D01*
X163496728Y-95440201D01*
X163031421Y-95440201D01*
X162994098Y-95436525D01*
X162956775Y-95440201D01*
X162956766Y-95440201D01*
X162845113Y-95451198D01*
X162711053Y-95491864D01*
X162701852Y-95494655D01*
X162569822Y-95565227D01*
X162498263Y-95623955D01*
X162454098Y-95660200D01*
X162430300Y-95689199D01*
X161668002Y-96451497D01*
X161638999Y-96475299D01*
X161583871Y-96542474D01*
X161544026Y-96591024D01*
X161494154Y-96684327D01*
X161473454Y-96723054D01*
X161429997Y-96866315D01*
X161419000Y-96977968D01*
X161419000Y-96977978D01*
X161415324Y-97015300D01*
X161419000Y-97052623D01*
X161419001Y-102565968D01*
X161415324Y-102603300D01*
X161419001Y-102640633D01*
X161429998Y-102752286D01*
X161431026Y-102755674D01*
X161473454Y-102895546D01*
X161544026Y-103027576D01*
X161613481Y-103112206D01*
X161639000Y-103143301D01*
X161667998Y-103167099D01*
X161778921Y-103278022D01*
X161778920Y-108866408D01*
X161563920Y-108866408D01*
X161439438Y-108878668D01*
X161338920Y-108909160D01*
X161238402Y-108878668D01*
X161113920Y-108866408D01*
X160763920Y-108866408D01*
X160639438Y-108878668D01*
X160538920Y-108909160D01*
X160438402Y-108878668D01*
X160313920Y-108866408D01*
X159963920Y-108866408D01*
X159839438Y-108878668D01*
X159738074Y-108909416D01*
X159646550Y-108880345D01*
X159545670Y-108869480D01*
X159386920Y-109028230D01*
X159386920Y-109236911D01*
X159374418Y-109260300D01*
X159338920Y-109377321D01*
X159303422Y-109260300D01*
X159290920Y-109236911D01*
X159290920Y-109028230D01*
X159132170Y-108869480D01*
X159031290Y-108880345D01*
X158939766Y-108909416D01*
X158838402Y-108878668D01*
X158713920Y-108866408D01*
X158523920Y-108866408D01*
X158523920Y-102885322D01*
X158575202Y-102834040D01*
X158604201Y-102810241D01*
X158689377Y-102706454D01*
X158723974Y-102683337D01*
X158868137Y-102539174D01*
X158981405Y-102369656D01*
X159059426Y-102181298D01*
X159099200Y-101981339D01*
X159099200Y-101777461D01*
X159059426Y-101577502D01*
X158981405Y-101389144D01*
X158868137Y-101219626D01*
X158849200Y-101200689D01*
X158849200Y-99616071D01*
X159740600Y-99616071D01*
X159865082Y-99603811D01*
X159984780Y-99567501D01*
X160095094Y-99508536D01*
X160191785Y-99429184D01*
X160271137Y-99332493D01*
X160330102Y-99222179D01*
X160366412Y-99102481D01*
X160378672Y-98977999D01*
X160378672Y-98622399D01*
X160366412Y-98497917D01*
X160359521Y-98475200D01*
X160366412Y-98452482D01*
X160378672Y-98328000D01*
X160378672Y-97972400D01*
X160366412Y-97847918D01*
X160359520Y-97825199D01*
X160366412Y-97802481D01*
X160378672Y-97677999D01*
X160378672Y-97322399D01*
X160366412Y-97197917D01*
X160359521Y-97175200D01*
X160366412Y-97152482D01*
X160378672Y-97028000D01*
X160378672Y-96672400D01*
X160366412Y-96547918D01*
X160359520Y-96525200D01*
X160366412Y-96502481D01*
X160378672Y-96377999D01*
X160378672Y-96022399D01*
X160366412Y-95897917D01*
X160359521Y-95875200D01*
X160366412Y-95852482D01*
X160378672Y-95728000D01*
X160378672Y-95372400D01*
X160366412Y-95247918D01*
X160359520Y-95225200D01*
X160366412Y-95202481D01*
X160378672Y-95077999D01*
X160378672Y-94722399D01*
X160366412Y-94597917D01*
X160330102Y-94478219D01*
X160271137Y-94367905D01*
X160191785Y-94271214D01*
X160095094Y-94191862D01*
X159984780Y-94132897D01*
X159865082Y-94096587D01*
X159740600Y-94084327D01*
X158381700Y-94084327D01*
X158257218Y-94096587D01*
X158155315Y-94127499D01*
X153050801Y-94127499D01*
X150569200Y-91645899D01*
X150569200Y-91096325D01*
X150572876Y-91059000D01*
X150569200Y-91021675D01*
X150569200Y-91021667D01*
X150558203Y-90910014D01*
X150514746Y-90766753D01*
X150444174Y-90634724D01*
X150349201Y-90518999D01*
X150320203Y-90495201D01*
X149421610Y-89596608D01*
X149465400Y-89376460D01*
X149465400Y-89083940D01*
X149408332Y-88797042D01*
X149296390Y-88526789D01*
X149133875Y-88283568D01*
X148927032Y-88076725D01*
X148683811Y-87914210D01*
X148413558Y-87802268D01*
X148126660Y-87745200D01*
X147834140Y-87745200D01*
X147547242Y-87802268D01*
X147276989Y-87914210D01*
X147033768Y-88076725D01*
X146826925Y-88283568D01*
X146664410Y-88526789D01*
X146552468Y-88797042D01*
X146495400Y-89083940D01*
X146495400Y-89376460D01*
X146552468Y-89663358D01*
X146664410Y-89933611D01*
X146826925Y-90176832D01*
X147033768Y-90383675D01*
X147208160Y-90500200D01*
X147033768Y-90616725D01*
X146826925Y-90823568D01*
X146664410Y-91066789D01*
X146552468Y-91337042D01*
X146495400Y-91623940D01*
X146495400Y-91916460D01*
X146552468Y-92203358D01*
X146664410Y-92473611D01*
X146826925Y-92716832D01*
X147033768Y-92923675D01*
X147208160Y-93040200D01*
X147033768Y-93156725D01*
X146826925Y-93363568D01*
X146664410Y-93606789D01*
X146552468Y-93877042D01*
X146495400Y-94163940D01*
X146495400Y-94456460D01*
X146552468Y-94743358D01*
X146664410Y-95013611D01*
X146826925Y-95256832D01*
X146958780Y-95388687D01*
X146886220Y-95410698D01*
X146775906Y-95469663D01*
X146679215Y-95549015D01*
X146599863Y-95645706D01*
X146540898Y-95756020D01*
X146504588Y-95875718D01*
X146492328Y-96000200D01*
X132763437Y-96000200D01*
X132764168Y-89482512D01*
X133411160Y-89482512D01*
X133411160Y-89922768D01*
X133497050Y-90354565D01*
X133665529Y-90761309D01*
X133910122Y-91127369D01*
X134221431Y-91438678D01*
X134587491Y-91683271D01*
X134994235Y-91851750D01*
X135426032Y-91937640D01*
X135866288Y-91937640D01*
X136298085Y-91851750D01*
X136704829Y-91683271D01*
X137070889Y-91438678D01*
X137382198Y-91127369D01*
X137626791Y-90761309D01*
X137795270Y-90354565D01*
X137881160Y-89922768D01*
X137881160Y-89482512D01*
X137795270Y-89050715D01*
X137626791Y-88643971D01*
X137382198Y-88277911D01*
X137070889Y-87966602D01*
X136704829Y-87722009D01*
X136298085Y-87553530D01*
X135866288Y-87467640D01*
X135426032Y-87467640D01*
X134994235Y-87553530D01*
X134587491Y-87722009D01*
X134221431Y-87966602D01*
X133910122Y-88277911D01*
X133665529Y-88643971D01*
X133497050Y-89050715D01*
X133411160Y-89482512D01*
X132764168Y-89482512D01*
X132764786Y-83959700D01*
X134731228Y-83959700D01*
X134743488Y-84084182D01*
X134779798Y-84203880D01*
X134838763Y-84314194D01*
X134918115Y-84410885D01*
X135014806Y-84490237D01*
X135125120Y-84549202D01*
X135244818Y-84585512D01*
X135369300Y-84597772D01*
X136290050Y-84594700D01*
X136448800Y-84435950D01*
X136448800Y-81546700D01*
X136702800Y-81546700D01*
X136702800Y-84435950D01*
X136861550Y-84594700D01*
X137782300Y-84597772D01*
X137906782Y-84585512D01*
X138026480Y-84549202D01*
X138136794Y-84490237D01*
X138233485Y-84410885D01*
X138312837Y-84314194D01*
X138371802Y-84203880D01*
X138408112Y-84084182D01*
X138420372Y-83959700D01*
X143494228Y-83959700D01*
X143506488Y-84084182D01*
X143542798Y-84203880D01*
X143601763Y-84314194D01*
X143681115Y-84410885D01*
X143777806Y-84490237D01*
X143888120Y-84549202D01*
X144007818Y-84585512D01*
X144132300Y-84597772D01*
X145053050Y-84594700D01*
X145211800Y-84435950D01*
X145211800Y-81546700D01*
X145465800Y-81546700D01*
X145465800Y-84435950D01*
X145624550Y-84594700D01*
X146545300Y-84597772D01*
X146669782Y-84585512D01*
X146789480Y-84549202D01*
X146899794Y-84490237D01*
X146996485Y-84410885D01*
X147075837Y-84314194D01*
X147134802Y-84203880D01*
X147171112Y-84084182D01*
X147183372Y-83959700D01*
X147183303Y-83908900D01*
X148650428Y-83908900D01*
X148662688Y-84033382D01*
X148698998Y-84153080D01*
X148757963Y-84263394D01*
X148837315Y-84360085D01*
X148934006Y-84439437D01*
X149044320Y-84498402D01*
X149164018Y-84534712D01*
X149288500Y-84546972D01*
X150209250Y-84543900D01*
X150368000Y-84385150D01*
X150368000Y-81495900D01*
X150622000Y-81495900D01*
X150622000Y-84385150D01*
X150780750Y-84543900D01*
X151701500Y-84546972D01*
X151825982Y-84534712D01*
X151945680Y-84498402D01*
X152055994Y-84439437D01*
X152152685Y-84360085D01*
X152232037Y-84263394D01*
X152291002Y-84153080D01*
X152327312Y-84033382D01*
X152339572Y-83908900D01*
X157413428Y-83908900D01*
X157425688Y-84033382D01*
X157461998Y-84153080D01*
X157520963Y-84263394D01*
X157600315Y-84360085D01*
X157697006Y-84439437D01*
X157807320Y-84498402D01*
X157927018Y-84534712D01*
X158051500Y-84546972D01*
X158972250Y-84543900D01*
X159131000Y-84385150D01*
X159131000Y-81495900D01*
X159385000Y-81495900D01*
X159385000Y-84385150D01*
X159543750Y-84543900D01*
X160464500Y-84546972D01*
X160588982Y-84534712D01*
X160708680Y-84498402D01*
X160818994Y-84439437D01*
X160915685Y-84360085D01*
X160995037Y-84263394D01*
X161054002Y-84153080D01*
X161090312Y-84033382D01*
X161102572Y-83908900D01*
X162620428Y-83908900D01*
X162632688Y-84033382D01*
X162668998Y-84153080D01*
X162727963Y-84263394D01*
X162807315Y-84360085D01*
X162904006Y-84439437D01*
X163014320Y-84498402D01*
X163134018Y-84534712D01*
X163258500Y-84546972D01*
X164179250Y-84543900D01*
X164338000Y-84385150D01*
X164338000Y-81495900D01*
X164592000Y-81495900D01*
X164592000Y-84385150D01*
X164750750Y-84543900D01*
X165671500Y-84546972D01*
X165795982Y-84534712D01*
X165915680Y-84498402D01*
X166025994Y-84439437D01*
X166122685Y-84360085D01*
X166202037Y-84263394D01*
X166261002Y-84153080D01*
X166297312Y-84033382D01*
X166309572Y-83908900D01*
X171383428Y-83908900D01*
X171395688Y-84033382D01*
X171431998Y-84153080D01*
X171490963Y-84263394D01*
X171570315Y-84360085D01*
X171667006Y-84439437D01*
X171777320Y-84498402D01*
X171897018Y-84534712D01*
X172021500Y-84546972D01*
X172942250Y-84543900D01*
X173101000Y-84385150D01*
X173101000Y-81495900D01*
X173355000Y-81495900D01*
X173355000Y-84385150D01*
X173513750Y-84543900D01*
X174434500Y-84546972D01*
X174558982Y-84534712D01*
X174678680Y-84498402D01*
X174788994Y-84439437D01*
X174885685Y-84360085D01*
X174965037Y-84263394D01*
X175024002Y-84153080D01*
X175060312Y-84033382D01*
X175072572Y-83908900D01*
X176666628Y-83908900D01*
X176678888Y-84033382D01*
X176715198Y-84153080D01*
X176774163Y-84263394D01*
X176853515Y-84360085D01*
X176950206Y-84439437D01*
X177060520Y-84498402D01*
X177180218Y-84534712D01*
X177304700Y-84546972D01*
X178225450Y-84543900D01*
X178384200Y-84385150D01*
X178384200Y-81495900D01*
X178638200Y-81495900D01*
X178638200Y-84385150D01*
X178796950Y-84543900D01*
X179717700Y-84546972D01*
X179842182Y-84534712D01*
X179961880Y-84498402D01*
X180072194Y-84439437D01*
X180168885Y-84360085D01*
X180248237Y-84263394D01*
X180307202Y-84153080D01*
X180343512Y-84033382D01*
X180355772Y-83908900D01*
X185429628Y-83908900D01*
X185441888Y-84033382D01*
X185478198Y-84153080D01*
X185537163Y-84263394D01*
X185616515Y-84360085D01*
X185713206Y-84439437D01*
X185823520Y-84498402D01*
X185943218Y-84534712D01*
X186067700Y-84546972D01*
X186988450Y-84543900D01*
X187147200Y-84385150D01*
X187147200Y-81495900D01*
X187401200Y-81495900D01*
X187401200Y-84385150D01*
X187559950Y-84543900D01*
X188480700Y-84546972D01*
X188605182Y-84534712D01*
X188724880Y-84498402D01*
X188835194Y-84439437D01*
X188931885Y-84360085D01*
X189011237Y-84263394D01*
X189070202Y-84153080D01*
X189106512Y-84033382D01*
X189118772Y-83908900D01*
X189115700Y-81654650D01*
X188956950Y-81495900D01*
X187401200Y-81495900D01*
X187147200Y-81495900D01*
X185591450Y-81495900D01*
X185432700Y-81654650D01*
X185429628Y-83908900D01*
X180355772Y-83908900D01*
X180352700Y-81654650D01*
X180193950Y-81495900D01*
X178638200Y-81495900D01*
X178384200Y-81495900D01*
X176828450Y-81495900D01*
X176669700Y-81654650D01*
X176666628Y-83908900D01*
X175072572Y-83908900D01*
X175069500Y-81654650D01*
X174910750Y-81495900D01*
X173355000Y-81495900D01*
X173101000Y-81495900D01*
X171545250Y-81495900D01*
X171386500Y-81654650D01*
X171383428Y-83908900D01*
X166309572Y-83908900D01*
X166306500Y-81654650D01*
X166147750Y-81495900D01*
X164592000Y-81495900D01*
X164338000Y-81495900D01*
X162782250Y-81495900D01*
X162623500Y-81654650D01*
X162620428Y-83908900D01*
X161102572Y-83908900D01*
X161099500Y-81654650D01*
X160940750Y-81495900D01*
X159385000Y-81495900D01*
X159131000Y-81495900D01*
X157575250Y-81495900D01*
X157416500Y-81654650D01*
X157413428Y-83908900D01*
X152339572Y-83908900D01*
X152336500Y-81654650D01*
X152177750Y-81495900D01*
X150622000Y-81495900D01*
X150368000Y-81495900D01*
X148812250Y-81495900D01*
X148653500Y-81654650D01*
X148650428Y-83908900D01*
X147183303Y-83908900D01*
X147180300Y-81705450D01*
X147021550Y-81546700D01*
X145465800Y-81546700D01*
X145211800Y-81546700D01*
X143656050Y-81546700D01*
X143497300Y-81705450D01*
X143494228Y-83959700D01*
X138420372Y-83959700D01*
X138417300Y-81705450D01*
X138258550Y-81546700D01*
X136702800Y-81546700D01*
X136448800Y-81546700D01*
X134893050Y-81546700D01*
X134734300Y-81705450D01*
X134731228Y-83959700D01*
X132764786Y-83959700D01*
X132765325Y-79158982D01*
X134731610Y-79159824D01*
G37*
%TD.AperFunction*%
%TD*%
M02*
