%TF.GenerationSoftware,KiCad,Pcbnew,5.1.10-88a1d61d58~88~ubuntu18.04.1*%
%TF.CreationDate,2021-08-07T22:55:04+07:00*%
%TF.ProjectId,ADV728xM_EVAL_SMA-MINISAS_MX8Mx,41445637-3238-4784-9d5f-4556414c5f53,rev?*%
%TF.SameCoordinates,Original*%
%TF.FileFunction,Copper,L2,Bot*%
%TF.FilePolarity,Positive*%
%FSLAX46Y46*%
G04 Gerber Fmt 4.6, Leading zero omitted, Abs format (unit mm)*
G04 Created by KiCad (PCBNEW 5.1.10-88a1d61d58~88~ubuntu18.04.1) date 2021-08-07 22:55:04*
%MOMM*%
%LPD*%
G01*
G04 APERTURE LIST*
%TA.AperFunction,ComponentPad*%
%ADD10C,1.308000*%
%TD*%
%TA.AperFunction,ComponentPad*%
%ADD11O,1.700000X1.700000*%
%TD*%
%TA.AperFunction,ComponentPad*%
%ADD12R,1.700000X1.700000*%
%TD*%
%TA.AperFunction,SMDPad,CuDef*%
%ADD13R,2.286000X5.080000*%
%TD*%
%TA.AperFunction,SMDPad,CuDef*%
%ADD14R,2.413000X5.080000*%
%TD*%
%TA.AperFunction,ViaPad*%
%ADD15C,0.800000*%
%TD*%
%TA.AperFunction,Conductor*%
%ADD16C,0.250000*%
%TD*%
%TA.AperFunction,Conductor*%
%ADD17C,0.350000*%
%TD*%
%TA.AperFunction,Conductor*%
%ADD18C,0.300000*%
%TD*%
%TA.AperFunction,Conductor*%
%ADD19C,0.200000*%
%TD*%
%TA.AperFunction,Conductor*%
%ADD20C,0.254000*%
%TD*%
%TA.AperFunction,Conductor*%
%ADD21C,0.100000*%
%TD*%
G04 APERTURE END LIST*
D10*
%TO.P,J9,S8*%
%TO.N,GND*%
X170438920Y-117344480D03*
%TO.P,J9,S7*%
X170438920Y-115314480D03*
%TO.P,J9,S6*%
X170438920Y-111314480D03*
%TO.P,J9,S5*%
X170438920Y-107074480D03*
%TO.P,J9,S4*%
X152638920Y-117344480D03*
%TO.P,J9,S3*%
X152638920Y-115314480D03*
%TO.P,J9,S2*%
X152638920Y-111314480D03*
%TO.P,J9,S1*%
X152638920Y-108074480D03*
%TD*%
D11*
%TO.P,J6,4*%
%TO.N,/PWDN_1V8*%
X175552100Y-89496900D03*
%TO.P,J6,3*%
%TO.N,/nRST_1V8*%
X175552100Y-92036900D03*
%TO.P,J6,2*%
%TO.N,/I2C_SDA_1V8*%
X175552100Y-94576900D03*
D12*
%TO.P,J6,1*%
%TO.N,/I2C_SCL_1V8*%
X175552100Y-97116900D03*
%TD*%
D13*
%TO.P,J3,1*%
%TO.N,/CLK_P*%
X168846500Y-81368900D03*
D14*
%TO.P,J3,S2*%
%TO.N,GND*%
X164465000Y-81368900D03*
%TO.P,J3,S1*%
X173228000Y-81368900D03*
%TD*%
D13*
%TO.P,J4,1*%
%TO.N,/CLK_N*%
X182892700Y-81368900D03*
D14*
%TO.P,J4,S2*%
%TO.N,GND*%
X178511200Y-81368900D03*
%TO.P,J4,S1*%
X187274200Y-81368900D03*
%TD*%
D13*
%TO.P,J1,1*%
%TO.N,/D0_P*%
X140957300Y-81419700D03*
D14*
%TO.P,J1,S2*%
%TO.N,GND*%
X136575800Y-81419700D03*
%TO.P,J1,S1*%
X145338800Y-81419700D03*
%TD*%
D13*
%TO.P,J2,1*%
%TO.N,/D0_N*%
X154876500Y-81368900D03*
D14*
%TO.P,J2,S2*%
%TO.N,GND*%
X150495000Y-81368900D03*
%TO.P,J2,S1*%
X159258000Y-81368900D03*
%TD*%
D12*
%TO.P,J5,1*%
%TO.N,/I2C_SCL_3V3*%
X147980400Y-96850200D03*
D11*
%TO.P,J5,2*%
%TO.N,/I2C_SDA_3V3*%
X147980400Y-94310200D03*
%TO.P,J5,3*%
%TO.N,/GPIO0_3V3*%
X147980400Y-91770200D03*
%TO.P,J5,4*%
%TO.N,/GPIO1_3V3*%
X147980400Y-89230200D03*
%TD*%
D12*
%TO.P,J8,1*%
%TO.N,+1V8*%
X175590200Y-103289100D03*
D11*
%TO.P,J8,2*%
%TO.N,GND*%
X175590200Y-100749100D03*
%TD*%
%TO.P,J7,2*%
%TO.N,GND*%
X147929600Y-100558600D03*
D12*
%TO.P,J7,1*%
%TO.N,+3V3*%
X147929600Y-103098600D03*
%TD*%
D15*
%TO.N,+3V3*%
X157302200Y-100787200D03*
X170599100Y-100787200D03*
%TO.N,/D0_N*%
X155742640Y-118115080D03*
%TO.N,/D0_P*%
X156768800Y-118089680D03*
%TO.N,/CLK_N*%
X155341320Y-112389920D03*
%TO.N,/CLK_P*%
X156382720Y-112400080D03*
%TO.N,/nRST_1V8*%
X161041080Y-114127280D03*
%TO.N,/I2C_SDA_1V8*%
X162138360Y-114132360D03*
%TO.N,/I2C_SCL_1V8*%
X163230560Y-114132360D03*
X166060120Y-104912160D03*
%TO.N,/I2C_SDA_1V8*%
X165054280Y-104912160D03*
%TO.N,+1V8*%
X164820600Y-101917500D03*
X158064200Y-101879400D03*
%TO.N,/nRST_1V8*%
X164033200Y-104937560D03*
%TD*%
D16*
%TO.N,+3V3*%
X157327600Y-100761800D02*
X157302200Y-100787200D01*
D17*
X157302200Y-100787200D02*
X170624500Y-100787200D01*
X154990800Y-103098600D02*
X157302200Y-100787200D01*
X147929600Y-103098600D02*
X154990800Y-103098600D01*
D16*
%TO.N,GND*%
X175285400Y-100787200D02*
X175298100Y-100799900D01*
D18*
%TO.N,+1V8*%
X164807900Y-101917500D02*
X164807900Y-101917500D01*
X166192200Y-103289100D02*
X164820600Y-101917500D01*
X175590200Y-103289100D02*
X166192200Y-103289100D01*
D16*
X164820600Y-101917500D02*
X158165800Y-101917500D01*
D19*
%TO.N,/D0_P*%
X140970000Y-81470500D02*
X140970000Y-82384900D01*
X144567700Y-117804420D02*
X147115040Y-120351760D01*
X140970000Y-82384900D02*
X140970000Y-85801200D01*
X140970000Y-85801200D02*
X141579600Y-86410800D01*
X141579600Y-86410800D02*
X144145000Y-86410800D01*
X144145000Y-86410800D02*
X144567700Y-86833500D01*
X144567700Y-86833500D02*
X144567700Y-117804420D01*
X156768800Y-118999000D02*
X155416040Y-120351760D01*
X156768800Y-118089680D02*
X156768800Y-118999000D01*
X147115040Y-120351760D02*
X155416040Y-120351760D01*
%TO.N,/D0_N*%
X154851100Y-81432400D02*
X154851100Y-82308700D01*
X154851100Y-82308700D02*
X154851100Y-82308700D01*
X150717250Y-86442550D02*
X145421350Y-86442550D01*
X145017700Y-86846200D02*
X145017700Y-117618020D01*
X145017700Y-117618020D02*
X147301440Y-119901760D01*
X145421350Y-86442550D02*
X145017700Y-86846200D01*
X155737560Y-119374920D02*
X155210720Y-119901760D01*
X147301440Y-119901760D02*
X155210720Y-119901760D01*
X155742640Y-119369840D02*
X155210720Y-119901760D01*
X155742640Y-118115080D02*
X155742640Y-119369840D01*
D16*
X150717250Y-86442550D02*
X153104850Y-86442550D01*
X154876500Y-84670900D02*
X154876500Y-81368900D01*
X153104850Y-86442550D02*
X154876500Y-84670900D01*
D19*
%TO.N,/CLK_P*%
X168833800Y-81368900D02*
X168833800Y-82245200D01*
X178375100Y-87363300D02*
X177854400Y-86842600D01*
X174496240Y-119922080D02*
X178375100Y-116043220D01*
X178375100Y-116043220D02*
X178375100Y-87363300D01*
X156382720Y-112400080D02*
X157286960Y-113304320D01*
X168833800Y-82334100D02*
X168833800Y-82245200D01*
X157286960Y-113304320D02*
X158679219Y-113304320D01*
X158679219Y-113304320D02*
X159325520Y-113950621D01*
X159325520Y-113950621D02*
X159325520Y-118169200D01*
X159325520Y-118169200D02*
X161078400Y-119922080D01*
X161078400Y-119922080D02*
X174496240Y-119922080D01*
D16*
X173476920Y-86842600D02*
X170586400Y-86842600D01*
D19*
X173476920Y-86842600D02*
X173342300Y-86842600D01*
X177854400Y-86842600D02*
X173476920Y-86842600D01*
D16*
X168846500Y-85102700D02*
X168846500Y-81368900D01*
X170586400Y-86842600D02*
X168846500Y-85102700D01*
D19*
%TO.N,/CLK_N*%
X182880000Y-81394300D02*
X182880000Y-82296000D01*
X160892000Y-120372080D02*
X158875520Y-118355600D01*
X178825100Y-116229620D02*
X174682640Y-120372080D01*
X178825100Y-87372400D02*
X178825100Y-116229620D01*
X182880000Y-82296000D02*
X182880000Y-86487000D01*
X182880000Y-86487000D02*
X182511700Y-86855300D01*
X182511700Y-86855300D02*
X179342200Y-86855300D01*
X179342200Y-86855300D02*
X178825100Y-87372400D01*
X174682640Y-120372080D02*
X160892000Y-120372080D01*
X155341320Y-112389920D02*
X156784040Y-113832640D01*
X158554000Y-113832640D02*
X158875520Y-114154160D01*
X156784040Y-113832640D02*
X158554000Y-113832640D01*
X158875520Y-118355600D02*
X158875520Y-114154160D01*
D16*
%TO.N,/nRST_1V8*%
X164033200Y-104937560D02*
X164033200Y-106410760D01*
X161041080Y-109402880D02*
X161041080Y-114127280D01*
X164033200Y-106410760D02*
X161041080Y-109402880D01*
%TO.N,/I2C_SCL_1V8*%
X166060120Y-104912160D02*
X166060120Y-107629960D01*
X163230560Y-110459520D02*
X163230560Y-114132360D01*
X166060120Y-107629960D02*
X163230560Y-110459520D01*
%TO.N,/I2C_SDA_1V8*%
X165054280Y-104912160D02*
X165054280Y-107086400D01*
X162138360Y-110002320D02*
X162138360Y-114132360D01*
X165054280Y-107086400D02*
X162138360Y-110002320D01*
%TD*%
D20*
%TO.N,GND*%
X134731610Y-79159824D02*
X134734300Y-81133950D01*
X134893050Y-81292700D01*
X136448800Y-81292700D01*
X136448800Y-81272700D01*
X136702800Y-81272700D01*
X136702800Y-81292700D01*
X138258550Y-81292700D01*
X138417300Y-81133950D01*
X138419988Y-79161403D01*
X139176228Y-79161727D01*
X139176228Y-83959700D01*
X139188488Y-84084182D01*
X139224798Y-84203880D01*
X139283763Y-84314194D01*
X139363115Y-84410885D01*
X139459806Y-84490237D01*
X139570120Y-84549202D01*
X139689818Y-84585512D01*
X139814300Y-84597772D01*
X140235001Y-84597772D01*
X140235001Y-85765085D01*
X140231444Y-85801200D01*
X140245635Y-85945285D01*
X140285494Y-86076680D01*
X140287664Y-86083833D01*
X140355914Y-86211520D01*
X140447763Y-86323438D01*
X140475808Y-86346454D01*
X141034346Y-86904993D01*
X141057362Y-86933038D01*
X141150212Y-87009238D01*
X141169280Y-87024887D01*
X141296966Y-87093137D01*
X141435515Y-87135165D01*
X141579600Y-87149356D01*
X141615705Y-87145800D01*
X143832700Y-87145800D01*
X143832701Y-117768305D01*
X143829144Y-117804420D01*
X143843335Y-117948505D01*
X143875209Y-118053576D01*
X143885364Y-118087053D01*
X143953614Y-118214740D01*
X144045463Y-118326658D01*
X144073508Y-118349674D01*
X146569786Y-120845953D01*
X146592802Y-120873998D01*
X146704720Y-120965847D01*
X146832407Y-121034097D01*
X146970955Y-121076125D01*
X147115040Y-121090316D01*
X147151145Y-121086760D01*
X155379935Y-121086760D01*
X155416040Y-121090316D01*
X155452145Y-121086760D01*
X155560125Y-121076125D01*
X155698673Y-121034097D01*
X155826360Y-120965847D01*
X155938278Y-120873998D01*
X155961298Y-120845948D01*
X157262993Y-119544254D01*
X157291038Y-119521238D01*
X157382887Y-119409320D01*
X157411051Y-119356629D01*
X157451137Y-119281634D01*
X157493165Y-119143085D01*
X157507356Y-118999000D01*
X157503800Y-118962895D01*
X157503800Y-118818391D01*
X157572737Y-118749454D01*
X157686005Y-118579936D01*
X157764026Y-118391578D01*
X157803800Y-118191619D01*
X157803800Y-117987741D01*
X157764026Y-117787782D01*
X157686005Y-117599424D01*
X157572737Y-117429906D01*
X157428574Y-117285743D01*
X157259056Y-117172475D01*
X157070698Y-117094454D01*
X156870739Y-117054680D01*
X156666861Y-117054680D01*
X156466902Y-117094454D01*
X156278544Y-117172475D01*
X156236713Y-117200425D01*
X156232896Y-117197875D01*
X156044538Y-117119854D01*
X155844579Y-117080080D01*
X155640701Y-117080080D01*
X155440742Y-117119854D01*
X155252384Y-117197875D01*
X155082866Y-117311143D01*
X154938703Y-117455306D01*
X154825435Y-117624824D01*
X154747414Y-117813182D01*
X154707640Y-118013141D01*
X154707640Y-118217019D01*
X154747414Y-118416978D01*
X154825435Y-118605336D01*
X154938703Y-118774854D01*
X155007641Y-118843792D01*
X155007641Y-119065393D01*
X154906274Y-119166760D01*
X147605887Y-119166760D01*
X146671994Y-118232867D01*
X151930138Y-118232867D01*
X151984013Y-118461948D01*
X152214604Y-118568243D01*
X152461501Y-118627508D01*
X152715216Y-118637468D01*
X152965999Y-118597739D01*
X153204213Y-118509848D01*
X153293827Y-118461948D01*
X153347702Y-118232867D01*
X152638920Y-117524085D01*
X151930138Y-118232867D01*
X146671994Y-118232867D01*
X145859903Y-117420776D01*
X151345932Y-117420776D01*
X151385661Y-117671559D01*
X151473552Y-117909773D01*
X151521452Y-117999387D01*
X151750533Y-118053262D01*
X152459315Y-117344480D01*
X152818525Y-117344480D01*
X153527307Y-118053262D01*
X153756388Y-117999387D01*
X153862683Y-117768796D01*
X153921948Y-117521899D01*
X153931908Y-117268184D01*
X153892179Y-117017401D01*
X153804288Y-116779187D01*
X153756388Y-116689573D01*
X153527307Y-116635698D01*
X152818525Y-117344480D01*
X152459315Y-117344480D01*
X151750533Y-116635698D01*
X151521452Y-116689573D01*
X151415157Y-116920164D01*
X151355892Y-117167061D01*
X151345932Y-117420776D01*
X145859903Y-117420776D01*
X145752700Y-117313574D01*
X145752700Y-116202867D01*
X151930138Y-116202867D01*
X151959915Y-116329480D01*
X151930138Y-116456093D01*
X152638920Y-117164875D01*
X153347702Y-116456093D01*
X153317925Y-116329480D01*
X153347702Y-116202867D01*
X152638920Y-115494085D01*
X151930138Y-116202867D01*
X145752700Y-116202867D01*
X145752700Y-115390776D01*
X151345932Y-115390776D01*
X151385661Y-115641559D01*
X151473552Y-115879773D01*
X151521452Y-115969387D01*
X151750533Y-116023262D01*
X152459315Y-115314480D01*
X151750533Y-114605698D01*
X151521452Y-114659573D01*
X151415157Y-114890164D01*
X151355892Y-115137061D01*
X151345932Y-115390776D01*
X145752700Y-115390776D01*
X145752700Y-111390776D01*
X151345932Y-111390776D01*
X151385661Y-111641559D01*
X151473552Y-111879773D01*
X151521452Y-111969387D01*
X151750533Y-112023262D01*
X152459315Y-111314480D01*
X151750533Y-110605698D01*
X151521452Y-110659573D01*
X151415157Y-110890164D01*
X151355892Y-111137061D01*
X151345932Y-111390776D01*
X145752700Y-111390776D01*
X145752700Y-110426093D01*
X151930138Y-110426093D01*
X152638920Y-111134875D01*
X153347702Y-110426093D01*
X153293827Y-110197012D01*
X153063236Y-110090717D01*
X152816339Y-110031452D01*
X152562624Y-110021492D01*
X152311841Y-110061221D01*
X152073627Y-110149112D01*
X151984013Y-110197012D01*
X151930138Y-110426093D01*
X145752700Y-110426093D01*
X145752700Y-108962867D01*
X151930138Y-108962867D01*
X151984013Y-109191948D01*
X152214604Y-109298243D01*
X152461501Y-109357508D01*
X152715216Y-109367468D01*
X152965999Y-109327739D01*
X153204213Y-109239848D01*
X153293827Y-109191948D01*
X153347702Y-108962867D01*
X152638920Y-108254085D01*
X151930138Y-108962867D01*
X145752700Y-108962867D01*
X145752700Y-108150776D01*
X151345932Y-108150776D01*
X151385661Y-108401559D01*
X151473552Y-108639773D01*
X151521452Y-108729387D01*
X151750533Y-108783262D01*
X152459315Y-108074480D01*
X152818525Y-108074480D01*
X153527307Y-108783262D01*
X153756388Y-108729387D01*
X153862683Y-108498796D01*
X153921948Y-108251899D01*
X153931908Y-107998184D01*
X153892179Y-107747401D01*
X153804288Y-107509187D01*
X153756388Y-107419573D01*
X153527307Y-107365698D01*
X152818525Y-108074480D01*
X152459315Y-108074480D01*
X151750533Y-107365698D01*
X151521452Y-107419573D01*
X151415157Y-107650164D01*
X151355892Y-107897061D01*
X151345932Y-108150776D01*
X145752700Y-108150776D01*
X145752700Y-107186093D01*
X151930138Y-107186093D01*
X152638920Y-107894875D01*
X153347702Y-107186093D01*
X153293827Y-106957012D01*
X153063236Y-106850717D01*
X152816339Y-106791452D01*
X152562624Y-106781492D01*
X152311841Y-106821221D01*
X152073627Y-106909112D01*
X151984013Y-106957012D01*
X151930138Y-107186093D01*
X145752700Y-107186093D01*
X145752700Y-100201710D01*
X146488124Y-100201710D01*
X146609445Y-100431600D01*
X147802600Y-100431600D01*
X147802600Y-99237786D01*
X148056600Y-99237786D01*
X148056600Y-100431600D01*
X149249755Y-100431600D01*
X149371076Y-100201710D01*
X149326425Y-100054501D01*
X149201241Y-99791680D01*
X149027188Y-99558331D01*
X148810955Y-99363422D01*
X148560852Y-99214443D01*
X148286491Y-99117119D01*
X148056600Y-99237786D01*
X147802600Y-99237786D01*
X147572709Y-99117119D01*
X147298348Y-99214443D01*
X147048245Y-99363422D01*
X146832012Y-99558331D01*
X146657959Y-99791680D01*
X146532775Y-100054501D01*
X146488124Y-100201710D01*
X145752700Y-100201710D01*
X145752700Y-96000200D01*
X146492328Y-96000200D01*
X146492328Y-97700200D01*
X146504588Y-97824682D01*
X146540898Y-97944380D01*
X146599863Y-98054694D01*
X146679215Y-98151385D01*
X146775906Y-98230737D01*
X146886220Y-98289702D01*
X147005918Y-98326012D01*
X147130400Y-98338272D01*
X148830400Y-98338272D01*
X148954882Y-98326012D01*
X149074580Y-98289702D01*
X149184894Y-98230737D01*
X149281585Y-98151385D01*
X149360937Y-98054694D01*
X149419902Y-97944380D01*
X149456212Y-97824682D01*
X149468472Y-97700200D01*
X149468472Y-96266900D01*
X174064028Y-96266900D01*
X174064028Y-97966900D01*
X174076288Y-98091382D01*
X174112598Y-98211080D01*
X174171563Y-98321394D01*
X174250915Y-98418085D01*
X174347606Y-98497437D01*
X174457920Y-98556402D01*
X174577618Y-98592712D01*
X174702100Y-98604972D01*
X176402100Y-98604972D01*
X176526582Y-98592712D01*
X176646280Y-98556402D01*
X176756594Y-98497437D01*
X176853285Y-98418085D01*
X176932637Y-98321394D01*
X176991602Y-98211080D01*
X177027912Y-98091382D01*
X177040172Y-97966900D01*
X177040172Y-96266900D01*
X177027912Y-96142418D01*
X176991602Y-96022720D01*
X176932637Y-95912406D01*
X176853285Y-95815715D01*
X176756594Y-95736363D01*
X176646280Y-95677398D01*
X176573720Y-95655387D01*
X176705575Y-95523532D01*
X176868090Y-95280311D01*
X176980032Y-95010058D01*
X177037100Y-94723160D01*
X177037100Y-94430640D01*
X176980032Y-94143742D01*
X176868090Y-93873489D01*
X176705575Y-93630268D01*
X176498732Y-93423425D01*
X176324340Y-93306900D01*
X176498732Y-93190375D01*
X176705575Y-92983532D01*
X176868090Y-92740311D01*
X176980032Y-92470058D01*
X177037100Y-92183160D01*
X177037100Y-91890640D01*
X176980032Y-91603742D01*
X176868090Y-91333489D01*
X176705575Y-91090268D01*
X176498732Y-90883425D01*
X176324340Y-90766900D01*
X176498732Y-90650375D01*
X176705575Y-90443532D01*
X176868090Y-90200311D01*
X176980032Y-89930058D01*
X177037100Y-89643160D01*
X177037100Y-89350640D01*
X176980032Y-89063742D01*
X176868090Y-88793489D01*
X176705575Y-88550268D01*
X176498732Y-88343425D01*
X176255511Y-88180910D01*
X175985258Y-88068968D01*
X175698360Y-88011900D01*
X175405840Y-88011900D01*
X175118942Y-88068968D01*
X174848689Y-88180910D01*
X174605468Y-88343425D01*
X174398625Y-88550268D01*
X174236110Y-88793489D01*
X174124168Y-89063742D01*
X174067100Y-89350640D01*
X174067100Y-89643160D01*
X174124168Y-89930058D01*
X174236110Y-90200311D01*
X174398625Y-90443532D01*
X174605468Y-90650375D01*
X174779860Y-90766900D01*
X174605468Y-90883425D01*
X174398625Y-91090268D01*
X174236110Y-91333489D01*
X174124168Y-91603742D01*
X174067100Y-91890640D01*
X174067100Y-92183160D01*
X174124168Y-92470058D01*
X174236110Y-92740311D01*
X174398625Y-92983532D01*
X174605468Y-93190375D01*
X174779860Y-93306900D01*
X174605468Y-93423425D01*
X174398625Y-93630268D01*
X174236110Y-93873489D01*
X174124168Y-94143742D01*
X174067100Y-94430640D01*
X174067100Y-94723160D01*
X174124168Y-95010058D01*
X174236110Y-95280311D01*
X174398625Y-95523532D01*
X174530480Y-95655387D01*
X174457920Y-95677398D01*
X174347606Y-95736363D01*
X174250915Y-95815715D01*
X174171563Y-95912406D01*
X174112598Y-96022720D01*
X174076288Y-96142418D01*
X174064028Y-96266900D01*
X149468472Y-96266900D01*
X149468472Y-96000200D01*
X149456212Y-95875718D01*
X149419902Y-95756020D01*
X149360937Y-95645706D01*
X149281585Y-95549015D01*
X149184894Y-95469663D01*
X149074580Y-95410698D01*
X149002020Y-95388687D01*
X149133875Y-95256832D01*
X149296390Y-95013611D01*
X149408332Y-94743358D01*
X149465400Y-94456460D01*
X149465400Y-94163940D01*
X149408332Y-93877042D01*
X149296390Y-93606789D01*
X149133875Y-93363568D01*
X148927032Y-93156725D01*
X148752640Y-93040200D01*
X148927032Y-92923675D01*
X149133875Y-92716832D01*
X149296390Y-92473611D01*
X149408332Y-92203358D01*
X149465400Y-91916460D01*
X149465400Y-91623940D01*
X149408332Y-91337042D01*
X149296390Y-91066789D01*
X149133875Y-90823568D01*
X148927032Y-90616725D01*
X148752640Y-90500200D01*
X148927032Y-90383675D01*
X149133875Y-90176832D01*
X149296390Y-89933611D01*
X149408332Y-89663358D01*
X149465400Y-89376460D01*
X149465400Y-89083940D01*
X149408332Y-88797042D01*
X149296390Y-88526789D01*
X149133875Y-88283568D01*
X148927032Y-88076725D01*
X148683811Y-87914210D01*
X148413558Y-87802268D01*
X148126660Y-87745200D01*
X147834140Y-87745200D01*
X147547242Y-87802268D01*
X147276989Y-87914210D01*
X147033768Y-88076725D01*
X146826925Y-88283568D01*
X146664410Y-88526789D01*
X146552468Y-88797042D01*
X146495400Y-89083940D01*
X146495400Y-89376460D01*
X146552468Y-89663358D01*
X146664410Y-89933611D01*
X146826925Y-90176832D01*
X147033768Y-90383675D01*
X147208160Y-90500200D01*
X147033768Y-90616725D01*
X146826925Y-90823568D01*
X146664410Y-91066789D01*
X146552468Y-91337042D01*
X146495400Y-91623940D01*
X146495400Y-91916460D01*
X146552468Y-92203358D01*
X146664410Y-92473611D01*
X146826925Y-92716832D01*
X147033768Y-92923675D01*
X147208160Y-93040200D01*
X147033768Y-93156725D01*
X146826925Y-93363568D01*
X146664410Y-93606789D01*
X146552468Y-93877042D01*
X146495400Y-94163940D01*
X146495400Y-94456460D01*
X146552468Y-94743358D01*
X146664410Y-95013611D01*
X146826925Y-95256832D01*
X146958780Y-95388687D01*
X146886220Y-95410698D01*
X146775906Y-95469663D01*
X146679215Y-95549015D01*
X146599863Y-95645706D01*
X146540898Y-95756020D01*
X146504588Y-95875718D01*
X146492328Y-96000200D01*
X145752700Y-96000200D01*
X145752700Y-87177550D01*
X150522101Y-87177550D01*
X150568264Y-87191553D01*
X150679917Y-87202550D01*
X153067528Y-87202550D01*
X153104850Y-87206226D01*
X153142172Y-87202550D01*
X153142183Y-87202550D01*
X153253836Y-87191553D01*
X153397097Y-87148096D01*
X153529126Y-87077524D01*
X153644851Y-86982551D01*
X153668653Y-86953548D01*
X155387509Y-85234694D01*
X155416501Y-85210901D01*
X155440295Y-85181908D01*
X155440299Y-85181904D01*
X155511473Y-85095177D01*
X155511474Y-85095176D01*
X155582046Y-84963147D01*
X155625503Y-84819886D01*
X155636500Y-84708233D01*
X155636500Y-84708224D01*
X155640176Y-84670901D01*
X155636500Y-84633578D01*
X155636500Y-84546972D01*
X156019500Y-84546972D01*
X156143982Y-84534712D01*
X156263680Y-84498402D01*
X156373994Y-84439437D01*
X156470685Y-84360085D01*
X156550037Y-84263394D01*
X156609002Y-84153080D01*
X156645312Y-84033382D01*
X156657572Y-83908900D01*
X157413428Y-83908900D01*
X157425688Y-84033382D01*
X157461998Y-84153080D01*
X157520963Y-84263394D01*
X157600315Y-84360085D01*
X157697006Y-84439437D01*
X157807320Y-84498402D01*
X157927018Y-84534712D01*
X158051500Y-84546972D01*
X158972250Y-84543900D01*
X159131000Y-84385150D01*
X159131000Y-81495900D01*
X159385000Y-81495900D01*
X159385000Y-84385150D01*
X159543750Y-84543900D01*
X160464500Y-84546972D01*
X160588982Y-84534712D01*
X160708680Y-84498402D01*
X160818994Y-84439437D01*
X160915685Y-84360085D01*
X160995037Y-84263394D01*
X161054002Y-84153080D01*
X161090312Y-84033382D01*
X161102572Y-83908900D01*
X162620428Y-83908900D01*
X162632688Y-84033382D01*
X162668998Y-84153080D01*
X162727963Y-84263394D01*
X162807315Y-84360085D01*
X162904006Y-84439437D01*
X163014320Y-84498402D01*
X163134018Y-84534712D01*
X163258500Y-84546972D01*
X164179250Y-84543900D01*
X164338000Y-84385150D01*
X164338000Y-81495900D01*
X164592000Y-81495900D01*
X164592000Y-84385150D01*
X164750750Y-84543900D01*
X165671500Y-84546972D01*
X165795982Y-84534712D01*
X165915680Y-84498402D01*
X166025994Y-84439437D01*
X166122685Y-84360085D01*
X166202037Y-84263394D01*
X166261002Y-84153080D01*
X166297312Y-84033382D01*
X166309572Y-83908900D01*
X166306500Y-81654650D01*
X166147750Y-81495900D01*
X164592000Y-81495900D01*
X164338000Y-81495900D01*
X162782250Y-81495900D01*
X162623500Y-81654650D01*
X162620428Y-83908900D01*
X161102572Y-83908900D01*
X161099500Y-81654650D01*
X160940750Y-81495900D01*
X159385000Y-81495900D01*
X159131000Y-81495900D01*
X157575250Y-81495900D01*
X157416500Y-81654650D01*
X157413428Y-83908900D01*
X156657572Y-83908900D01*
X156657572Y-79169210D01*
X157413892Y-79169534D01*
X157416500Y-81083150D01*
X157575250Y-81241900D01*
X159131000Y-81241900D01*
X159131000Y-81221900D01*
X159385000Y-81221900D01*
X159385000Y-81241900D01*
X160940750Y-81241900D01*
X161099500Y-81083150D01*
X161102106Y-79171113D01*
X162620895Y-79171763D01*
X162623500Y-81083150D01*
X162782250Y-81241900D01*
X164338000Y-81241900D01*
X164338000Y-81221900D01*
X164592000Y-81221900D01*
X164592000Y-81241900D01*
X166147750Y-81241900D01*
X166306500Y-81083150D01*
X166309103Y-79173342D01*
X167065428Y-79173665D01*
X167065428Y-83908900D01*
X167077688Y-84033382D01*
X167113998Y-84153080D01*
X167172963Y-84263394D01*
X167252315Y-84360085D01*
X167349006Y-84439437D01*
X167459320Y-84498402D01*
X167579018Y-84534712D01*
X167703500Y-84546972D01*
X168086500Y-84546972D01*
X168086500Y-85065377D01*
X168082824Y-85102700D01*
X168086500Y-85140022D01*
X168086500Y-85140032D01*
X168097497Y-85251685D01*
X168105772Y-85278963D01*
X168140954Y-85394946D01*
X168211526Y-85526976D01*
X168251371Y-85575526D01*
X168306499Y-85642701D01*
X168335503Y-85666504D01*
X170022601Y-87353603D01*
X170046399Y-87382601D01*
X170162124Y-87477574D01*
X170294153Y-87548146D01*
X170437414Y-87591603D01*
X170549067Y-87602600D01*
X170549076Y-87602600D01*
X170586399Y-87606276D01*
X170623722Y-87602600D01*
X173514253Y-87602600D01*
X173625906Y-87591603D01*
X173672069Y-87577600D01*
X177549954Y-87577600D01*
X177640101Y-87667748D01*
X177640100Y-115738773D01*
X174191794Y-119187080D01*
X161382847Y-119187080D01*
X160428634Y-118232867D01*
X169730138Y-118232867D01*
X169784013Y-118461948D01*
X170014604Y-118568243D01*
X170261501Y-118627508D01*
X170515216Y-118637468D01*
X170765999Y-118597739D01*
X171004213Y-118509848D01*
X171093827Y-118461948D01*
X171147702Y-118232867D01*
X170438920Y-117524085D01*
X169730138Y-118232867D01*
X160428634Y-118232867D01*
X160060520Y-117864754D01*
X160060520Y-117420776D01*
X169145932Y-117420776D01*
X169185661Y-117671559D01*
X169273552Y-117909773D01*
X169321452Y-117999387D01*
X169550533Y-118053262D01*
X170259315Y-117344480D01*
X170618525Y-117344480D01*
X171327307Y-118053262D01*
X171556388Y-117999387D01*
X171662683Y-117768796D01*
X171721948Y-117521899D01*
X171731908Y-117268184D01*
X171692179Y-117017401D01*
X171604288Y-116779187D01*
X171556388Y-116689573D01*
X171327307Y-116635698D01*
X170618525Y-117344480D01*
X170259315Y-117344480D01*
X169550533Y-116635698D01*
X169321452Y-116689573D01*
X169215157Y-116920164D01*
X169155892Y-117167061D01*
X169145932Y-117420776D01*
X160060520Y-117420776D01*
X160060520Y-116202867D01*
X169730138Y-116202867D01*
X169759915Y-116329480D01*
X169730138Y-116456093D01*
X170438920Y-117164875D01*
X171147702Y-116456093D01*
X171117925Y-116329480D01*
X171147702Y-116202867D01*
X170438920Y-115494085D01*
X169730138Y-116202867D01*
X160060520Y-116202867D01*
X160060520Y-114464585D01*
X160123875Y-114617536D01*
X160237143Y-114787054D01*
X160381306Y-114931217D01*
X160550824Y-115044485D01*
X160739182Y-115122506D01*
X160939141Y-115162280D01*
X161143019Y-115162280D01*
X161342978Y-115122506D01*
X161531336Y-115044485D01*
X161585919Y-115008014D01*
X161648104Y-115049565D01*
X161836462Y-115127586D01*
X162036421Y-115167360D01*
X162240299Y-115167360D01*
X162440258Y-115127586D01*
X162628616Y-115049565D01*
X162684460Y-115012251D01*
X162740304Y-115049565D01*
X162928662Y-115127586D01*
X163128621Y-115167360D01*
X163332499Y-115167360D01*
X163532458Y-115127586D01*
X163720816Y-115049565D01*
X163890334Y-114936297D01*
X164034497Y-114792134D01*
X164147765Y-114622616D01*
X164225786Y-114434258D01*
X164265560Y-114234299D01*
X164265560Y-114030421D01*
X164225786Y-113830462D01*
X164147765Y-113642104D01*
X164034497Y-113472586D01*
X163990560Y-113428649D01*
X163990560Y-113175607D01*
X168128920Y-113175607D01*
X168128920Y-113453353D01*
X168183106Y-113725762D01*
X168289395Y-113982365D01*
X168443702Y-114213302D01*
X168640098Y-114409698D01*
X168871035Y-114564005D01*
X169127638Y-114670294D01*
X169300646Y-114704708D01*
X169215157Y-114890164D01*
X169155892Y-115137061D01*
X169145932Y-115390776D01*
X169185661Y-115641559D01*
X169273552Y-115879773D01*
X169321452Y-115969387D01*
X169550533Y-116023262D01*
X170259315Y-115314480D01*
X170618525Y-115314480D01*
X171327307Y-116023262D01*
X171556388Y-115969387D01*
X171662683Y-115738796D01*
X171721948Y-115491899D01*
X171731908Y-115238184D01*
X171692179Y-114987401D01*
X171604288Y-114749187D01*
X171556388Y-114659573D01*
X171327307Y-114605698D01*
X170618525Y-115314480D01*
X170259315Y-115314480D01*
X170245173Y-115300338D01*
X170424778Y-115120733D01*
X170438920Y-115134875D01*
X171147702Y-114426093D01*
X171093827Y-114197012D01*
X170863236Y-114090717D01*
X170736391Y-114060269D01*
X170788445Y-113982365D01*
X170894734Y-113725762D01*
X170948920Y-113453353D01*
X170948920Y-113175607D01*
X170894734Y-112903198D01*
X170788445Y-112646595D01*
X170738650Y-112572072D01*
X170765999Y-112567739D01*
X171004213Y-112479848D01*
X171093827Y-112431948D01*
X171147702Y-112202867D01*
X170438920Y-111494085D01*
X170424778Y-111508228D01*
X170245173Y-111328623D01*
X170259315Y-111314480D01*
X170618525Y-111314480D01*
X171327307Y-112023262D01*
X171556388Y-111969387D01*
X171662683Y-111738796D01*
X171721948Y-111491899D01*
X171731908Y-111238184D01*
X171692179Y-110987401D01*
X171604288Y-110749187D01*
X171556388Y-110659573D01*
X171327307Y-110605698D01*
X170618525Y-111314480D01*
X170259315Y-111314480D01*
X169550533Y-110605698D01*
X169321452Y-110659573D01*
X169215157Y-110890164D01*
X169155892Y-111137061D01*
X169145932Y-111390776D01*
X169185661Y-111641559D01*
X169273552Y-111879773D01*
X169297646Y-111924849D01*
X169127638Y-111958666D01*
X168871035Y-112064955D01*
X168640098Y-112219262D01*
X168443702Y-112415658D01*
X168289395Y-112646595D01*
X168183106Y-112903198D01*
X168128920Y-113175607D01*
X163990560Y-113175607D01*
X163990560Y-110774321D01*
X164338788Y-110426093D01*
X169730138Y-110426093D01*
X170438920Y-111134875D01*
X171147702Y-110426093D01*
X171093827Y-110197012D01*
X170863236Y-110090717D01*
X170616339Y-110031452D01*
X170362624Y-110021492D01*
X170111841Y-110061221D01*
X169873627Y-110149112D01*
X169784013Y-110197012D01*
X169730138Y-110426093D01*
X164338788Y-110426093D01*
X166571123Y-108193759D01*
X166600121Y-108169961D01*
X166626452Y-108137877D01*
X166695094Y-108054237D01*
X166743932Y-107962867D01*
X169730138Y-107962867D01*
X169784013Y-108191948D01*
X170014604Y-108298243D01*
X170261501Y-108357508D01*
X170515216Y-108367468D01*
X170765999Y-108327739D01*
X171004213Y-108239848D01*
X171093827Y-108191948D01*
X171147702Y-107962867D01*
X170438920Y-107254085D01*
X169730138Y-107962867D01*
X166743932Y-107962867D01*
X166765666Y-107922207D01*
X166791997Y-107835403D01*
X166809123Y-107778946D01*
X166820120Y-107667293D01*
X166820120Y-107667284D01*
X166823796Y-107629961D01*
X166820120Y-107592638D01*
X166820120Y-107150776D01*
X169145932Y-107150776D01*
X169185661Y-107401559D01*
X169273552Y-107639773D01*
X169321452Y-107729387D01*
X169550533Y-107783262D01*
X170259315Y-107074480D01*
X170618525Y-107074480D01*
X171327307Y-107783262D01*
X171556388Y-107729387D01*
X171662683Y-107498796D01*
X171721948Y-107251899D01*
X171731908Y-106998184D01*
X171692179Y-106747401D01*
X171604288Y-106509187D01*
X171556388Y-106419573D01*
X171327307Y-106365698D01*
X170618525Y-107074480D01*
X170259315Y-107074480D01*
X169550533Y-106365698D01*
X169321452Y-106419573D01*
X169215157Y-106650164D01*
X169155892Y-106897061D01*
X169145932Y-107150776D01*
X166820120Y-107150776D01*
X166820120Y-106186093D01*
X169730138Y-106186093D01*
X170438920Y-106894875D01*
X171147702Y-106186093D01*
X171093827Y-105957012D01*
X170863236Y-105850717D01*
X170616339Y-105791452D01*
X170362624Y-105781492D01*
X170111841Y-105821221D01*
X169873627Y-105909112D01*
X169784013Y-105957012D01*
X169730138Y-106186093D01*
X166820120Y-106186093D01*
X166820120Y-105615871D01*
X166864057Y-105571934D01*
X166977325Y-105402416D01*
X167055346Y-105214058D01*
X167095120Y-105014099D01*
X167095120Y-104810221D01*
X167055346Y-104610262D01*
X166977325Y-104421904D01*
X166864057Y-104252386D01*
X166719894Y-104108223D01*
X166668825Y-104074100D01*
X174102128Y-104074100D01*
X174102128Y-104139100D01*
X174114388Y-104263582D01*
X174150698Y-104383280D01*
X174209663Y-104493594D01*
X174289015Y-104590285D01*
X174385706Y-104669637D01*
X174496020Y-104728602D01*
X174615718Y-104764912D01*
X174740200Y-104777172D01*
X176440200Y-104777172D01*
X176564682Y-104764912D01*
X176684380Y-104728602D01*
X176794694Y-104669637D01*
X176891385Y-104590285D01*
X176970737Y-104493594D01*
X177029702Y-104383280D01*
X177066012Y-104263582D01*
X177078272Y-104139100D01*
X177078272Y-102439100D01*
X177066012Y-102314618D01*
X177029702Y-102194920D01*
X176970737Y-102084606D01*
X176891385Y-101987915D01*
X176794694Y-101908563D01*
X176684380Y-101849598D01*
X176603734Y-101825134D01*
X176687788Y-101749369D01*
X176861841Y-101516020D01*
X176987025Y-101253199D01*
X177031676Y-101105990D01*
X176910355Y-100876100D01*
X175717200Y-100876100D01*
X175717200Y-100896100D01*
X175463200Y-100896100D01*
X175463200Y-100876100D01*
X174270045Y-100876100D01*
X174148724Y-101105990D01*
X174193375Y-101253199D01*
X174318559Y-101516020D01*
X174492612Y-101749369D01*
X174576666Y-101825134D01*
X174496020Y-101849598D01*
X174385706Y-101908563D01*
X174289015Y-101987915D01*
X174209663Y-102084606D01*
X174150698Y-102194920D01*
X174114388Y-102314618D01*
X174102128Y-102439100D01*
X174102128Y-102504100D01*
X166517358Y-102504100D01*
X165855600Y-101842343D01*
X165855600Y-101815561D01*
X165815826Y-101615602D01*
X165808204Y-101597200D01*
X169948400Y-101597200D01*
X170108844Y-101704405D01*
X170297202Y-101782426D01*
X170497161Y-101822200D01*
X170701039Y-101822200D01*
X170900998Y-101782426D01*
X171089356Y-101704405D01*
X171258874Y-101591137D01*
X171403037Y-101446974D01*
X171516305Y-101277456D01*
X171594326Y-101089098D01*
X171634100Y-100889139D01*
X171634100Y-100685261D01*
X171594326Y-100485302D01*
X171555766Y-100392210D01*
X174148724Y-100392210D01*
X174270045Y-100622100D01*
X175463200Y-100622100D01*
X175463200Y-99428286D01*
X175717200Y-99428286D01*
X175717200Y-100622100D01*
X176910355Y-100622100D01*
X177031676Y-100392210D01*
X176987025Y-100245001D01*
X176861841Y-99982180D01*
X176687788Y-99748831D01*
X176471555Y-99553922D01*
X176221452Y-99404943D01*
X175947091Y-99307619D01*
X175717200Y-99428286D01*
X175463200Y-99428286D01*
X175233309Y-99307619D01*
X174958948Y-99404943D01*
X174708845Y-99553922D01*
X174492612Y-99748831D01*
X174318559Y-99982180D01*
X174193375Y-100245001D01*
X174148724Y-100392210D01*
X171555766Y-100392210D01*
X171516305Y-100296944D01*
X171403037Y-100127426D01*
X171258874Y-99983263D01*
X171089356Y-99869995D01*
X170900998Y-99791974D01*
X170701039Y-99752200D01*
X170497161Y-99752200D01*
X170297202Y-99791974D01*
X170108844Y-99869995D01*
X169948400Y-99977200D01*
X157952900Y-99977200D01*
X157792456Y-99869995D01*
X157604098Y-99791974D01*
X157404139Y-99752200D01*
X157200261Y-99752200D01*
X157000302Y-99791974D01*
X156811944Y-99869995D01*
X156642426Y-99983263D01*
X156498263Y-100127426D01*
X156384995Y-100296944D01*
X156306974Y-100485302D01*
X156269329Y-100674558D01*
X154655288Y-102288600D01*
X149417672Y-102288600D01*
X149417672Y-102248600D01*
X149405412Y-102124118D01*
X149369102Y-102004420D01*
X149310137Y-101894106D01*
X149230785Y-101797415D01*
X149134094Y-101718063D01*
X149023780Y-101659098D01*
X148943134Y-101634634D01*
X149027188Y-101558869D01*
X149201241Y-101325520D01*
X149326425Y-101062699D01*
X149371076Y-100915490D01*
X149249755Y-100685600D01*
X148056600Y-100685600D01*
X148056600Y-100705600D01*
X147802600Y-100705600D01*
X147802600Y-100685600D01*
X146609445Y-100685600D01*
X146488124Y-100915490D01*
X146532775Y-101062699D01*
X146657959Y-101325520D01*
X146832012Y-101558869D01*
X146916066Y-101634634D01*
X146835420Y-101659098D01*
X146725106Y-101718063D01*
X146628415Y-101797415D01*
X146549063Y-101894106D01*
X146490098Y-102004420D01*
X146453788Y-102124118D01*
X146441528Y-102248600D01*
X146441528Y-103948600D01*
X146453788Y-104073082D01*
X146490098Y-104192780D01*
X146549063Y-104303094D01*
X146628415Y-104399785D01*
X146725106Y-104479137D01*
X146835420Y-104538102D01*
X146955118Y-104574412D01*
X147079600Y-104586672D01*
X148779600Y-104586672D01*
X148904082Y-104574412D01*
X149023780Y-104538102D01*
X149134094Y-104479137D01*
X149230785Y-104399785D01*
X149310137Y-104303094D01*
X149369102Y-104192780D01*
X149405412Y-104073082D01*
X149417672Y-103948600D01*
X149417672Y-103908600D01*
X154951012Y-103908600D01*
X154990800Y-103912519D01*
X155030588Y-103908600D01*
X155030591Y-103908600D01*
X155149588Y-103896880D01*
X155302273Y-103850563D01*
X155442989Y-103775349D01*
X155566328Y-103674128D01*
X155591699Y-103643213D01*
X157066426Y-102168487D01*
X157068974Y-102181298D01*
X157146995Y-102369656D01*
X157260263Y-102539174D01*
X157404426Y-102683337D01*
X157573944Y-102796605D01*
X157762302Y-102874626D01*
X157962261Y-102914400D01*
X158166139Y-102914400D01*
X158366098Y-102874626D01*
X158554456Y-102796605D01*
X158723974Y-102683337D01*
X158729811Y-102677500D01*
X164116889Y-102677500D01*
X164160826Y-102721437D01*
X164330344Y-102834705D01*
X164518702Y-102912726D01*
X164718661Y-102952500D01*
X164745443Y-102952500D01*
X165609858Y-103816916D01*
X165634436Y-103846864D01*
X165664384Y-103871442D01*
X165664387Y-103871445D01*
X165671351Y-103877160D01*
X165732698Y-103927507D01*
X165569864Y-103994955D01*
X165557200Y-104003417D01*
X165544536Y-103994955D01*
X165356178Y-103916934D01*
X165156219Y-103877160D01*
X164952341Y-103877160D01*
X164752382Y-103916934D01*
X164564024Y-103994955D01*
X164524733Y-104021208D01*
X164523456Y-104020355D01*
X164335098Y-103942334D01*
X164135139Y-103902560D01*
X163931261Y-103902560D01*
X163731302Y-103942334D01*
X163542944Y-104020355D01*
X163373426Y-104133623D01*
X163229263Y-104277786D01*
X163115995Y-104447304D01*
X163037974Y-104635662D01*
X162998200Y-104835621D01*
X162998200Y-105039499D01*
X163037974Y-105239458D01*
X163115995Y-105427816D01*
X163229263Y-105597334D01*
X163273200Y-105641271D01*
X163273201Y-106095957D01*
X160530083Y-108839076D01*
X160501079Y-108862879D01*
X160445951Y-108930054D01*
X160406106Y-108978604D01*
X160335535Y-109110633D01*
X160335534Y-109110634D01*
X160292077Y-109253895D01*
X160281080Y-109365548D01*
X160281080Y-109365558D01*
X160277404Y-109402880D01*
X160281080Y-109440203D01*
X160281081Y-113423568D01*
X160237143Y-113467506D01*
X160123875Y-113637024D01*
X160050610Y-113813900D01*
X160049885Y-113806536D01*
X160007857Y-113667987D01*
X159939607Y-113540301D01*
X159870773Y-113456427D01*
X159870770Y-113456424D01*
X159847757Y-113428383D01*
X159819717Y-113405371D01*
X159224477Y-112810132D01*
X159201457Y-112782082D01*
X159089539Y-112690233D01*
X158961852Y-112621983D01*
X158823304Y-112579955D01*
X158715324Y-112569320D01*
X158679219Y-112565764D01*
X158643114Y-112569320D01*
X157591407Y-112569320D01*
X157417720Y-112395633D01*
X157417720Y-112298141D01*
X157377946Y-112098182D01*
X157299925Y-111909824D01*
X157186657Y-111740306D01*
X157042494Y-111596143D01*
X156872976Y-111482875D01*
X156684618Y-111404854D01*
X156484659Y-111365080D01*
X156280781Y-111365080D01*
X156080822Y-111404854D01*
X155892464Y-111482875D01*
X155869623Y-111498137D01*
X155831576Y-111472715D01*
X155643218Y-111394694D01*
X155443259Y-111354920D01*
X155239381Y-111354920D01*
X155039422Y-111394694D01*
X154851064Y-111472715D01*
X154681546Y-111585983D01*
X154537383Y-111730146D01*
X154424115Y-111899664D01*
X154346094Y-112088022D01*
X154333803Y-112149812D01*
X154206805Y-112064955D01*
X153950202Y-111958666D01*
X153777194Y-111924252D01*
X153862683Y-111738796D01*
X153921948Y-111491899D01*
X153931908Y-111238184D01*
X153892179Y-110987401D01*
X153804288Y-110749187D01*
X153756388Y-110659573D01*
X153527307Y-110605698D01*
X152818525Y-111314480D01*
X152832668Y-111328623D01*
X152653063Y-111508228D01*
X152638920Y-111494085D01*
X151930138Y-112202867D01*
X151984013Y-112431948D01*
X152214604Y-112538243D01*
X152341449Y-112568691D01*
X152289395Y-112646595D01*
X152183106Y-112903198D01*
X152128920Y-113175607D01*
X152128920Y-113453353D01*
X152183106Y-113725762D01*
X152289395Y-113982365D01*
X152339190Y-114056888D01*
X152311841Y-114061221D01*
X152073627Y-114149112D01*
X151984013Y-114197012D01*
X151930138Y-114426093D01*
X152638920Y-115134875D01*
X152653063Y-115120733D01*
X152832668Y-115300338D01*
X152818525Y-115314480D01*
X153527307Y-116023262D01*
X153756388Y-115969387D01*
X153862683Y-115738796D01*
X153921948Y-115491899D01*
X153931908Y-115238184D01*
X153892179Y-114987401D01*
X153804288Y-114749187D01*
X153780194Y-114704111D01*
X153950202Y-114670294D01*
X154206805Y-114564005D01*
X154437742Y-114409698D01*
X154634138Y-114213302D01*
X154788445Y-113982365D01*
X154894734Y-113725762D01*
X154948920Y-113453353D01*
X154948920Y-113347659D01*
X155039422Y-113385146D01*
X155239381Y-113424920D01*
X155336874Y-113424920D01*
X156238786Y-114326833D01*
X156261802Y-114354878D01*
X156373720Y-114446727D01*
X156501407Y-114514977D01*
X156597926Y-114544256D01*
X156639954Y-114557005D01*
X156654172Y-114558405D01*
X156747935Y-114567640D01*
X156747942Y-114567640D01*
X156784039Y-114571195D01*
X156820136Y-114567640D01*
X158140521Y-114567640D01*
X158140520Y-118319495D01*
X158136964Y-118355600D01*
X158140520Y-118391704D01*
X158151155Y-118499684D01*
X158193183Y-118638232D01*
X158261433Y-118765919D01*
X158353282Y-118877837D01*
X158381328Y-118900854D01*
X160346746Y-120866273D01*
X160369762Y-120894318D01*
X160481680Y-120986167D01*
X160609367Y-121054417D01*
X160747915Y-121096445D01*
X160855895Y-121107080D01*
X160855904Y-121107080D01*
X160891999Y-121110635D01*
X160928094Y-121107080D01*
X174646535Y-121107080D01*
X174682640Y-121110636D01*
X174718745Y-121107080D01*
X174826725Y-121096445D01*
X174965273Y-121054417D01*
X175092960Y-120986167D01*
X175204878Y-120894318D01*
X175227899Y-120866267D01*
X178082374Y-118011792D01*
X185623400Y-118011792D01*
X185623400Y-118452048D01*
X185709290Y-118883845D01*
X185877769Y-119290589D01*
X186122362Y-119656649D01*
X186433671Y-119967958D01*
X186799731Y-120212551D01*
X187206475Y-120381030D01*
X187638272Y-120466920D01*
X188078528Y-120466920D01*
X188510325Y-120381030D01*
X188917069Y-120212551D01*
X189283129Y-119967958D01*
X189594438Y-119656649D01*
X189839031Y-119290589D01*
X190007510Y-118883845D01*
X190093400Y-118452048D01*
X190093400Y-118011792D01*
X190007510Y-117579995D01*
X189839031Y-117173251D01*
X189594438Y-116807191D01*
X189283129Y-116495882D01*
X188917069Y-116251289D01*
X188510325Y-116082810D01*
X188078528Y-115996920D01*
X187638272Y-115996920D01*
X187206475Y-116082810D01*
X186799731Y-116251289D01*
X186433671Y-116495882D01*
X186122362Y-116807191D01*
X185877769Y-117173251D01*
X185709290Y-117579995D01*
X185623400Y-118011792D01*
X178082374Y-118011792D01*
X179319293Y-116774874D01*
X179347338Y-116751858D01*
X179439187Y-116639940D01*
X179507437Y-116512253D01*
X179549465Y-116373705D01*
X179560100Y-116265725D01*
X179560100Y-116265718D01*
X179563655Y-116229621D01*
X179560100Y-116193524D01*
X179560100Y-89482512D01*
X185608160Y-89482512D01*
X185608160Y-89922768D01*
X185694050Y-90354565D01*
X185862529Y-90761309D01*
X186107122Y-91127369D01*
X186418431Y-91438678D01*
X186784491Y-91683271D01*
X187191235Y-91851750D01*
X187623032Y-91937640D01*
X188063288Y-91937640D01*
X188495085Y-91851750D01*
X188901829Y-91683271D01*
X189267889Y-91438678D01*
X189579198Y-91127369D01*
X189823791Y-90761309D01*
X189992270Y-90354565D01*
X190078160Y-89922768D01*
X190078160Y-89482512D01*
X189992270Y-89050715D01*
X189823791Y-88643971D01*
X189579198Y-88277911D01*
X189267889Y-87966602D01*
X188901829Y-87722009D01*
X188495085Y-87553530D01*
X188063288Y-87467640D01*
X187623032Y-87467640D01*
X187191235Y-87553530D01*
X186784491Y-87722009D01*
X186418431Y-87966602D01*
X186107122Y-88277911D01*
X185862529Y-88643971D01*
X185694050Y-89050715D01*
X185608160Y-89482512D01*
X179560100Y-89482512D01*
X179560100Y-87676846D01*
X179646647Y-87590300D01*
X182475595Y-87590300D01*
X182511700Y-87593856D01*
X182547805Y-87590300D01*
X182655785Y-87579665D01*
X182794333Y-87537637D01*
X182922020Y-87469387D01*
X183033938Y-87377538D01*
X183056959Y-87349487D01*
X183374187Y-87032259D01*
X183402238Y-87009238D01*
X183494087Y-86897320D01*
X183562337Y-86769633D01*
X183604365Y-86631085D01*
X183615000Y-86523105D01*
X183618556Y-86487000D01*
X183615000Y-86450895D01*
X183615000Y-84546972D01*
X184035700Y-84546972D01*
X184160182Y-84534712D01*
X184279880Y-84498402D01*
X184390194Y-84439437D01*
X184486885Y-84360085D01*
X184566237Y-84263394D01*
X184625202Y-84153080D01*
X184661512Y-84033382D01*
X184673772Y-83908900D01*
X185429628Y-83908900D01*
X185441888Y-84033382D01*
X185478198Y-84153080D01*
X185537163Y-84263394D01*
X185616515Y-84360085D01*
X185713206Y-84439437D01*
X185823520Y-84498402D01*
X185943218Y-84534712D01*
X186067700Y-84546972D01*
X186988450Y-84543900D01*
X187147200Y-84385150D01*
X187147200Y-81495900D01*
X187401200Y-81495900D01*
X187401200Y-84385150D01*
X187559950Y-84543900D01*
X188480700Y-84546972D01*
X188605182Y-84534712D01*
X188724880Y-84498402D01*
X188835194Y-84439437D01*
X188931885Y-84360085D01*
X189011237Y-84263394D01*
X189070202Y-84153080D01*
X189106512Y-84033382D01*
X189118772Y-83908900D01*
X189115700Y-81654650D01*
X188956950Y-81495900D01*
X187401200Y-81495900D01*
X187147200Y-81495900D01*
X185591450Y-81495900D01*
X185432700Y-81654650D01*
X185429628Y-83908900D01*
X184673772Y-83908900D01*
X184673772Y-79181203D01*
X185430109Y-79181527D01*
X185432700Y-81083150D01*
X185591450Y-81241900D01*
X187147200Y-81241900D01*
X187147200Y-81221900D01*
X187401200Y-81221900D01*
X187401200Y-81241900D01*
X188956950Y-81241900D01*
X189115700Y-81083150D01*
X189118289Y-79183105D01*
X190779800Y-79183817D01*
X190779801Y-121209200D01*
X132760614Y-121209200D01*
X132760964Y-118077832D01*
X133350200Y-118077832D01*
X133350200Y-118518088D01*
X133436090Y-118949885D01*
X133604569Y-119356629D01*
X133849162Y-119722689D01*
X134160471Y-120033998D01*
X134526531Y-120278591D01*
X134933275Y-120447070D01*
X135365072Y-120532960D01*
X135805328Y-120532960D01*
X136237125Y-120447070D01*
X136643869Y-120278591D01*
X137009929Y-120033998D01*
X137321238Y-119722689D01*
X137565831Y-119356629D01*
X137734310Y-118949885D01*
X137820200Y-118518088D01*
X137820200Y-118077832D01*
X137734310Y-117646035D01*
X137565831Y-117239291D01*
X137321238Y-116873231D01*
X137009929Y-116561922D01*
X136643869Y-116317329D01*
X136237125Y-116148850D01*
X135805328Y-116062960D01*
X135365072Y-116062960D01*
X134933275Y-116148850D01*
X134526531Y-116317329D01*
X134160471Y-116561922D01*
X133849162Y-116873231D01*
X133604569Y-117239291D01*
X133436090Y-117646035D01*
X133350200Y-118077832D01*
X132760964Y-118077832D01*
X132764168Y-89482512D01*
X133411160Y-89482512D01*
X133411160Y-89922768D01*
X133497050Y-90354565D01*
X133665529Y-90761309D01*
X133910122Y-91127369D01*
X134221431Y-91438678D01*
X134587491Y-91683271D01*
X134994235Y-91851750D01*
X135426032Y-91937640D01*
X135866288Y-91937640D01*
X136298085Y-91851750D01*
X136704829Y-91683271D01*
X137070889Y-91438678D01*
X137382198Y-91127369D01*
X137626791Y-90761309D01*
X137795270Y-90354565D01*
X137881160Y-89922768D01*
X137881160Y-89482512D01*
X137795270Y-89050715D01*
X137626791Y-88643971D01*
X137382198Y-88277911D01*
X137070889Y-87966602D01*
X136704829Y-87722009D01*
X136298085Y-87553530D01*
X135866288Y-87467640D01*
X135426032Y-87467640D01*
X134994235Y-87553530D01*
X134587491Y-87722009D01*
X134221431Y-87966602D01*
X133910122Y-88277911D01*
X133665529Y-88643971D01*
X133497050Y-89050715D01*
X133411160Y-89482512D01*
X132764168Y-89482512D01*
X132764786Y-83959700D01*
X134731228Y-83959700D01*
X134743488Y-84084182D01*
X134779798Y-84203880D01*
X134838763Y-84314194D01*
X134918115Y-84410885D01*
X135014806Y-84490237D01*
X135125120Y-84549202D01*
X135244818Y-84585512D01*
X135369300Y-84597772D01*
X136290050Y-84594700D01*
X136448800Y-84435950D01*
X136448800Y-81546700D01*
X136702800Y-81546700D01*
X136702800Y-84435950D01*
X136861550Y-84594700D01*
X137782300Y-84597772D01*
X137906782Y-84585512D01*
X138026480Y-84549202D01*
X138136794Y-84490237D01*
X138233485Y-84410885D01*
X138312837Y-84314194D01*
X138371802Y-84203880D01*
X138408112Y-84084182D01*
X138420372Y-83959700D01*
X138417300Y-81705450D01*
X138258550Y-81546700D01*
X136702800Y-81546700D01*
X136448800Y-81546700D01*
X134893050Y-81546700D01*
X134734300Y-81705450D01*
X134731228Y-83959700D01*
X132764786Y-83959700D01*
X132765325Y-79158982D01*
X134731610Y-79159824D01*
%TA.AperFunction,Conductor*%
D21*
G36*
X134731610Y-79159824D02*
G01*
X134734300Y-81133950D01*
X134893050Y-81292700D01*
X136448800Y-81292700D01*
X136448800Y-81272700D01*
X136702800Y-81272700D01*
X136702800Y-81292700D01*
X138258550Y-81292700D01*
X138417300Y-81133950D01*
X138419988Y-79161403D01*
X139176228Y-79161727D01*
X139176228Y-83959700D01*
X139188488Y-84084182D01*
X139224798Y-84203880D01*
X139283763Y-84314194D01*
X139363115Y-84410885D01*
X139459806Y-84490237D01*
X139570120Y-84549202D01*
X139689818Y-84585512D01*
X139814300Y-84597772D01*
X140235001Y-84597772D01*
X140235001Y-85765085D01*
X140231444Y-85801200D01*
X140245635Y-85945285D01*
X140285494Y-86076680D01*
X140287664Y-86083833D01*
X140355914Y-86211520D01*
X140447763Y-86323438D01*
X140475808Y-86346454D01*
X141034346Y-86904993D01*
X141057362Y-86933038D01*
X141150212Y-87009238D01*
X141169280Y-87024887D01*
X141296966Y-87093137D01*
X141435515Y-87135165D01*
X141579600Y-87149356D01*
X141615705Y-87145800D01*
X143832700Y-87145800D01*
X143832701Y-117768305D01*
X143829144Y-117804420D01*
X143843335Y-117948505D01*
X143875209Y-118053576D01*
X143885364Y-118087053D01*
X143953614Y-118214740D01*
X144045463Y-118326658D01*
X144073508Y-118349674D01*
X146569786Y-120845953D01*
X146592802Y-120873998D01*
X146704720Y-120965847D01*
X146832407Y-121034097D01*
X146970955Y-121076125D01*
X147115040Y-121090316D01*
X147151145Y-121086760D01*
X155379935Y-121086760D01*
X155416040Y-121090316D01*
X155452145Y-121086760D01*
X155560125Y-121076125D01*
X155698673Y-121034097D01*
X155826360Y-120965847D01*
X155938278Y-120873998D01*
X155961298Y-120845948D01*
X157262993Y-119544254D01*
X157291038Y-119521238D01*
X157382887Y-119409320D01*
X157411051Y-119356629D01*
X157451137Y-119281634D01*
X157493165Y-119143085D01*
X157507356Y-118999000D01*
X157503800Y-118962895D01*
X157503800Y-118818391D01*
X157572737Y-118749454D01*
X157686005Y-118579936D01*
X157764026Y-118391578D01*
X157803800Y-118191619D01*
X157803800Y-117987741D01*
X157764026Y-117787782D01*
X157686005Y-117599424D01*
X157572737Y-117429906D01*
X157428574Y-117285743D01*
X157259056Y-117172475D01*
X157070698Y-117094454D01*
X156870739Y-117054680D01*
X156666861Y-117054680D01*
X156466902Y-117094454D01*
X156278544Y-117172475D01*
X156236713Y-117200425D01*
X156232896Y-117197875D01*
X156044538Y-117119854D01*
X155844579Y-117080080D01*
X155640701Y-117080080D01*
X155440742Y-117119854D01*
X155252384Y-117197875D01*
X155082866Y-117311143D01*
X154938703Y-117455306D01*
X154825435Y-117624824D01*
X154747414Y-117813182D01*
X154707640Y-118013141D01*
X154707640Y-118217019D01*
X154747414Y-118416978D01*
X154825435Y-118605336D01*
X154938703Y-118774854D01*
X155007641Y-118843792D01*
X155007641Y-119065393D01*
X154906274Y-119166760D01*
X147605887Y-119166760D01*
X146671994Y-118232867D01*
X151930138Y-118232867D01*
X151984013Y-118461948D01*
X152214604Y-118568243D01*
X152461501Y-118627508D01*
X152715216Y-118637468D01*
X152965999Y-118597739D01*
X153204213Y-118509848D01*
X153293827Y-118461948D01*
X153347702Y-118232867D01*
X152638920Y-117524085D01*
X151930138Y-118232867D01*
X146671994Y-118232867D01*
X145859903Y-117420776D01*
X151345932Y-117420776D01*
X151385661Y-117671559D01*
X151473552Y-117909773D01*
X151521452Y-117999387D01*
X151750533Y-118053262D01*
X152459315Y-117344480D01*
X152818525Y-117344480D01*
X153527307Y-118053262D01*
X153756388Y-117999387D01*
X153862683Y-117768796D01*
X153921948Y-117521899D01*
X153931908Y-117268184D01*
X153892179Y-117017401D01*
X153804288Y-116779187D01*
X153756388Y-116689573D01*
X153527307Y-116635698D01*
X152818525Y-117344480D01*
X152459315Y-117344480D01*
X151750533Y-116635698D01*
X151521452Y-116689573D01*
X151415157Y-116920164D01*
X151355892Y-117167061D01*
X151345932Y-117420776D01*
X145859903Y-117420776D01*
X145752700Y-117313574D01*
X145752700Y-116202867D01*
X151930138Y-116202867D01*
X151959915Y-116329480D01*
X151930138Y-116456093D01*
X152638920Y-117164875D01*
X153347702Y-116456093D01*
X153317925Y-116329480D01*
X153347702Y-116202867D01*
X152638920Y-115494085D01*
X151930138Y-116202867D01*
X145752700Y-116202867D01*
X145752700Y-115390776D01*
X151345932Y-115390776D01*
X151385661Y-115641559D01*
X151473552Y-115879773D01*
X151521452Y-115969387D01*
X151750533Y-116023262D01*
X152459315Y-115314480D01*
X151750533Y-114605698D01*
X151521452Y-114659573D01*
X151415157Y-114890164D01*
X151355892Y-115137061D01*
X151345932Y-115390776D01*
X145752700Y-115390776D01*
X145752700Y-111390776D01*
X151345932Y-111390776D01*
X151385661Y-111641559D01*
X151473552Y-111879773D01*
X151521452Y-111969387D01*
X151750533Y-112023262D01*
X152459315Y-111314480D01*
X151750533Y-110605698D01*
X151521452Y-110659573D01*
X151415157Y-110890164D01*
X151355892Y-111137061D01*
X151345932Y-111390776D01*
X145752700Y-111390776D01*
X145752700Y-110426093D01*
X151930138Y-110426093D01*
X152638920Y-111134875D01*
X153347702Y-110426093D01*
X153293827Y-110197012D01*
X153063236Y-110090717D01*
X152816339Y-110031452D01*
X152562624Y-110021492D01*
X152311841Y-110061221D01*
X152073627Y-110149112D01*
X151984013Y-110197012D01*
X151930138Y-110426093D01*
X145752700Y-110426093D01*
X145752700Y-108962867D01*
X151930138Y-108962867D01*
X151984013Y-109191948D01*
X152214604Y-109298243D01*
X152461501Y-109357508D01*
X152715216Y-109367468D01*
X152965999Y-109327739D01*
X153204213Y-109239848D01*
X153293827Y-109191948D01*
X153347702Y-108962867D01*
X152638920Y-108254085D01*
X151930138Y-108962867D01*
X145752700Y-108962867D01*
X145752700Y-108150776D01*
X151345932Y-108150776D01*
X151385661Y-108401559D01*
X151473552Y-108639773D01*
X151521452Y-108729387D01*
X151750533Y-108783262D01*
X152459315Y-108074480D01*
X152818525Y-108074480D01*
X153527307Y-108783262D01*
X153756388Y-108729387D01*
X153862683Y-108498796D01*
X153921948Y-108251899D01*
X153931908Y-107998184D01*
X153892179Y-107747401D01*
X153804288Y-107509187D01*
X153756388Y-107419573D01*
X153527307Y-107365698D01*
X152818525Y-108074480D01*
X152459315Y-108074480D01*
X151750533Y-107365698D01*
X151521452Y-107419573D01*
X151415157Y-107650164D01*
X151355892Y-107897061D01*
X151345932Y-108150776D01*
X145752700Y-108150776D01*
X145752700Y-107186093D01*
X151930138Y-107186093D01*
X152638920Y-107894875D01*
X153347702Y-107186093D01*
X153293827Y-106957012D01*
X153063236Y-106850717D01*
X152816339Y-106791452D01*
X152562624Y-106781492D01*
X152311841Y-106821221D01*
X152073627Y-106909112D01*
X151984013Y-106957012D01*
X151930138Y-107186093D01*
X145752700Y-107186093D01*
X145752700Y-100201710D01*
X146488124Y-100201710D01*
X146609445Y-100431600D01*
X147802600Y-100431600D01*
X147802600Y-99237786D01*
X148056600Y-99237786D01*
X148056600Y-100431600D01*
X149249755Y-100431600D01*
X149371076Y-100201710D01*
X149326425Y-100054501D01*
X149201241Y-99791680D01*
X149027188Y-99558331D01*
X148810955Y-99363422D01*
X148560852Y-99214443D01*
X148286491Y-99117119D01*
X148056600Y-99237786D01*
X147802600Y-99237786D01*
X147572709Y-99117119D01*
X147298348Y-99214443D01*
X147048245Y-99363422D01*
X146832012Y-99558331D01*
X146657959Y-99791680D01*
X146532775Y-100054501D01*
X146488124Y-100201710D01*
X145752700Y-100201710D01*
X145752700Y-96000200D01*
X146492328Y-96000200D01*
X146492328Y-97700200D01*
X146504588Y-97824682D01*
X146540898Y-97944380D01*
X146599863Y-98054694D01*
X146679215Y-98151385D01*
X146775906Y-98230737D01*
X146886220Y-98289702D01*
X147005918Y-98326012D01*
X147130400Y-98338272D01*
X148830400Y-98338272D01*
X148954882Y-98326012D01*
X149074580Y-98289702D01*
X149184894Y-98230737D01*
X149281585Y-98151385D01*
X149360937Y-98054694D01*
X149419902Y-97944380D01*
X149456212Y-97824682D01*
X149468472Y-97700200D01*
X149468472Y-96266900D01*
X174064028Y-96266900D01*
X174064028Y-97966900D01*
X174076288Y-98091382D01*
X174112598Y-98211080D01*
X174171563Y-98321394D01*
X174250915Y-98418085D01*
X174347606Y-98497437D01*
X174457920Y-98556402D01*
X174577618Y-98592712D01*
X174702100Y-98604972D01*
X176402100Y-98604972D01*
X176526582Y-98592712D01*
X176646280Y-98556402D01*
X176756594Y-98497437D01*
X176853285Y-98418085D01*
X176932637Y-98321394D01*
X176991602Y-98211080D01*
X177027912Y-98091382D01*
X177040172Y-97966900D01*
X177040172Y-96266900D01*
X177027912Y-96142418D01*
X176991602Y-96022720D01*
X176932637Y-95912406D01*
X176853285Y-95815715D01*
X176756594Y-95736363D01*
X176646280Y-95677398D01*
X176573720Y-95655387D01*
X176705575Y-95523532D01*
X176868090Y-95280311D01*
X176980032Y-95010058D01*
X177037100Y-94723160D01*
X177037100Y-94430640D01*
X176980032Y-94143742D01*
X176868090Y-93873489D01*
X176705575Y-93630268D01*
X176498732Y-93423425D01*
X176324340Y-93306900D01*
X176498732Y-93190375D01*
X176705575Y-92983532D01*
X176868090Y-92740311D01*
X176980032Y-92470058D01*
X177037100Y-92183160D01*
X177037100Y-91890640D01*
X176980032Y-91603742D01*
X176868090Y-91333489D01*
X176705575Y-91090268D01*
X176498732Y-90883425D01*
X176324340Y-90766900D01*
X176498732Y-90650375D01*
X176705575Y-90443532D01*
X176868090Y-90200311D01*
X176980032Y-89930058D01*
X177037100Y-89643160D01*
X177037100Y-89350640D01*
X176980032Y-89063742D01*
X176868090Y-88793489D01*
X176705575Y-88550268D01*
X176498732Y-88343425D01*
X176255511Y-88180910D01*
X175985258Y-88068968D01*
X175698360Y-88011900D01*
X175405840Y-88011900D01*
X175118942Y-88068968D01*
X174848689Y-88180910D01*
X174605468Y-88343425D01*
X174398625Y-88550268D01*
X174236110Y-88793489D01*
X174124168Y-89063742D01*
X174067100Y-89350640D01*
X174067100Y-89643160D01*
X174124168Y-89930058D01*
X174236110Y-90200311D01*
X174398625Y-90443532D01*
X174605468Y-90650375D01*
X174779860Y-90766900D01*
X174605468Y-90883425D01*
X174398625Y-91090268D01*
X174236110Y-91333489D01*
X174124168Y-91603742D01*
X174067100Y-91890640D01*
X174067100Y-92183160D01*
X174124168Y-92470058D01*
X174236110Y-92740311D01*
X174398625Y-92983532D01*
X174605468Y-93190375D01*
X174779860Y-93306900D01*
X174605468Y-93423425D01*
X174398625Y-93630268D01*
X174236110Y-93873489D01*
X174124168Y-94143742D01*
X174067100Y-94430640D01*
X174067100Y-94723160D01*
X174124168Y-95010058D01*
X174236110Y-95280311D01*
X174398625Y-95523532D01*
X174530480Y-95655387D01*
X174457920Y-95677398D01*
X174347606Y-95736363D01*
X174250915Y-95815715D01*
X174171563Y-95912406D01*
X174112598Y-96022720D01*
X174076288Y-96142418D01*
X174064028Y-96266900D01*
X149468472Y-96266900D01*
X149468472Y-96000200D01*
X149456212Y-95875718D01*
X149419902Y-95756020D01*
X149360937Y-95645706D01*
X149281585Y-95549015D01*
X149184894Y-95469663D01*
X149074580Y-95410698D01*
X149002020Y-95388687D01*
X149133875Y-95256832D01*
X149296390Y-95013611D01*
X149408332Y-94743358D01*
X149465400Y-94456460D01*
X149465400Y-94163940D01*
X149408332Y-93877042D01*
X149296390Y-93606789D01*
X149133875Y-93363568D01*
X148927032Y-93156725D01*
X148752640Y-93040200D01*
X148927032Y-92923675D01*
X149133875Y-92716832D01*
X149296390Y-92473611D01*
X149408332Y-92203358D01*
X149465400Y-91916460D01*
X149465400Y-91623940D01*
X149408332Y-91337042D01*
X149296390Y-91066789D01*
X149133875Y-90823568D01*
X148927032Y-90616725D01*
X148752640Y-90500200D01*
X148927032Y-90383675D01*
X149133875Y-90176832D01*
X149296390Y-89933611D01*
X149408332Y-89663358D01*
X149465400Y-89376460D01*
X149465400Y-89083940D01*
X149408332Y-88797042D01*
X149296390Y-88526789D01*
X149133875Y-88283568D01*
X148927032Y-88076725D01*
X148683811Y-87914210D01*
X148413558Y-87802268D01*
X148126660Y-87745200D01*
X147834140Y-87745200D01*
X147547242Y-87802268D01*
X147276989Y-87914210D01*
X147033768Y-88076725D01*
X146826925Y-88283568D01*
X146664410Y-88526789D01*
X146552468Y-88797042D01*
X146495400Y-89083940D01*
X146495400Y-89376460D01*
X146552468Y-89663358D01*
X146664410Y-89933611D01*
X146826925Y-90176832D01*
X147033768Y-90383675D01*
X147208160Y-90500200D01*
X147033768Y-90616725D01*
X146826925Y-90823568D01*
X146664410Y-91066789D01*
X146552468Y-91337042D01*
X146495400Y-91623940D01*
X146495400Y-91916460D01*
X146552468Y-92203358D01*
X146664410Y-92473611D01*
X146826925Y-92716832D01*
X147033768Y-92923675D01*
X147208160Y-93040200D01*
X147033768Y-93156725D01*
X146826925Y-93363568D01*
X146664410Y-93606789D01*
X146552468Y-93877042D01*
X146495400Y-94163940D01*
X146495400Y-94456460D01*
X146552468Y-94743358D01*
X146664410Y-95013611D01*
X146826925Y-95256832D01*
X146958780Y-95388687D01*
X146886220Y-95410698D01*
X146775906Y-95469663D01*
X146679215Y-95549015D01*
X146599863Y-95645706D01*
X146540898Y-95756020D01*
X146504588Y-95875718D01*
X146492328Y-96000200D01*
X145752700Y-96000200D01*
X145752700Y-87177550D01*
X150522101Y-87177550D01*
X150568264Y-87191553D01*
X150679917Y-87202550D01*
X153067528Y-87202550D01*
X153104850Y-87206226D01*
X153142172Y-87202550D01*
X153142183Y-87202550D01*
X153253836Y-87191553D01*
X153397097Y-87148096D01*
X153529126Y-87077524D01*
X153644851Y-86982551D01*
X153668653Y-86953548D01*
X155387509Y-85234694D01*
X155416501Y-85210901D01*
X155440295Y-85181908D01*
X155440299Y-85181904D01*
X155511473Y-85095177D01*
X155511474Y-85095176D01*
X155582046Y-84963147D01*
X155625503Y-84819886D01*
X155636500Y-84708233D01*
X155636500Y-84708224D01*
X155640176Y-84670901D01*
X155636500Y-84633578D01*
X155636500Y-84546972D01*
X156019500Y-84546972D01*
X156143982Y-84534712D01*
X156263680Y-84498402D01*
X156373994Y-84439437D01*
X156470685Y-84360085D01*
X156550037Y-84263394D01*
X156609002Y-84153080D01*
X156645312Y-84033382D01*
X156657572Y-83908900D01*
X157413428Y-83908900D01*
X157425688Y-84033382D01*
X157461998Y-84153080D01*
X157520963Y-84263394D01*
X157600315Y-84360085D01*
X157697006Y-84439437D01*
X157807320Y-84498402D01*
X157927018Y-84534712D01*
X158051500Y-84546972D01*
X158972250Y-84543900D01*
X159131000Y-84385150D01*
X159131000Y-81495900D01*
X159385000Y-81495900D01*
X159385000Y-84385150D01*
X159543750Y-84543900D01*
X160464500Y-84546972D01*
X160588982Y-84534712D01*
X160708680Y-84498402D01*
X160818994Y-84439437D01*
X160915685Y-84360085D01*
X160995037Y-84263394D01*
X161054002Y-84153080D01*
X161090312Y-84033382D01*
X161102572Y-83908900D01*
X162620428Y-83908900D01*
X162632688Y-84033382D01*
X162668998Y-84153080D01*
X162727963Y-84263394D01*
X162807315Y-84360085D01*
X162904006Y-84439437D01*
X163014320Y-84498402D01*
X163134018Y-84534712D01*
X163258500Y-84546972D01*
X164179250Y-84543900D01*
X164338000Y-84385150D01*
X164338000Y-81495900D01*
X164592000Y-81495900D01*
X164592000Y-84385150D01*
X164750750Y-84543900D01*
X165671500Y-84546972D01*
X165795982Y-84534712D01*
X165915680Y-84498402D01*
X166025994Y-84439437D01*
X166122685Y-84360085D01*
X166202037Y-84263394D01*
X166261002Y-84153080D01*
X166297312Y-84033382D01*
X166309572Y-83908900D01*
X166306500Y-81654650D01*
X166147750Y-81495900D01*
X164592000Y-81495900D01*
X164338000Y-81495900D01*
X162782250Y-81495900D01*
X162623500Y-81654650D01*
X162620428Y-83908900D01*
X161102572Y-83908900D01*
X161099500Y-81654650D01*
X160940750Y-81495900D01*
X159385000Y-81495900D01*
X159131000Y-81495900D01*
X157575250Y-81495900D01*
X157416500Y-81654650D01*
X157413428Y-83908900D01*
X156657572Y-83908900D01*
X156657572Y-79169210D01*
X157413892Y-79169534D01*
X157416500Y-81083150D01*
X157575250Y-81241900D01*
X159131000Y-81241900D01*
X159131000Y-81221900D01*
X159385000Y-81221900D01*
X159385000Y-81241900D01*
X160940750Y-81241900D01*
X161099500Y-81083150D01*
X161102106Y-79171113D01*
X162620895Y-79171763D01*
X162623500Y-81083150D01*
X162782250Y-81241900D01*
X164338000Y-81241900D01*
X164338000Y-81221900D01*
X164592000Y-81221900D01*
X164592000Y-81241900D01*
X166147750Y-81241900D01*
X166306500Y-81083150D01*
X166309103Y-79173342D01*
X167065428Y-79173665D01*
X167065428Y-83908900D01*
X167077688Y-84033382D01*
X167113998Y-84153080D01*
X167172963Y-84263394D01*
X167252315Y-84360085D01*
X167349006Y-84439437D01*
X167459320Y-84498402D01*
X167579018Y-84534712D01*
X167703500Y-84546972D01*
X168086500Y-84546972D01*
X168086500Y-85065377D01*
X168082824Y-85102700D01*
X168086500Y-85140022D01*
X168086500Y-85140032D01*
X168097497Y-85251685D01*
X168105772Y-85278963D01*
X168140954Y-85394946D01*
X168211526Y-85526976D01*
X168251371Y-85575526D01*
X168306499Y-85642701D01*
X168335503Y-85666504D01*
X170022601Y-87353603D01*
X170046399Y-87382601D01*
X170162124Y-87477574D01*
X170294153Y-87548146D01*
X170437414Y-87591603D01*
X170549067Y-87602600D01*
X170549076Y-87602600D01*
X170586399Y-87606276D01*
X170623722Y-87602600D01*
X173514253Y-87602600D01*
X173625906Y-87591603D01*
X173672069Y-87577600D01*
X177549954Y-87577600D01*
X177640101Y-87667748D01*
X177640100Y-115738773D01*
X174191794Y-119187080D01*
X161382847Y-119187080D01*
X160428634Y-118232867D01*
X169730138Y-118232867D01*
X169784013Y-118461948D01*
X170014604Y-118568243D01*
X170261501Y-118627508D01*
X170515216Y-118637468D01*
X170765999Y-118597739D01*
X171004213Y-118509848D01*
X171093827Y-118461948D01*
X171147702Y-118232867D01*
X170438920Y-117524085D01*
X169730138Y-118232867D01*
X160428634Y-118232867D01*
X160060520Y-117864754D01*
X160060520Y-117420776D01*
X169145932Y-117420776D01*
X169185661Y-117671559D01*
X169273552Y-117909773D01*
X169321452Y-117999387D01*
X169550533Y-118053262D01*
X170259315Y-117344480D01*
X170618525Y-117344480D01*
X171327307Y-118053262D01*
X171556388Y-117999387D01*
X171662683Y-117768796D01*
X171721948Y-117521899D01*
X171731908Y-117268184D01*
X171692179Y-117017401D01*
X171604288Y-116779187D01*
X171556388Y-116689573D01*
X171327307Y-116635698D01*
X170618525Y-117344480D01*
X170259315Y-117344480D01*
X169550533Y-116635698D01*
X169321452Y-116689573D01*
X169215157Y-116920164D01*
X169155892Y-117167061D01*
X169145932Y-117420776D01*
X160060520Y-117420776D01*
X160060520Y-116202867D01*
X169730138Y-116202867D01*
X169759915Y-116329480D01*
X169730138Y-116456093D01*
X170438920Y-117164875D01*
X171147702Y-116456093D01*
X171117925Y-116329480D01*
X171147702Y-116202867D01*
X170438920Y-115494085D01*
X169730138Y-116202867D01*
X160060520Y-116202867D01*
X160060520Y-114464585D01*
X160123875Y-114617536D01*
X160237143Y-114787054D01*
X160381306Y-114931217D01*
X160550824Y-115044485D01*
X160739182Y-115122506D01*
X160939141Y-115162280D01*
X161143019Y-115162280D01*
X161342978Y-115122506D01*
X161531336Y-115044485D01*
X161585919Y-115008014D01*
X161648104Y-115049565D01*
X161836462Y-115127586D01*
X162036421Y-115167360D01*
X162240299Y-115167360D01*
X162440258Y-115127586D01*
X162628616Y-115049565D01*
X162684460Y-115012251D01*
X162740304Y-115049565D01*
X162928662Y-115127586D01*
X163128621Y-115167360D01*
X163332499Y-115167360D01*
X163532458Y-115127586D01*
X163720816Y-115049565D01*
X163890334Y-114936297D01*
X164034497Y-114792134D01*
X164147765Y-114622616D01*
X164225786Y-114434258D01*
X164265560Y-114234299D01*
X164265560Y-114030421D01*
X164225786Y-113830462D01*
X164147765Y-113642104D01*
X164034497Y-113472586D01*
X163990560Y-113428649D01*
X163990560Y-113175607D01*
X168128920Y-113175607D01*
X168128920Y-113453353D01*
X168183106Y-113725762D01*
X168289395Y-113982365D01*
X168443702Y-114213302D01*
X168640098Y-114409698D01*
X168871035Y-114564005D01*
X169127638Y-114670294D01*
X169300646Y-114704708D01*
X169215157Y-114890164D01*
X169155892Y-115137061D01*
X169145932Y-115390776D01*
X169185661Y-115641559D01*
X169273552Y-115879773D01*
X169321452Y-115969387D01*
X169550533Y-116023262D01*
X170259315Y-115314480D01*
X170618525Y-115314480D01*
X171327307Y-116023262D01*
X171556388Y-115969387D01*
X171662683Y-115738796D01*
X171721948Y-115491899D01*
X171731908Y-115238184D01*
X171692179Y-114987401D01*
X171604288Y-114749187D01*
X171556388Y-114659573D01*
X171327307Y-114605698D01*
X170618525Y-115314480D01*
X170259315Y-115314480D01*
X170245173Y-115300338D01*
X170424778Y-115120733D01*
X170438920Y-115134875D01*
X171147702Y-114426093D01*
X171093827Y-114197012D01*
X170863236Y-114090717D01*
X170736391Y-114060269D01*
X170788445Y-113982365D01*
X170894734Y-113725762D01*
X170948920Y-113453353D01*
X170948920Y-113175607D01*
X170894734Y-112903198D01*
X170788445Y-112646595D01*
X170738650Y-112572072D01*
X170765999Y-112567739D01*
X171004213Y-112479848D01*
X171093827Y-112431948D01*
X171147702Y-112202867D01*
X170438920Y-111494085D01*
X170424778Y-111508228D01*
X170245173Y-111328623D01*
X170259315Y-111314480D01*
X170618525Y-111314480D01*
X171327307Y-112023262D01*
X171556388Y-111969387D01*
X171662683Y-111738796D01*
X171721948Y-111491899D01*
X171731908Y-111238184D01*
X171692179Y-110987401D01*
X171604288Y-110749187D01*
X171556388Y-110659573D01*
X171327307Y-110605698D01*
X170618525Y-111314480D01*
X170259315Y-111314480D01*
X169550533Y-110605698D01*
X169321452Y-110659573D01*
X169215157Y-110890164D01*
X169155892Y-111137061D01*
X169145932Y-111390776D01*
X169185661Y-111641559D01*
X169273552Y-111879773D01*
X169297646Y-111924849D01*
X169127638Y-111958666D01*
X168871035Y-112064955D01*
X168640098Y-112219262D01*
X168443702Y-112415658D01*
X168289395Y-112646595D01*
X168183106Y-112903198D01*
X168128920Y-113175607D01*
X163990560Y-113175607D01*
X163990560Y-110774321D01*
X164338788Y-110426093D01*
X169730138Y-110426093D01*
X170438920Y-111134875D01*
X171147702Y-110426093D01*
X171093827Y-110197012D01*
X170863236Y-110090717D01*
X170616339Y-110031452D01*
X170362624Y-110021492D01*
X170111841Y-110061221D01*
X169873627Y-110149112D01*
X169784013Y-110197012D01*
X169730138Y-110426093D01*
X164338788Y-110426093D01*
X166571123Y-108193759D01*
X166600121Y-108169961D01*
X166626452Y-108137877D01*
X166695094Y-108054237D01*
X166743932Y-107962867D01*
X169730138Y-107962867D01*
X169784013Y-108191948D01*
X170014604Y-108298243D01*
X170261501Y-108357508D01*
X170515216Y-108367468D01*
X170765999Y-108327739D01*
X171004213Y-108239848D01*
X171093827Y-108191948D01*
X171147702Y-107962867D01*
X170438920Y-107254085D01*
X169730138Y-107962867D01*
X166743932Y-107962867D01*
X166765666Y-107922207D01*
X166791997Y-107835403D01*
X166809123Y-107778946D01*
X166820120Y-107667293D01*
X166820120Y-107667284D01*
X166823796Y-107629961D01*
X166820120Y-107592638D01*
X166820120Y-107150776D01*
X169145932Y-107150776D01*
X169185661Y-107401559D01*
X169273552Y-107639773D01*
X169321452Y-107729387D01*
X169550533Y-107783262D01*
X170259315Y-107074480D01*
X170618525Y-107074480D01*
X171327307Y-107783262D01*
X171556388Y-107729387D01*
X171662683Y-107498796D01*
X171721948Y-107251899D01*
X171731908Y-106998184D01*
X171692179Y-106747401D01*
X171604288Y-106509187D01*
X171556388Y-106419573D01*
X171327307Y-106365698D01*
X170618525Y-107074480D01*
X170259315Y-107074480D01*
X169550533Y-106365698D01*
X169321452Y-106419573D01*
X169215157Y-106650164D01*
X169155892Y-106897061D01*
X169145932Y-107150776D01*
X166820120Y-107150776D01*
X166820120Y-106186093D01*
X169730138Y-106186093D01*
X170438920Y-106894875D01*
X171147702Y-106186093D01*
X171093827Y-105957012D01*
X170863236Y-105850717D01*
X170616339Y-105791452D01*
X170362624Y-105781492D01*
X170111841Y-105821221D01*
X169873627Y-105909112D01*
X169784013Y-105957012D01*
X169730138Y-106186093D01*
X166820120Y-106186093D01*
X166820120Y-105615871D01*
X166864057Y-105571934D01*
X166977325Y-105402416D01*
X167055346Y-105214058D01*
X167095120Y-105014099D01*
X167095120Y-104810221D01*
X167055346Y-104610262D01*
X166977325Y-104421904D01*
X166864057Y-104252386D01*
X166719894Y-104108223D01*
X166668825Y-104074100D01*
X174102128Y-104074100D01*
X174102128Y-104139100D01*
X174114388Y-104263582D01*
X174150698Y-104383280D01*
X174209663Y-104493594D01*
X174289015Y-104590285D01*
X174385706Y-104669637D01*
X174496020Y-104728602D01*
X174615718Y-104764912D01*
X174740200Y-104777172D01*
X176440200Y-104777172D01*
X176564682Y-104764912D01*
X176684380Y-104728602D01*
X176794694Y-104669637D01*
X176891385Y-104590285D01*
X176970737Y-104493594D01*
X177029702Y-104383280D01*
X177066012Y-104263582D01*
X177078272Y-104139100D01*
X177078272Y-102439100D01*
X177066012Y-102314618D01*
X177029702Y-102194920D01*
X176970737Y-102084606D01*
X176891385Y-101987915D01*
X176794694Y-101908563D01*
X176684380Y-101849598D01*
X176603734Y-101825134D01*
X176687788Y-101749369D01*
X176861841Y-101516020D01*
X176987025Y-101253199D01*
X177031676Y-101105990D01*
X176910355Y-100876100D01*
X175717200Y-100876100D01*
X175717200Y-100896100D01*
X175463200Y-100896100D01*
X175463200Y-100876100D01*
X174270045Y-100876100D01*
X174148724Y-101105990D01*
X174193375Y-101253199D01*
X174318559Y-101516020D01*
X174492612Y-101749369D01*
X174576666Y-101825134D01*
X174496020Y-101849598D01*
X174385706Y-101908563D01*
X174289015Y-101987915D01*
X174209663Y-102084606D01*
X174150698Y-102194920D01*
X174114388Y-102314618D01*
X174102128Y-102439100D01*
X174102128Y-102504100D01*
X166517358Y-102504100D01*
X165855600Y-101842343D01*
X165855600Y-101815561D01*
X165815826Y-101615602D01*
X165808204Y-101597200D01*
X169948400Y-101597200D01*
X170108844Y-101704405D01*
X170297202Y-101782426D01*
X170497161Y-101822200D01*
X170701039Y-101822200D01*
X170900998Y-101782426D01*
X171089356Y-101704405D01*
X171258874Y-101591137D01*
X171403037Y-101446974D01*
X171516305Y-101277456D01*
X171594326Y-101089098D01*
X171634100Y-100889139D01*
X171634100Y-100685261D01*
X171594326Y-100485302D01*
X171555766Y-100392210D01*
X174148724Y-100392210D01*
X174270045Y-100622100D01*
X175463200Y-100622100D01*
X175463200Y-99428286D01*
X175717200Y-99428286D01*
X175717200Y-100622100D01*
X176910355Y-100622100D01*
X177031676Y-100392210D01*
X176987025Y-100245001D01*
X176861841Y-99982180D01*
X176687788Y-99748831D01*
X176471555Y-99553922D01*
X176221452Y-99404943D01*
X175947091Y-99307619D01*
X175717200Y-99428286D01*
X175463200Y-99428286D01*
X175233309Y-99307619D01*
X174958948Y-99404943D01*
X174708845Y-99553922D01*
X174492612Y-99748831D01*
X174318559Y-99982180D01*
X174193375Y-100245001D01*
X174148724Y-100392210D01*
X171555766Y-100392210D01*
X171516305Y-100296944D01*
X171403037Y-100127426D01*
X171258874Y-99983263D01*
X171089356Y-99869995D01*
X170900998Y-99791974D01*
X170701039Y-99752200D01*
X170497161Y-99752200D01*
X170297202Y-99791974D01*
X170108844Y-99869995D01*
X169948400Y-99977200D01*
X157952900Y-99977200D01*
X157792456Y-99869995D01*
X157604098Y-99791974D01*
X157404139Y-99752200D01*
X157200261Y-99752200D01*
X157000302Y-99791974D01*
X156811944Y-99869995D01*
X156642426Y-99983263D01*
X156498263Y-100127426D01*
X156384995Y-100296944D01*
X156306974Y-100485302D01*
X156269329Y-100674558D01*
X154655288Y-102288600D01*
X149417672Y-102288600D01*
X149417672Y-102248600D01*
X149405412Y-102124118D01*
X149369102Y-102004420D01*
X149310137Y-101894106D01*
X149230785Y-101797415D01*
X149134094Y-101718063D01*
X149023780Y-101659098D01*
X148943134Y-101634634D01*
X149027188Y-101558869D01*
X149201241Y-101325520D01*
X149326425Y-101062699D01*
X149371076Y-100915490D01*
X149249755Y-100685600D01*
X148056600Y-100685600D01*
X148056600Y-100705600D01*
X147802600Y-100705600D01*
X147802600Y-100685600D01*
X146609445Y-100685600D01*
X146488124Y-100915490D01*
X146532775Y-101062699D01*
X146657959Y-101325520D01*
X146832012Y-101558869D01*
X146916066Y-101634634D01*
X146835420Y-101659098D01*
X146725106Y-101718063D01*
X146628415Y-101797415D01*
X146549063Y-101894106D01*
X146490098Y-102004420D01*
X146453788Y-102124118D01*
X146441528Y-102248600D01*
X146441528Y-103948600D01*
X146453788Y-104073082D01*
X146490098Y-104192780D01*
X146549063Y-104303094D01*
X146628415Y-104399785D01*
X146725106Y-104479137D01*
X146835420Y-104538102D01*
X146955118Y-104574412D01*
X147079600Y-104586672D01*
X148779600Y-104586672D01*
X148904082Y-104574412D01*
X149023780Y-104538102D01*
X149134094Y-104479137D01*
X149230785Y-104399785D01*
X149310137Y-104303094D01*
X149369102Y-104192780D01*
X149405412Y-104073082D01*
X149417672Y-103948600D01*
X149417672Y-103908600D01*
X154951012Y-103908600D01*
X154990800Y-103912519D01*
X155030588Y-103908600D01*
X155030591Y-103908600D01*
X155149588Y-103896880D01*
X155302273Y-103850563D01*
X155442989Y-103775349D01*
X155566328Y-103674128D01*
X155591699Y-103643213D01*
X157066426Y-102168487D01*
X157068974Y-102181298D01*
X157146995Y-102369656D01*
X157260263Y-102539174D01*
X157404426Y-102683337D01*
X157573944Y-102796605D01*
X157762302Y-102874626D01*
X157962261Y-102914400D01*
X158166139Y-102914400D01*
X158366098Y-102874626D01*
X158554456Y-102796605D01*
X158723974Y-102683337D01*
X158729811Y-102677500D01*
X164116889Y-102677500D01*
X164160826Y-102721437D01*
X164330344Y-102834705D01*
X164518702Y-102912726D01*
X164718661Y-102952500D01*
X164745443Y-102952500D01*
X165609858Y-103816916D01*
X165634436Y-103846864D01*
X165664384Y-103871442D01*
X165664387Y-103871445D01*
X165671351Y-103877160D01*
X165732698Y-103927507D01*
X165569864Y-103994955D01*
X165557200Y-104003417D01*
X165544536Y-103994955D01*
X165356178Y-103916934D01*
X165156219Y-103877160D01*
X164952341Y-103877160D01*
X164752382Y-103916934D01*
X164564024Y-103994955D01*
X164524733Y-104021208D01*
X164523456Y-104020355D01*
X164335098Y-103942334D01*
X164135139Y-103902560D01*
X163931261Y-103902560D01*
X163731302Y-103942334D01*
X163542944Y-104020355D01*
X163373426Y-104133623D01*
X163229263Y-104277786D01*
X163115995Y-104447304D01*
X163037974Y-104635662D01*
X162998200Y-104835621D01*
X162998200Y-105039499D01*
X163037974Y-105239458D01*
X163115995Y-105427816D01*
X163229263Y-105597334D01*
X163273200Y-105641271D01*
X163273201Y-106095957D01*
X160530083Y-108839076D01*
X160501079Y-108862879D01*
X160445951Y-108930054D01*
X160406106Y-108978604D01*
X160335535Y-109110633D01*
X160335534Y-109110634D01*
X160292077Y-109253895D01*
X160281080Y-109365548D01*
X160281080Y-109365558D01*
X160277404Y-109402880D01*
X160281080Y-109440203D01*
X160281081Y-113423568D01*
X160237143Y-113467506D01*
X160123875Y-113637024D01*
X160050610Y-113813900D01*
X160049885Y-113806536D01*
X160007857Y-113667987D01*
X159939607Y-113540301D01*
X159870773Y-113456427D01*
X159870770Y-113456424D01*
X159847757Y-113428383D01*
X159819717Y-113405371D01*
X159224477Y-112810132D01*
X159201457Y-112782082D01*
X159089539Y-112690233D01*
X158961852Y-112621983D01*
X158823304Y-112579955D01*
X158715324Y-112569320D01*
X158679219Y-112565764D01*
X158643114Y-112569320D01*
X157591407Y-112569320D01*
X157417720Y-112395633D01*
X157417720Y-112298141D01*
X157377946Y-112098182D01*
X157299925Y-111909824D01*
X157186657Y-111740306D01*
X157042494Y-111596143D01*
X156872976Y-111482875D01*
X156684618Y-111404854D01*
X156484659Y-111365080D01*
X156280781Y-111365080D01*
X156080822Y-111404854D01*
X155892464Y-111482875D01*
X155869623Y-111498137D01*
X155831576Y-111472715D01*
X155643218Y-111394694D01*
X155443259Y-111354920D01*
X155239381Y-111354920D01*
X155039422Y-111394694D01*
X154851064Y-111472715D01*
X154681546Y-111585983D01*
X154537383Y-111730146D01*
X154424115Y-111899664D01*
X154346094Y-112088022D01*
X154333803Y-112149812D01*
X154206805Y-112064955D01*
X153950202Y-111958666D01*
X153777194Y-111924252D01*
X153862683Y-111738796D01*
X153921948Y-111491899D01*
X153931908Y-111238184D01*
X153892179Y-110987401D01*
X153804288Y-110749187D01*
X153756388Y-110659573D01*
X153527307Y-110605698D01*
X152818525Y-111314480D01*
X152832668Y-111328623D01*
X152653063Y-111508228D01*
X152638920Y-111494085D01*
X151930138Y-112202867D01*
X151984013Y-112431948D01*
X152214604Y-112538243D01*
X152341449Y-112568691D01*
X152289395Y-112646595D01*
X152183106Y-112903198D01*
X152128920Y-113175607D01*
X152128920Y-113453353D01*
X152183106Y-113725762D01*
X152289395Y-113982365D01*
X152339190Y-114056888D01*
X152311841Y-114061221D01*
X152073627Y-114149112D01*
X151984013Y-114197012D01*
X151930138Y-114426093D01*
X152638920Y-115134875D01*
X152653063Y-115120733D01*
X152832668Y-115300338D01*
X152818525Y-115314480D01*
X153527307Y-116023262D01*
X153756388Y-115969387D01*
X153862683Y-115738796D01*
X153921948Y-115491899D01*
X153931908Y-115238184D01*
X153892179Y-114987401D01*
X153804288Y-114749187D01*
X153780194Y-114704111D01*
X153950202Y-114670294D01*
X154206805Y-114564005D01*
X154437742Y-114409698D01*
X154634138Y-114213302D01*
X154788445Y-113982365D01*
X154894734Y-113725762D01*
X154948920Y-113453353D01*
X154948920Y-113347659D01*
X155039422Y-113385146D01*
X155239381Y-113424920D01*
X155336874Y-113424920D01*
X156238786Y-114326833D01*
X156261802Y-114354878D01*
X156373720Y-114446727D01*
X156501407Y-114514977D01*
X156597926Y-114544256D01*
X156639954Y-114557005D01*
X156654172Y-114558405D01*
X156747935Y-114567640D01*
X156747942Y-114567640D01*
X156784039Y-114571195D01*
X156820136Y-114567640D01*
X158140521Y-114567640D01*
X158140520Y-118319495D01*
X158136964Y-118355600D01*
X158140520Y-118391704D01*
X158151155Y-118499684D01*
X158193183Y-118638232D01*
X158261433Y-118765919D01*
X158353282Y-118877837D01*
X158381328Y-118900854D01*
X160346746Y-120866273D01*
X160369762Y-120894318D01*
X160481680Y-120986167D01*
X160609367Y-121054417D01*
X160747915Y-121096445D01*
X160855895Y-121107080D01*
X160855904Y-121107080D01*
X160891999Y-121110635D01*
X160928094Y-121107080D01*
X174646535Y-121107080D01*
X174682640Y-121110636D01*
X174718745Y-121107080D01*
X174826725Y-121096445D01*
X174965273Y-121054417D01*
X175092960Y-120986167D01*
X175204878Y-120894318D01*
X175227899Y-120866267D01*
X178082374Y-118011792D01*
X185623400Y-118011792D01*
X185623400Y-118452048D01*
X185709290Y-118883845D01*
X185877769Y-119290589D01*
X186122362Y-119656649D01*
X186433671Y-119967958D01*
X186799731Y-120212551D01*
X187206475Y-120381030D01*
X187638272Y-120466920D01*
X188078528Y-120466920D01*
X188510325Y-120381030D01*
X188917069Y-120212551D01*
X189283129Y-119967958D01*
X189594438Y-119656649D01*
X189839031Y-119290589D01*
X190007510Y-118883845D01*
X190093400Y-118452048D01*
X190093400Y-118011792D01*
X190007510Y-117579995D01*
X189839031Y-117173251D01*
X189594438Y-116807191D01*
X189283129Y-116495882D01*
X188917069Y-116251289D01*
X188510325Y-116082810D01*
X188078528Y-115996920D01*
X187638272Y-115996920D01*
X187206475Y-116082810D01*
X186799731Y-116251289D01*
X186433671Y-116495882D01*
X186122362Y-116807191D01*
X185877769Y-117173251D01*
X185709290Y-117579995D01*
X185623400Y-118011792D01*
X178082374Y-118011792D01*
X179319293Y-116774874D01*
X179347338Y-116751858D01*
X179439187Y-116639940D01*
X179507437Y-116512253D01*
X179549465Y-116373705D01*
X179560100Y-116265725D01*
X179560100Y-116265718D01*
X179563655Y-116229621D01*
X179560100Y-116193524D01*
X179560100Y-89482512D01*
X185608160Y-89482512D01*
X185608160Y-89922768D01*
X185694050Y-90354565D01*
X185862529Y-90761309D01*
X186107122Y-91127369D01*
X186418431Y-91438678D01*
X186784491Y-91683271D01*
X187191235Y-91851750D01*
X187623032Y-91937640D01*
X188063288Y-91937640D01*
X188495085Y-91851750D01*
X188901829Y-91683271D01*
X189267889Y-91438678D01*
X189579198Y-91127369D01*
X189823791Y-90761309D01*
X189992270Y-90354565D01*
X190078160Y-89922768D01*
X190078160Y-89482512D01*
X189992270Y-89050715D01*
X189823791Y-88643971D01*
X189579198Y-88277911D01*
X189267889Y-87966602D01*
X188901829Y-87722009D01*
X188495085Y-87553530D01*
X188063288Y-87467640D01*
X187623032Y-87467640D01*
X187191235Y-87553530D01*
X186784491Y-87722009D01*
X186418431Y-87966602D01*
X186107122Y-88277911D01*
X185862529Y-88643971D01*
X185694050Y-89050715D01*
X185608160Y-89482512D01*
X179560100Y-89482512D01*
X179560100Y-87676846D01*
X179646647Y-87590300D01*
X182475595Y-87590300D01*
X182511700Y-87593856D01*
X182547805Y-87590300D01*
X182655785Y-87579665D01*
X182794333Y-87537637D01*
X182922020Y-87469387D01*
X183033938Y-87377538D01*
X183056959Y-87349487D01*
X183374187Y-87032259D01*
X183402238Y-87009238D01*
X183494087Y-86897320D01*
X183562337Y-86769633D01*
X183604365Y-86631085D01*
X183615000Y-86523105D01*
X183618556Y-86487000D01*
X183615000Y-86450895D01*
X183615000Y-84546972D01*
X184035700Y-84546972D01*
X184160182Y-84534712D01*
X184279880Y-84498402D01*
X184390194Y-84439437D01*
X184486885Y-84360085D01*
X184566237Y-84263394D01*
X184625202Y-84153080D01*
X184661512Y-84033382D01*
X184673772Y-83908900D01*
X185429628Y-83908900D01*
X185441888Y-84033382D01*
X185478198Y-84153080D01*
X185537163Y-84263394D01*
X185616515Y-84360085D01*
X185713206Y-84439437D01*
X185823520Y-84498402D01*
X185943218Y-84534712D01*
X186067700Y-84546972D01*
X186988450Y-84543900D01*
X187147200Y-84385150D01*
X187147200Y-81495900D01*
X187401200Y-81495900D01*
X187401200Y-84385150D01*
X187559950Y-84543900D01*
X188480700Y-84546972D01*
X188605182Y-84534712D01*
X188724880Y-84498402D01*
X188835194Y-84439437D01*
X188931885Y-84360085D01*
X189011237Y-84263394D01*
X189070202Y-84153080D01*
X189106512Y-84033382D01*
X189118772Y-83908900D01*
X189115700Y-81654650D01*
X188956950Y-81495900D01*
X187401200Y-81495900D01*
X187147200Y-81495900D01*
X185591450Y-81495900D01*
X185432700Y-81654650D01*
X185429628Y-83908900D01*
X184673772Y-83908900D01*
X184673772Y-79181203D01*
X185430109Y-79181527D01*
X185432700Y-81083150D01*
X185591450Y-81241900D01*
X187147200Y-81241900D01*
X187147200Y-81221900D01*
X187401200Y-81221900D01*
X187401200Y-81241900D01*
X188956950Y-81241900D01*
X189115700Y-81083150D01*
X189118289Y-79183105D01*
X190779800Y-79183817D01*
X190779801Y-121209200D01*
X132760614Y-121209200D01*
X132760964Y-118077832D01*
X133350200Y-118077832D01*
X133350200Y-118518088D01*
X133436090Y-118949885D01*
X133604569Y-119356629D01*
X133849162Y-119722689D01*
X134160471Y-120033998D01*
X134526531Y-120278591D01*
X134933275Y-120447070D01*
X135365072Y-120532960D01*
X135805328Y-120532960D01*
X136237125Y-120447070D01*
X136643869Y-120278591D01*
X137009929Y-120033998D01*
X137321238Y-119722689D01*
X137565831Y-119356629D01*
X137734310Y-118949885D01*
X137820200Y-118518088D01*
X137820200Y-118077832D01*
X137734310Y-117646035D01*
X137565831Y-117239291D01*
X137321238Y-116873231D01*
X137009929Y-116561922D01*
X136643869Y-116317329D01*
X136237125Y-116148850D01*
X135805328Y-116062960D01*
X135365072Y-116062960D01*
X134933275Y-116148850D01*
X134526531Y-116317329D01*
X134160471Y-116561922D01*
X133849162Y-116873231D01*
X133604569Y-117239291D01*
X133436090Y-117646035D01*
X133350200Y-118077832D01*
X132760964Y-118077832D01*
X132764168Y-89482512D01*
X133411160Y-89482512D01*
X133411160Y-89922768D01*
X133497050Y-90354565D01*
X133665529Y-90761309D01*
X133910122Y-91127369D01*
X134221431Y-91438678D01*
X134587491Y-91683271D01*
X134994235Y-91851750D01*
X135426032Y-91937640D01*
X135866288Y-91937640D01*
X136298085Y-91851750D01*
X136704829Y-91683271D01*
X137070889Y-91438678D01*
X137382198Y-91127369D01*
X137626791Y-90761309D01*
X137795270Y-90354565D01*
X137881160Y-89922768D01*
X137881160Y-89482512D01*
X137795270Y-89050715D01*
X137626791Y-88643971D01*
X137382198Y-88277911D01*
X137070889Y-87966602D01*
X136704829Y-87722009D01*
X136298085Y-87553530D01*
X135866288Y-87467640D01*
X135426032Y-87467640D01*
X134994235Y-87553530D01*
X134587491Y-87722009D01*
X134221431Y-87966602D01*
X133910122Y-88277911D01*
X133665529Y-88643971D01*
X133497050Y-89050715D01*
X133411160Y-89482512D01*
X132764168Y-89482512D01*
X132764786Y-83959700D01*
X134731228Y-83959700D01*
X134743488Y-84084182D01*
X134779798Y-84203880D01*
X134838763Y-84314194D01*
X134918115Y-84410885D01*
X135014806Y-84490237D01*
X135125120Y-84549202D01*
X135244818Y-84585512D01*
X135369300Y-84597772D01*
X136290050Y-84594700D01*
X136448800Y-84435950D01*
X136448800Y-81546700D01*
X136702800Y-81546700D01*
X136702800Y-84435950D01*
X136861550Y-84594700D01*
X137782300Y-84597772D01*
X137906782Y-84585512D01*
X138026480Y-84549202D01*
X138136794Y-84490237D01*
X138233485Y-84410885D01*
X138312837Y-84314194D01*
X138371802Y-84203880D01*
X138408112Y-84084182D01*
X138420372Y-83959700D01*
X138417300Y-81705450D01*
X138258550Y-81546700D01*
X136702800Y-81546700D01*
X136448800Y-81546700D01*
X134893050Y-81546700D01*
X134734300Y-81705450D01*
X134731228Y-83959700D01*
X132764786Y-83959700D01*
X132765325Y-79158982D01*
X134731610Y-79159824D01*
G37*
%TD.AperFunction*%
D20*
X171383900Y-79175514D02*
X171386500Y-81083150D01*
X171545250Y-81241900D01*
X173101000Y-81241900D01*
X173101000Y-81221900D01*
X173355000Y-81221900D01*
X173355000Y-81241900D01*
X174910750Y-81241900D01*
X175069500Y-81083150D01*
X175072097Y-79177093D01*
X176667103Y-79177776D01*
X176669700Y-81083150D01*
X176828450Y-81241900D01*
X178384200Y-81241900D01*
X178384200Y-81221900D01*
X178638200Y-81221900D01*
X178638200Y-81241900D01*
X180193950Y-81241900D01*
X180352700Y-81083150D01*
X180355294Y-79179354D01*
X181111628Y-79179678D01*
X181111628Y-83908900D01*
X181123888Y-84033382D01*
X181160198Y-84153080D01*
X181219163Y-84263394D01*
X181298515Y-84360085D01*
X181395206Y-84439437D01*
X181505520Y-84498402D01*
X181625218Y-84534712D01*
X181749700Y-84546972D01*
X182145001Y-84546972D01*
X182145001Y-86120300D01*
X179378305Y-86120300D01*
X179342200Y-86116744D01*
X179306095Y-86120300D01*
X179198115Y-86130935D01*
X179059567Y-86172963D01*
X178931880Y-86241213D01*
X178819962Y-86333062D01*
X178796946Y-86361107D01*
X178604650Y-86553403D01*
X178399658Y-86348412D01*
X178376638Y-86320362D01*
X178264720Y-86228513D01*
X178137033Y-86160263D01*
X177998485Y-86118235D01*
X177890505Y-86107600D01*
X177854400Y-86104044D01*
X177818295Y-86107600D01*
X173672069Y-86107600D01*
X173625906Y-86093597D01*
X173514253Y-86082600D01*
X170901202Y-86082600D01*
X169606500Y-84787899D01*
X169606500Y-84546972D01*
X169989500Y-84546972D01*
X170113982Y-84534712D01*
X170233680Y-84498402D01*
X170343994Y-84439437D01*
X170440685Y-84360085D01*
X170520037Y-84263394D01*
X170579002Y-84153080D01*
X170615312Y-84033382D01*
X170627572Y-83908900D01*
X171383428Y-83908900D01*
X171395688Y-84033382D01*
X171431998Y-84153080D01*
X171490963Y-84263394D01*
X171570315Y-84360085D01*
X171667006Y-84439437D01*
X171777320Y-84498402D01*
X171897018Y-84534712D01*
X172021500Y-84546972D01*
X172942250Y-84543900D01*
X173101000Y-84385150D01*
X173101000Y-81495900D01*
X173355000Y-81495900D01*
X173355000Y-84385150D01*
X173513750Y-84543900D01*
X174434500Y-84546972D01*
X174558982Y-84534712D01*
X174678680Y-84498402D01*
X174788994Y-84439437D01*
X174885685Y-84360085D01*
X174965037Y-84263394D01*
X175024002Y-84153080D01*
X175060312Y-84033382D01*
X175072572Y-83908900D01*
X176666628Y-83908900D01*
X176678888Y-84033382D01*
X176715198Y-84153080D01*
X176774163Y-84263394D01*
X176853515Y-84360085D01*
X176950206Y-84439437D01*
X177060520Y-84498402D01*
X177180218Y-84534712D01*
X177304700Y-84546972D01*
X178225450Y-84543900D01*
X178384200Y-84385150D01*
X178384200Y-81495900D01*
X178638200Y-81495900D01*
X178638200Y-84385150D01*
X178796950Y-84543900D01*
X179717700Y-84546972D01*
X179842182Y-84534712D01*
X179961880Y-84498402D01*
X180072194Y-84439437D01*
X180168885Y-84360085D01*
X180248237Y-84263394D01*
X180307202Y-84153080D01*
X180343512Y-84033382D01*
X180355772Y-83908900D01*
X180352700Y-81654650D01*
X180193950Y-81495900D01*
X178638200Y-81495900D01*
X178384200Y-81495900D01*
X176828450Y-81495900D01*
X176669700Y-81654650D01*
X176666628Y-83908900D01*
X175072572Y-83908900D01*
X175069500Y-81654650D01*
X174910750Y-81495900D01*
X173355000Y-81495900D01*
X173101000Y-81495900D01*
X171545250Y-81495900D01*
X171386500Y-81654650D01*
X171383428Y-83908900D01*
X170627572Y-83908900D01*
X170627572Y-79175190D01*
X171383900Y-79175514D01*
%TA.AperFunction,Conductor*%
D21*
G36*
X171383900Y-79175514D02*
G01*
X171386500Y-81083150D01*
X171545250Y-81241900D01*
X173101000Y-81241900D01*
X173101000Y-81221900D01*
X173355000Y-81221900D01*
X173355000Y-81241900D01*
X174910750Y-81241900D01*
X175069500Y-81083150D01*
X175072097Y-79177093D01*
X176667103Y-79177776D01*
X176669700Y-81083150D01*
X176828450Y-81241900D01*
X178384200Y-81241900D01*
X178384200Y-81221900D01*
X178638200Y-81221900D01*
X178638200Y-81241900D01*
X180193950Y-81241900D01*
X180352700Y-81083150D01*
X180355294Y-79179354D01*
X181111628Y-79179678D01*
X181111628Y-83908900D01*
X181123888Y-84033382D01*
X181160198Y-84153080D01*
X181219163Y-84263394D01*
X181298515Y-84360085D01*
X181395206Y-84439437D01*
X181505520Y-84498402D01*
X181625218Y-84534712D01*
X181749700Y-84546972D01*
X182145001Y-84546972D01*
X182145001Y-86120300D01*
X179378305Y-86120300D01*
X179342200Y-86116744D01*
X179306095Y-86120300D01*
X179198115Y-86130935D01*
X179059567Y-86172963D01*
X178931880Y-86241213D01*
X178819962Y-86333062D01*
X178796946Y-86361107D01*
X178604650Y-86553403D01*
X178399658Y-86348412D01*
X178376638Y-86320362D01*
X178264720Y-86228513D01*
X178137033Y-86160263D01*
X177998485Y-86118235D01*
X177890505Y-86107600D01*
X177854400Y-86104044D01*
X177818295Y-86107600D01*
X173672069Y-86107600D01*
X173625906Y-86093597D01*
X173514253Y-86082600D01*
X170901202Y-86082600D01*
X169606500Y-84787899D01*
X169606500Y-84546972D01*
X169989500Y-84546972D01*
X170113982Y-84534712D01*
X170233680Y-84498402D01*
X170343994Y-84439437D01*
X170440685Y-84360085D01*
X170520037Y-84263394D01*
X170579002Y-84153080D01*
X170615312Y-84033382D01*
X170627572Y-83908900D01*
X171383428Y-83908900D01*
X171395688Y-84033382D01*
X171431998Y-84153080D01*
X171490963Y-84263394D01*
X171570315Y-84360085D01*
X171667006Y-84439437D01*
X171777320Y-84498402D01*
X171897018Y-84534712D01*
X172021500Y-84546972D01*
X172942250Y-84543900D01*
X173101000Y-84385150D01*
X173101000Y-81495900D01*
X173355000Y-81495900D01*
X173355000Y-84385150D01*
X173513750Y-84543900D01*
X174434500Y-84546972D01*
X174558982Y-84534712D01*
X174678680Y-84498402D01*
X174788994Y-84439437D01*
X174885685Y-84360085D01*
X174965037Y-84263394D01*
X175024002Y-84153080D01*
X175060312Y-84033382D01*
X175072572Y-83908900D01*
X176666628Y-83908900D01*
X176678888Y-84033382D01*
X176715198Y-84153080D01*
X176774163Y-84263394D01*
X176853515Y-84360085D01*
X176950206Y-84439437D01*
X177060520Y-84498402D01*
X177180218Y-84534712D01*
X177304700Y-84546972D01*
X178225450Y-84543900D01*
X178384200Y-84385150D01*
X178384200Y-81495900D01*
X178638200Y-81495900D01*
X178638200Y-84385150D01*
X178796950Y-84543900D01*
X179717700Y-84546972D01*
X179842182Y-84534712D01*
X179961880Y-84498402D01*
X180072194Y-84439437D01*
X180168885Y-84360085D01*
X180248237Y-84263394D01*
X180307202Y-84153080D01*
X180343512Y-84033382D01*
X180355772Y-83908900D01*
X180352700Y-81654650D01*
X180193950Y-81495900D01*
X178638200Y-81495900D01*
X178384200Y-81495900D01*
X176828450Y-81495900D01*
X176669700Y-81654650D01*
X176666628Y-83908900D01*
X175072572Y-83908900D01*
X175069500Y-81654650D01*
X174910750Y-81495900D01*
X173355000Y-81495900D01*
X173101000Y-81495900D01*
X171545250Y-81495900D01*
X171386500Y-81654650D01*
X171383428Y-83908900D01*
X170627572Y-83908900D01*
X170627572Y-79175190D01*
X171383900Y-79175514D01*
G37*
%TD.AperFunction*%
D20*
X143494615Y-79163575D02*
X143497300Y-81133950D01*
X143656050Y-81292700D01*
X145211800Y-81292700D01*
X145211800Y-81272700D01*
X145465800Y-81272700D01*
X145465800Y-81292700D01*
X147021550Y-81292700D01*
X147180300Y-81133950D01*
X147182983Y-79165154D01*
X148650887Y-79165783D01*
X148653500Y-81083150D01*
X148812250Y-81241900D01*
X150368000Y-81241900D01*
X150368000Y-81221900D01*
X150622000Y-81221900D01*
X150622000Y-81241900D01*
X152177750Y-81241900D01*
X152336500Y-81083150D01*
X152339111Y-79167361D01*
X153095428Y-79167685D01*
X153095428Y-83908900D01*
X153107688Y-84033382D01*
X153143998Y-84153080D01*
X153202963Y-84263394D01*
X153282315Y-84360085D01*
X153379006Y-84439437D01*
X153489320Y-84498402D01*
X153609018Y-84534712D01*
X153733500Y-84546972D01*
X153925625Y-84546972D01*
X152790049Y-85682550D01*
X150679917Y-85682550D01*
X150568264Y-85693547D01*
X150522101Y-85707550D01*
X145457444Y-85707550D01*
X145421349Y-85703995D01*
X145385254Y-85707550D01*
X145385245Y-85707550D01*
X145277265Y-85718185D01*
X145138717Y-85760213D01*
X145011030Y-85828463D01*
X144899112Y-85920312D01*
X144876091Y-85948363D01*
X144799050Y-86025404D01*
X144690259Y-85916613D01*
X144667238Y-85888562D01*
X144555320Y-85796713D01*
X144427633Y-85728463D01*
X144289085Y-85686435D01*
X144181105Y-85675800D01*
X144145000Y-85672244D01*
X144108895Y-85675800D01*
X141884047Y-85675800D01*
X141705000Y-85496754D01*
X141705000Y-84597772D01*
X142100300Y-84597772D01*
X142224782Y-84585512D01*
X142344480Y-84549202D01*
X142454794Y-84490237D01*
X142551485Y-84410885D01*
X142630837Y-84314194D01*
X142689802Y-84203880D01*
X142726112Y-84084182D01*
X142738372Y-83959700D01*
X143494228Y-83959700D01*
X143506488Y-84084182D01*
X143542798Y-84203880D01*
X143601763Y-84314194D01*
X143681115Y-84410885D01*
X143777806Y-84490237D01*
X143888120Y-84549202D01*
X144007818Y-84585512D01*
X144132300Y-84597772D01*
X145053050Y-84594700D01*
X145211800Y-84435950D01*
X145211800Y-81546700D01*
X145465800Y-81546700D01*
X145465800Y-84435950D01*
X145624550Y-84594700D01*
X146545300Y-84597772D01*
X146669782Y-84585512D01*
X146789480Y-84549202D01*
X146899794Y-84490237D01*
X146996485Y-84410885D01*
X147075837Y-84314194D01*
X147134802Y-84203880D01*
X147171112Y-84084182D01*
X147183372Y-83959700D01*
X147183303Y-83908900D01*
X148650428Y-83908900D01*
X148662688Y-84033382D01*
X148698998Y-84153080D01*
X148757963Y-84263394D01*
X148837315Y-84360085D01*
X148934006Y-84439437D01*
X149044320Y-84498402D01*
X149164018Y-84534712D01*
X149288500Y-84546972D01*
X150209250Y-84543900D01*
X150368000Y-84385150D01*
X150368000Y-81495900D01*
X150622000Y-81495900D01*
X150622000Y-84385150D01*
X150780750Y-84543900D01*
X151701500Y-84546972D01*
X151825982Y-84534712D01*
X151945680Y-84498402D01*
X152055994Y-84439437D01*
X152152685Y-84360085D01*
X152232037Y-84263394D01*
X152291002Y-84153080D01*
X152327312Y-84033382D01*
X152339572Y-83908900D01*
X152336500Y-81654650D01*
X152177750Y-81495900D01*
X150622000Y-81495900D01*
X150368000Y-81495900D01*
X148812250Y-81495900D01*
X148653500Y-81654650D01*
X148650428Y-83908900D01*
X147183303Y-83908900D01*
X147180300Y-81705450D01*
X147021550Y-81546700D01*
X145465800Y-81546700D01*
X145211800Y-81546700D01*
X143656050Y-81546700D01*
X143497300Y-81705450D01*
X143494228Y-83959700D01*
X142738372Y-83959700D01*
X142738372Y-79163252D01*
X143494615Y-79163575D01*
%TA.AperFunction,Conductor*%
D21*
G36*
X143494615Y-79163575D02*
G01*
X143497300Y-81133950D01*
X143656050Y-81292700D01*
X145211800Y-81292700D01*
X145211800Y-81272700D01*
X145465800Y-81272700D01*
X145465800Y-81292700D01*
X147021550Y-81292700D01*
X147180300Y-81133950D01*
X147182983Y-79165154D01*
X148650887Y-79165783D01*
X148653500Y-81083150D01*
X148812250Y-81241900D01*
X150368000Y-81241900D01*
X150368000Y-81221900D01*
X150622000Y-81221900D01*
X150622000Y-81241900D01*
X152177750Y-81241900D01*
X152336500Y-81083150D01*
X152339111Y-79167361D01*
X153095428Y-79167685D01*
X153095428Y-83908900D01*
X153107688Y-84033382D01*
X153143998Y-84153080D01*
X153202963Y-84263394D01*
X153282315Y-84360085D01*
X153379006Y-84439437D01*
X153489320Y-84498402D01*
X153609018Y-84534712D01*
X153733500Y-84546972D01*
X153925625Y-84546972D01*
X152790049Y-85682550D01*
X150679917Y-85682550D01*
X150568264Y-85693547D01*
X150522101Y-85707550D01*
X145457444Y-85707550D01*
X145421349Y-85703995D01*
X145385254Y-85707550D01*
X145385245Y-85707550D01*
X145277265Y-85718185D01*
X145138717Y-85760213D01*
X145011030Y-85828463D01*
X144899112Y-85920312D01*
X144876091Y-85948363D01*
X144799050Y-86025404D01*
X144690259Y-85916613D01*
X144667238Y-85888562D01*
X144555320Y-85796713D01*
X144427633Y-85728463D01*
X144289085Y-85686435D01*
X144181105Y-85675800D01*
X144145000Y-85672244D01*
X144108895Y-85675800D01*
X141884047Y-85675800D01*
X141705000Y-85496754D01*
X141705000Y-84597772D01*
X142100300Y-84597772D01*
X142224782Y-84585512D01*
X142344480Y-84549202D01*
X142454794Y-84490237D01*
X142551485Y-84410885D01*
X142630837Y-84314194D01*
X142689802Y-84203880D01*
X142726112Y-84084182D01*
X142738372Y-83959700D01*
X143494228Y-83959700D01*
X143506488Y-84084182D01*
X143542798Y-84203880D01*
X143601763Y-84314194D01*
X143681115Y-84410885D01*
X143777806Y-84490237D01*
X143888120Y-84549202D01*
X144007818Y-84585512D01*
X144132300Y-84597772D01*
X145053050Y-84594700D01*
X145211800Y-84435950D01*
X145211800Y-81546700D01*
X145465800Y-81546700D01*
X145465800Y-84435950D01*
X145624550Y-84594700D01*
X146545300Y-84597772D01*
X146669782Y-84585512D01*
X146789480Y-84549202D01*
X146899794Y-84490237D01*
X146996485Y-84410885D01*
X147075837Y-84314194D01*
X147134802Y-84203880D01*
X147171112Y-84084182D01*
X147183372Y-83959700D01*
X147183303Y-83908900D01*
X148650428Y-83908900D01*
X148662688Y-84033382D01*
X148698998Y-84153080D01*
X148757963Y-84263394D01*
X148837315Y-84360085D01*
X148934006Y-84439437D01*
X149044320Y-84498402D01*
X149164018Y-84534712D01*
X149288500Y-84546972D01*
X150209250Y-84543900D01*
X150368000Y-84385150D01*
X150368000Y-81495900D01*
X150622000Y-81495900D01*
X150622000Y-84385150D01*
X150780750Y-84543900D01*
X151701500Y-84546972D01*
X151825982Y-84534712D01*
X151945680Y-84498402D01*
X152055994Y-84439437D01*
X152152685Y-84360085D01*
X152232037Y-84263394D01*
X152291002Y-84153080D01*
X152327312Y-84033382D01*
X152339572Y-83908900D01*
X152336500Y-81654650D01*
X152177750Y-81495900D01*
X150622000Y-81495900D01*
X150368000Y-81495900D01*
X148812250Y-81495900D01*
X148653500Y-81654650D01*
X148650428Y-83908900D01*
X147183303Y-83908900D01*
X147180300Y-81705450D01*
X147021550Y-81546700D01*
X145465800Y-81546700D01*
X145211800Y-81546700D01*
X143656050Y-81546700D01*
X143497300Y-81705450D01*
X143494228Y-83959700D01*
X142738372Y-83959700D01*
X142738372Y-79163252D01*
X143494615Y-79163575D01*
G37*
%TD.AperFunction*%
%TD*%
M02*
