%TF.GenerationSoftware,KiCad,Pcbnew,5.1.10-88a1d61d58~88~ubuntu18.04.1*%
%TF.CreationDate,2021-08-07T22:55:04+07:00*%
%TF.ProjectId,ADV728xM_EVAL_SMA-MINISAS_MX8Mx,41445637-3238-4784-9d5f-4556414c5f53,rev?*%
%TF.SameCoordinates,Original*%
%TF.FileFunction,Legend,Top*%
%TF.FilePolarity,Positive*%
%FSLAX46Y46*%
G04 Gerber Fmt 4.6, Leading zero omitted, Abs format (unit mm)*
G04 Created by KiCad (PCBNEW 5.1.10-88a1d61d58~88~ubuntu18.04.1) date 2021-08-07 22:55:04*
%MOMM*%
%LPD*%
G01*
G04 APERTURE LIST*
%ADD10C,0.200000*%
%ADD11C,0.127000*%
%ADD12C,0.120000*%
%ADD13C,0.100000*%
%ADD14C,0.150000*%
G04 APERTURE END LIST*
D10*
%TO.C,J9*%
X154638920Y-108714480D02*
G75*
G03*
X154638920Y-108714480I-100000J0D01*
G01*
X155038920Y-117914480D02*
G75*
G03*
X155038920Y-117914480I-100000J0D01*
G01*
D11*
X171438920Y-118614480D02*
X151638920Y-118614480D01*
X171438920Y-105814480D02*
X171438920Y-118614480D01*
X151638920Y-105814480D02*
X171438920Y-105814480D01*
X151638920Y-118614480D02*
X151638920Y-105814480D01*
D12*
%TO.C,J6*%
X176882100Y-98446900D02*
X175552100Y-98446900D01*
X176882100Y-97116900D02*
X176882100Y-98446900D01*
X176882100Y-95846900D02*
X174222100Y-95846900D01*
X174222100Y-95846900D02*
X174222100Y-88166900D01*
X176882100Y-95846900D02*
X176882100Y-88166900D01*
X176882100Y-88166900D02*
X174222100Y-88166900D01*
%TO.C,C2*%
X154158733Y-100277200D02*
X154451267Y-100277200D01*
X154158733Y-101297200D02*
X154451267Y-101297200D01*
%TO.C,C1*%
X154146033Y-103100600D02*
X154438567Y-103100600D01*
X154146033Y-102080600D02*
X154438567Y-102080600D01*
%TO.C,J5*%
X149310400Y-87900200D02*
X146650400Y-87900200D01*
X149310400Y-95580200D02*
X149310400Y-87900200D01*
X146650400Y-95580200D02*
X146650400Y-87900200D01*
X149310400Y-95580200D02*
X146650400Y-95580200D01*
X149310400Y-96850200D02*
X149310400Y-98180200D01*
X149310400Y-98180200D02*
X147980400Y-98180200D01*
%TO.C,J8*%
X176920200Y-99419100D02*
X174260200Y-99419100D01*
X176920200Y-102019100D02*
X176920200Y-99419100D01*
X174260200Y-102019100D02*
X174260200Y-99419100D01*
X176920200Y-102019100D02*
X174260200Y-102019100D01*
X176920200Y-103289100D02*
X176920200Y-104619100D01*
X176920200Y-104619100D02*
X175590200Y-104619100D01*
%TO.C,J7*%
X149259600Y-104428600D02*
X147929600Y-104428600D01*
X149259600Y-103098600D02*
X149259600Y-104428600D01*
X149259600Y-101828600D02*
X146599600Y-101828600D01*
X146599600Y-101828600D02*
X146599600Y-99228600D01*
X149259600Y-101828600D02*
X149259600Y-99228600D01*
X149259600Y-99228600D02*
X146599600Y-99228600D01*
%TO.C,R1*%
X169378136Y-101715900D02*
X169832264Y-101715900D01*
X169378136Y-103185900D02*
X169832264Y-103185900D01*
D13*
%TO.C,U1*%
G36*
X157873700Y-96390701D02*
G01*
X157873700Y-96009701D01*
X158127700Y-96009701D01*
X158127700Y-96390701D01*
X157873700Y-96390701D01*
G37*
X157873700Y-96390701D02*
X157873700Y-96009701D01*
X158127700Y-96009701D01*
X158127700Y-96390701D01*
X157873700Y-96390701D01*
D12*
X159613600Y-99310739D02*
X159613600Y-99529900D01*
X164261800Y-94389661D02*
X164261800Y-94170500D01*
X164261800Y-99529900D02*
X164261800Y-99310741D01*
X159613600Y-99529900D02*
X164261800Y-99529900D01*
X159613600Y-94170500D02*
X159613600Y-94389659D01*
X164261800Y-94170500D02*
X159613600Y-94170500D01*
%TO.C,H4*%
D14*
X134889335Y-94152980D02*
X134889335Y-93152980D01*
X134889335Y-93629171D02*
X135460763Y-93629171D01*
X135460763Y-94152980D02*
X135460763Y-93152980D01*
X136365525Y-93486314D02*
X136365525Y-94152980D01*
X136127430Y-93105361D02*
X135889335Y-93819647D01*
X136508382Y-93819647D01*
%TO.C,H3*%
X186933935Y-94412060D02*
X186933935Y-93412060D01*
X186933935Y-93888251D02*
X187505363Y-93888251D01*
X187505363Y-94412060D02*
X187505363Y-93412060D01*
X187886316Y-93412060D02*
X188505363Y-93412060D01*
X188172030Y-93793013D01*
X188314887Y-93793013D01*
X188410125Y-93840632D01*
X188457744Y-93888251D01*
X188505363Y-93983489D01*
X188505363Y-94221584D01*
X188457744Y-94316822D01*
X188410125Y-94364441D01*
X188314887Y-94412060D01*
X188029173Y-94412060D01*
X187933935Y-94364441D01*
X187886316Y-94316822D01*
%TO.C,H2*%
X187096495Y-114484300D02*
X187096495Y-113484300D01*
X187096495Y-113960491D02*
X187667923Y-113960491D01*
X187667923Y-114484300D02*
X187667923Y-113484300D01*
X188096495Y-113579539D02*
X188144114Y-113531920D01*
X188239352Y-113484300D01*
X188477447Y-113484300D01*
X188572685Y-113531920D01*
X188620304Y-113579539D01*
X188667923Y-113674777D01*
X188667923Y-113770015D01*
X188620304Y-113912872D01*
X188048876Y-114484300D01*
X188667923Y-114484300D01*
%TO.C,H1*%
X134823295Y-114550340D02*
X134823295Y-113550340D01*
X134823295Y-114026531D02*
X135394723Y-114026531D01*
X135394723Y-114550340D02*
X135394723Y-113550340D01*
X136394723Y-114550340D02*
X135823295Y-114550340D01*
X136109009Y-114550340D02*
X136109009Y-113550340D01*
X136013771Y-113693198D01*
X135918533Y-113788436D01*
X135823295Y-113836055D01*
%TO.C,J9*%
X149922906Y-106554020D02*
X149922906Y-107268306D01*
X149875287Y-107411163D01*
X149780049Y-107506401D01*
X149637192Y-107554020D01*
X149541954Y-107554020D01*
X150446716Y-107554020D02*
X150637192Y-107554020D01*
X150732430Y-107506401D01*
X150780049Y-107458782D01*
X150875287Y-107315925D01*
X150922906Y-107125449D01*
X150922906Y-106744497D01*
X150875287Y-106649259D01*
X150827668Y-106601640D01*
X150732430Y-106554020D01*
X150541954Y-106554020D01*
X150446716Y-106601640D01*
X150399097Y-106649259D01*
X150351478Y-106744497D01*
X150351478Y-106982592D01*
X150399097Y-107077830D01*
X150446716Y-107125449D01*
X150541954Y-107173068D01*
X150732430Y-107173068D01*
X150827668Y-107125449D01*
X150875287Y-107077830D01*
X150922906Y-106982592D01*
%TO.C,J6*%
X178482666Y-96721680D02*
X178482666Y-97435966D01*
X178435047Y-97578823D01*
X178339809Y-97674061D01*
X178196952Y-97721680D01*
X178101714Y-97721680D01*
X179387428Y-96721680D02*
X179196952Y-96721680D01*
X179101714Y-96769300D01*
X179054095Y-96816919D01*
X178958857Y-96959776D01*
X178911238Y-97150252D01*
X178911238Y-97531204D01*
X178958857Y-97626442D01*
X179006476Y-97674061D01*
X179101714Y-97721680D01*
X179292190Y-97721680D01*
X179387428Y-97674061D01*
X179435047Y-97626442D01*
X179482666Y-97531204D01*
X179482666Y-97293109D01*
X179435047Y-97197871D01*
X179387428Y-97150252D01*
X179292190Y-97102633D01*
X179101714Y-97102633D01*
X179006476Y-97150252D01*
X178958857Y-97197871D01*
X178911238Y-97293109D01*
%TO.C,C2*%
X151166533Y-101118942D02*
X151118914Y-101166561D01*
X150976057Y-101214180D01*
X150880819Y-101214180D01*
X150737961Y-101166561D01*
X150642723Y-101071323D01*
X150595104Y-100976085D01*
X150547485Y-100785609D01*
X150547485Y-100642752D01*
X150595104Y-100452276D01*
X150642723Y-100357038D01*
X150737961Y-100261800D01*
X150880819Y-100214180D01*
X150976057Y-100214180D01*
X151118914Y-100261800D01*
X151166533Y-100309419D01*
X151547485Y-100309419D02*
X151595104Y-100261800D01*
X151690342Y-100214180D01*
X151928438Y-100214180D01*
X152023676Y-100261800D01*
X152071295Y-100309419D01*
X152118914Y-100404657D01*
X152118914Y-100499895D01*
X152071295Y-100642752D01*
X151499866Y-101214180D01*
X152118914Y-101214180D01*
%TO.C,C1*%
X151103033Y-102935042D02*
X151055414Y-102982661D01*
X150912557Y-103030280D01*
X150817319Y-103030280D01*
X150674461Y-102982661D01*
X150579223Y-102887423D01*
X150531604Y-102792185D01*
X150483985Y-102601709D01*
X150483985Y-102458852D01*
X150531604Y-102268376D01*
X150579223Y-102173138D01*
X150674461Y-102077900D01*
X150817319Y-102030280D01*
X150912557Y-102030280D01*
X151055414Y-102077900D01*
X151103033Y-102125519D01*
X152055414Y-103030280D02*
X151483985Y-103030280D01*
X151769700Y-103030280D02*
X151769700Y-102030280D01*
X151674461Y-102173138D01*
X151579223Y-102268376D01*
X151483985Y-102315995D01*
%TO.C,J5*%
X144776866Y-96315280D02*
X144776866Y-97029566D01*
X144729247Y-97172423D01*
X144634009Y-97267661D01*
X144491152Y-97315280D01*
X144395914Y-97315280D01*
X145729247Y-96315280D02*
X145253057Y-96315280D01*
X145205438Y-96791471D01*
X145253057Y-96743852D01*
X145348295Y-96696233D01*
X145586390Y-96696233D01*
X145681628Y-96743852D01*
X145729247Y-96791471D01*
X145776866Y-96886709D01*
X145776866Y-97124804D01*
X145729247Y-97220042D01*
X145681628Y-97267661D01*
X145586390Y-97315280D01*
X145348295Y-97315280D01*
X145253057Y-97267661D01*
X145205438Y-97220042D01*
%TO.C,J8*%
X178431866Y-102741480D02*
X178431866Y-103455766D01*
X178384247Y-103598623D01*
X178289009Y-103693861D01*
X178146152Y-103741480D01*
X178050914Y-103741480D01*
X179050914Y-103170052D02*
X178955676Y-103122433D01*
X178908057Y-103074814D01*
X178860438Y-102979576D01*
X178860438Y-102931957D01*
X178908057Y-102836719D01*
X178955676Y-102789100D01*
X179050914Y-102741480D01*
X179241390Y-102741480D01*
X179336628Y-102789100D01*
X179384247Y-102836719D01*
X179431866Y-102931957D01*
X179431866Y-102979576D01*
X179384247Y-103074814D01*
X179336628Y-103122433D01*
X179241390Y-103170052D01*
X179050914Y-103170052D01*
X178955676Y-103217671D01*
X178908057Y-103265290D01*
X178860438Y-103360528D01*
X178860438Y-103551004D01*
X178908057Y-103646242D01*
X178955676Y-103693861D01*
X179050914Y-103741480D01*
X179241390Y-103741480D01*
X179336628Y-103693861D01*
X179384247Y-103646242D01*
X179431866Y-103551004D01*
X179431866Y-103360528D01*
X179384247Y-103265290D01*
X179336628Y-103217671D01*
X179241390Y-103170052D01*
%TO.C,J7*%
X144675266Y-102462080D02*
X144675266Y-103176366D01*
X144627647Y-103319223D01*
X144532409Y-103414461D01*
X144389552Y-103462080D01*
X144294314Y-103462080D01*
X145056219Y-102462080D02*
X145722885Y-102462080D01*
X145294314Y-103462080D01*
%TO.C,R1*%
X170445133Y-105176580D02*
X170111800Y-104700390D01*
X169873704Y-105176580D02*
X169873704Y-104176580D01*
X170254657Y-104176580D01*
X170349895Y-104224200D01*
X170397514Y-104271819D01*
X170445133Y-104367057D01*
X170445133Y-104509914D01*
X170397514Y-104605152D01*
X170349895Y-104652771D01*
X170254657Y-104700390D01*
X169873704Y-104700390D01*
X171397514Y-105176580D02*
X170826085Y-105176580D01*
X171111800Y-105176580D02*
X171111800Y-104176580D01*
X171016561Y-104319438D01*
X170921323Y-104414676D01*
X170826085Y-104462295D01*
%TO.C,U1*%
X159547655Y-100229420D02*
X159547655Y-101038944D01*
X159595274Y-101134182D01*
X159642893Y-101181801D01*
X159738131Y-101229420D01*
X159928607Y-101229420D01*
X160023845Y-101181801D01*
X160071464Y-101134182D01*
X160119083Y-101038944D01*
X160119083Y-100229420D01*
X161119083Y-101229420D02*
X160547655Y-101229420D01*
X160833369Y-101229420D02*
X160833369Y-100229420D01*
X160738131Y-100372278D01*
X160642893Y-100467516D01*
X160547655Y-100515135D01*
X156363138Y-93378280D02*
X156363138Y-92378280D01*
X156934566Y-93378280D01*
X156934566Y-92378280D01*
X157886947Y-93378280D02*
X157410757Y-93378280D01*
X157410757Y-92378280D01*
X158172661Y-93330661D02*
X158315519Y-93378280D01*
X158553614Y-93378280D01*
X158648852Y-93330661D01*
X158696471Y-93283042D01*
X158744090Y-93187804D01*
X158744090Y-93092566D01*
X158696471Y-92997328D01*
X158648852Y-92949709D01*
X158553614Y-92902090D01*
X158363138Y-92854471D01*
X158267900Y-92806852D01*
X158220280Y-92759233D01*
X158172661Y-92663995D01*
X158172661Y-92568757D01*
X158220280Y-92473519D01*
X158267900Y-92425900D01*
X158363138Y-92378280D01*
X158601233Y-92378280D01*
X158744090Y-92425900D01*
X159077423Y-92378280D02*
X159744090Y-93378280D01*
X159744090Y-92378280D02*
X159077423Y-93378280D01*
X160601233Y-92378280D02*
X160125042Y-92378280D01*
X160077423Y-92854471D01*
X160125042Y-92806852D01*
X160220280Y-92759233D01*
X160458376Y-92759233D01*
X160553614Y-92806852D01*
X160601233Y-92854471D01*
X160648852Y-92949709D01*
X160648852Y-93187804D01*
X160601233Y-93283042D01*
X160553614Y-93330661D01*
X160458376Y-93378280D01*
X160220280Y-93378280D01*
X160125042Y-93330661D01*
X160077423Y-93283042D01*
X161267900Y-92378280D02*
X161363138Y-92378280D01*
X161458376Y-92425900D01*
X161505995Y-92473519D01*
X161553614Y-92568757D01*
X161601233Y-92759233D01*
X161601233Y-92997328D01*
X161553614Y-93187804D01*
X161505995Y-93283042D01*
X161458376Y-93330661D01*
X161363138Y-93378280D01*
X161267900Y-93378280D01*
X161172661Y-93330661D01*
X161125042Y-93283042D01*
X161077423Y-93187804D01*
X161029804Y-92997328D01*
X161029804Y-92759233D01*
X161077423Y-92568757D01*
X161125042Y-92473519D01*
X161172661Y-92425900D01*
X161267900Y-92378280D01*
X162553614Y-93378280D02*
X161982185Y-93378280D01*
X162267900Y-93378280D02*
X162267900Y-92378280D01*
X162172661Y-92521138D01*
X162077423Y-92616376D01*
X161982185Y-92663995D01*
X163410757Y-92711614D02*
X163410757Y-93378280D01*
X163172661Y-92330661D02*
X162934566Y-93044947D01*
X163553614Y-93044947D01*
X163934566Y-93378280D02*
X163934566Y-92378280D01*
X164172661Y-92378280D01*
X164315519Y-92425900D01*
X164410757Y-92521138D01*
X164458376Y-92616376D01*
X164505995Y-92806852D01*
X164505995Y-92949709D01*
X164458376Y-93140185D01*
X164410757Y-93235423D01*
X164315519Y-93330661D01*
X164172661Y-93378280D01*
X163934566Y-93378280D01*
X164791709Y-92378280D02*
X165363138Y-92378280D01*
X165077423Y-93378280D02*
X165077423Y-92378280D01*
X166267900Y-93378280D02*
X165934566Y-92902090D01*
X165696471Y-93378280D02*
X165696471Y-92378280D01*
X166077423Y-92378280D01*
X166172661Y-92425900D01*
X166220280Y-92473519D01*
X166267900Y-92568757D01*
X166267900Y-92711614D01*
X166220280Y-92806852D01*
X166172661Y-92854471D01*
X166077423Y-92902090D01*
X165696471Y-92902090D01*
X166648852Y-92473519D02*
X166696471Y-92425900D01*
X166791709Y-92378280D01*
X167029804Y-92378280D01*
X167125042Y-92425900D01*
X167172661Y-92473519D01*
X167220280Y-92568757D01*
X167220280Y-92663995D01*
X167172661Y-92806852D01*
X166601233Y-93378280D01*
X167220280Y-93378280D01*
X168172661Y-92425900D02*
X168077423Y-92378280D01*
X167934566Y-92378280D01*
X167791709Y-92425900D01*
X167696471Y-92521138D01*
X167648852Y-92616376D01*
X167601233Y-92806852D01*
X167601233Y-92949709D01*
X167648852Y-93140185D01*
X167696471Y-93235423D01*
X167791709Y-93330661D01*
X167934566Y-93378280D01*
X168029804Y-93378280D01*
X168172661Y-93330661D01*
X168220280Y-93283042D01*
X168220280Y-92949709D01*
X168029804Y-92949709D01*
X163982400Y-99845880D02*
X163982400Y-100083976D01*
X163744304Y-99988738D02*
X163982400Y-100083976D01*
X164220495Y-99988738D01*
X163839542Y-100274452D02*
X163982400Y-100083976D01*
X164125257Y-100274452D01*
X163982400Y-99820480D02*
X163982400Y-100058576D01*
X163744304Y-99963338D02*
X163982400Y-100058576D01*
X164220495Y-99963338D01*
X163839542Y-100249052D02*
X163982400Y-100058576D01*
X164125257Y-100249052D01*
%TD*%
M02*
